<svg width="120" height="25" viewBox="0 0 120 25" fill="none" xmlns="http://www.w3.org/2000/svg">
<path d="M17.0986 13.2149C17.0925 12.4625 17.3705 11.7356 17.8771 11.1793C18.3837 10.623 19.0816 10.2784 19.8312 10.2144H32.3691L28.297 12.9269H21.4721C21.0321 12.9286 20.6107 13.1042 20.2996 13.4153C19.9885 13.7264 19.8129 14.1479 19.8111 14.5879V21.3725L17.1321 24.5941L17.0986 13.2149Z" fill="white"/>
<path d="M16.1509 9.57851C15.4519 9.59524 14.7741 9.33806 14.2622 8.86187L5.21375 0.000976562L10.1365 0.965428L15.0659 5.80108C15.3814 6.11073 15.8059 6.2842 16.248 6.2842C16.6901 6.2842 17.1146 6.11073 17.4301 5.80108L22.3729 0.972125L27.2823 0.000976562L18.4348 8.70783C17.8104 9.27544 16.9947 9.5864 16.1509 9.57851Z" fill="white"/>
<path d="M12.5508 21.3657V14.5877C12.5508 14.1466 12.376 13.7234 12.0647 13.4109C11.7534 13.0983 11.3309 12.9218 10.8898 12.92H4.05824L-0.000488281 10.2075H12.2628C13.0376 10.2189 13.7812 10.5144 14.3524 11.038C14.6299 11.2743 14.8545 11.5664 15.0114 11.8953C15.1684 12.2242 15.2542 12.5825 15.2633 12.9468V24.5939L12.5508 21.3657Z" fill="white"/>
<path d="M55.2456 6.17437H40.4238V18.4309H55.2456C55.8115 18.4687 56.3792 18.3915 56.9145 18.2038C57.4497 18.0162 57.9414 17.7221 58.3599 17.3392C58.7269 16.9283 59.0054 16.4464 59.1782 15.9233C59.351 15.4002 59.4145 14.8472 59.3646 14.2985V10.4407C59.3646 8.98735 59.0364 7.94923 58.3599 7.26607C57.9414 6.88321 57.4497 6.58909 56.9145 6.40146C56.3792 6.21383 55.8115 6.13658 55.2456 6.17437ZM43.1163 16.0399V8.5654H54.6093C54.8982 8.54512 55.1883 8.58201 55.463 8.67395C55.7377 8.76589 55.9915 8.91108 56.21 9.10121C56.3999 9.31586 56.545 9.5662 56.637 9.83759C56.729 10.109 56.766 10.396 56.7458 10.6818V13.9235C56.766 14.2093 56.729 14.4963 56.637 14.7677C56.545 15.0391 56.3999 15.2894 56.21 15.5041C55.9919 15.6949 55.7381 15.8404 55.4633 15.9324C55.1886 16.0244 54.8983 16.0609 54.6093 16.0399H43.1163Z" fill="white"/>
<path d="M100.962 6.17139L92.8781 12.2662L100.955 18.428H96.8899L90.5406 13.5856L84.8745 18.428H80.7421L88.3103 12.2662L80.7622 6.17139H84.8745L90.4134 10.9669L96.8163 6.19148L100.962 6.17139Z" fill="white"/>
<path d="M64.2945 10.1649V11.1361H76.1291V13.4668H64.2945V14.438C64.28 14.6539 64.3086 14.8705 64.3787 15.0752C64.4489 15.2799 64.5592 15.4686 64.7031 15.6301C65.1644 15.9055 65.7028 16.023 66.2368 15.965H76.0287L80.1611 18.4297H65.2724C64.7848 18.4596 64.2962 18.3908 63.8359 18.2274C63.3756 18.0639 62.9529 17.8093 62.5934 17.4787C62.2692 17.1156 62.02 16.6919 61.8602 16.2322C61.7005 15.7724 61.6332 15.2855 61.6624 14.7996V9.84343C61.6332 9.35755 61.7005 8.87069 61.8602 8.41091C62.02 7.95112 62.2692 7.52749 62.5934 7.1644C62.9529 6.83377 63.3756 6.57913 63.8359 6.41571C64.2962 6.25229 64.7848 6.18346 65.2724 6.21334H80.2013L76.1091 8.65796H65.922C65.7061 8.64301 65.4894 8.67145 65.2846 8.74162C65.0799 8.81179 64.8913 8.92226 64.7299 9.06651C64.5834 9.20814 64.4688 9.37936 64.3938 9.56877C64.3187 9.75817 64.2849 9.9614 64.2945 10.1649Z" fill="white"/>
<path d="M115.867 15.965L119.999 18.4297H105.057C104.569 18.4596 104.081 18.3908 103.62 18.2274C103.16 18.0639 102.737 17.8093 102.378 17.4787C102.053 17.1156 101.804 16.6919 101.645 16.2322C101.485 15.7724 101.418 15.2855 101.447 14.7996V9.84343C101.418 9.35755 101.485 8.87069 101.645 8.41091C101.804 7.95112 102.053 7.52749 102.378 7.1644C102.737 6.83377 103.16 6.57913 103.62 6.41571C104.081 6.25229 104.569 6.18346 105.057 6.21334H119.986L115.867 8.61777H105.68C105.464 8.60282 105.247 8.63127 105.042 8.70144C104.837 8.7716 104.649 8.88207 104.487 9.02632C104.343 9.17259 104.232 9.34816 104.161 9.54114C104.091 9.73412 104.063 9.94 104.079 10.1448V11.116H115.913V13.4668H104.106V14.438C104.09 14.654 104.117 14.871 104.188 15.0759C104.258 15.2809 104.369 15.4694 104.514 15.6301C104.975 15.9055 105.514 16.023 106.048 15.965H115.867Z" fill="white"/>
</svg>
