<svg width="250" height="250" viewBox="0 0 250 250" fill="none" xmlns="http://www.w3.org/2000/svg">
<path d="M53.3203 154.961V165.158H140.226" stroke="black" stroke-linecap="round"/>
<path d="M53.3203 154.961V165.158H140.226" stroke="url(#paint0_linear_252_2869)" stroke-linecap="round"/>
<path d="M52.293 95.0664V81.8662H139.199" stroke="black" stroke-linecap="round"/>
<path d="M52.293 95.0664V81.8662H139.199" stroke="url(#paint1_linear_252_2869)" stroke-linecap="round"/>
<g filter="url(#filter0_dddddd_252_2869)">
<circle cx="4.45111" cy="4.45111" r="4.45111" transform="matrix(0.688302 0.725424 -0.688302 0.725424 138.305 75.2227)" fill="#2DE3E3" fill-opacity="0.8"/>
</g>
<g filter="url(#filter1_dddddd_252_2869)">
<circle cx="4.45111" cy="4.45111" r="4.45111" transform="matrix(0.688302 0.725424 -0.688302 0.725424 139.199 158.918)" fill="#2DE3E3" fill-opacity="0.8"/>
</g>
<rect x="29.1914" y="131.004" width="54.0073" height="21.6858" rx="10.8429" fill="#0C1018"/>
<path fill-rule="evenodd" clip-rule="evenodd" d="M80.5223 138.872C80.5305 138.833 80.534 138.798 80.534 138.766C80.534 138.503 80.2847 137.95 79.0427 137.237C77.8765 136.568 76.1224 135.932 73.8679 135.385C69.3746 134.294 63.1154 133.609 56.1655 133.609C49.2155 133.609 42.9563 134.294 38.463 135.385C36.2086 135.932 34.4544 136.568 33.2882 137.237C32.0462 137.95 31.7969 138.503 31.7969 138.766C31.7969 139.03 32.0462 139.583 33.2882 140.296C34.4544 140.965 36.2086 141.601 38.463 142.148C42.9563 143.239 49.2155 143.923 56.1655 143.923C63.1154 143.923 69.3746 143.239 73.8679 142.148C76.1224 141.601 77.8765 140.965 79.0427 140.296C80.0756 139.703 80.422 139.221 80.5093 138.924L80.5085 138.872L80.5223 138.872ZM81.5112 139.03C81.5264 138.943 81.534 138.855 81.534 138.766C81.534 135.366 70.1761 132.609 56.1655 132.609C42.1548 132.609 30.7969 135.366 30.7969 138.766C30.7969 138.978 30.8408 139.187 30.9264 139.393L30.9264 144.923H30.882C30.882 145.731 31.5367 146.532 32.8131 147.279C34.088 148.026 35.9566 148.705 38.3123 149.277C40.668 149.849 43.4646 150.302 46.5424 150.612C49.6203 150.921 52.9191 151.08 56.2506 151.08C59.582 151.08 62.8809 150.921 65.9587 150.612C69.0366 150.302 71.8332 149.849 74.1889 149.277C76.5446 148.705 78.4132 148.026 79.6881 147.279C80.9644 146.532 81.6192 145.731 81.6192 144.923H81.6065L81.5112 139.03ZM80.5345 140.483C80.3261 140.658 80.0868 140.829 79.8179 140.997V145.996C80.3799 145.569 80.5646 145.231 80.608 145.023L80.5345 140.483ZM56.1886 144.923C57.5962 144.923 58.9769 144.895 60.3219 144.841V150C58.9798 150.053 57.6182 150.08 56.2506 150.08L56.1886 150.08V144.923ZM64.9254 144.547C63.7619 144.65 62.5584 144.734 61.3219 144.796V149.955C62.5458 149.894 63.7504 149.81 64.9254 149.705V144.547ZM65.9254 144.451C67.2707 144.315 68.5573 144.152 69.7735 143.964V149.121C68.5576 149.31 67.2704 149.474 65.9254 149.61V144.451ZM74.5403 143.012C73.3954 143.303 72.1338 143.568 70.7735 143.801V148.957C71.9071 148.762 72.971 148.544 73.953 148.305C74.1529 148.257 74.3487 148.207 74.5403 148.158V143.012ZM75.5403 142.741C76.8158 142.375 77.9185 141.973 78.8179 141.541V146.619C77.9799 147.059 76.8821 147.486 75.5403 147.881V142.741ZM56.0124 144.923C54.5159 144.921 53.0501 144.888 51.6257 144.825V149.976C52.7999 150.029 53.9906 150.063 55.1886 150.075V144.923H56.0124ZM50.6257 144.776V149.926C49.4707 149.861 48.3343 149.777 47.2255 149.673V144.53C48.3246 144.631 49.4601 144.713 50.6257 144.776ZM46.2255 144.433C45.0879 144.315 43.993 144.178 42.9479 144.023V149.155C43.992 149.313 45.0873 149.453 46.2255 149.574V144.433ZM41.9479 143.866V148.995C40.7621 148.795 39.6507 148.57 38.627 148.324V143.215C39.6551 143.454 40.7659 143.672 41.9479 143.866ZM37.627 142.969C36.478 142.671 35.4498 142.345 34.5615 141.996V147.035C35.4056 147.397 36.4306 147.745 37.627 148.069V142.969ZM33.5615 141.564V146.554C33.4778 146.508 33.3968 146.462 33.3186 146.417C32.312 145.827 31.9881 145.354 31.9059 145.074H31.9264V140.589C32.3581 140.927 32.907 141.254 33.5615 141.564Z" fill="black"/>
<path fill-rule="evenodd" clip-rule="evenodd" d="M80.5223 138.872C80.5305 138.833 80.534 138.798 80.534 138.766C80.534 138.503 80.2847 137.95 79.0427 137.237C77.8765 136.568 76.1224 135.932 73.8679 135.385C69.3746 134.294 63.1154 133.609 56.1655 133.609C49.2155 133.609 42.9563 134.294 38.463 135.385C36.2086 135.932 34.4544 136.568 33.2882 137.237C32.0462 137.95 31.7969 138.503 31.7969 138.766C31.7969 139.03 32.0462 139.583 33.2882 140.296C34.4544 140.965 36.2086 141.601 38.463 142.148C42.9563 143.239 49.2155 143.923 56.1655 143.923C63.1154 143.923 69.3746 143.239 73.8679 142.148C76.1224 141.601 77.8765 140.965 79.0427 140.296C80.0756 139.703 80.422 139.221 80.5093 138.924L80.5085 138.872L80.5223 138.872ZM81.5112 139.03C81.5264 138.943 81.534 138.855 81.534 138.766C81.534 135.366 70.1761 132.609 56.1655 132.609C42.1548 132.609 30.7969 135.366 30.7969 138.766C30.7969 138.978 30.8408 139.187 30.9264 139.393L30.9264 144.923H30.882C30.882 145.731 31.5367 146.532 32.8131 147.279C34.088 148.026 35.9566 148.705 38.3123 149.277C40.668 149.849 43.4646 150.302 46.5424 150.612C49.6203 150.921 52.9191 151.08 56.2506 151.08C59.582 151.08 62.8809 150.921 65.9587 150.612C69.0366 150.302 71.8332 149.849 74.1889 149.277C76.5446 148.705 78.4132 148.026 79.6881 147.279C80.9644 146.532 81.6192 145.731 81.6192 144.923H81.6065L81.5112 139.03ZM80.5345 140.483C80.3261 140.658 80.0868 140.829 79.8179 140.997V145.996C80.3799 145.569 80.5646 145.231 80.608 145.023L80.5345 140.483ZM56.1886 144.923C57.5962 144.923 58.9769 144.895 60.3219 144.841V150C58.9798 150.053 57.6182 150.08 56.2506 150.08L56.1886 150.08V144.923ZM64.9254 144.547C63.7619 144.65 62.5584 144.734 61.3219 144.796V149.955C62.5458 149.894 63.7504 149.81 64.9254 149.705V144.547ZM65.9254 144.451C67.2707 144.315 68.5573 144.152 69.7735 143.964V149.121C68.5576 149.31 67.2704 149.474 65.9254 149.61V144.451ZM74.5403 143.012C73.3954 143.303 72.1338 143.568 70.7735 143.801V148.957C71.9071 148.762 72.971 148.544 73.953 148.305C74.1529 148.257 74.3487 148.207 74.5403 148.158V143.012ZM75.5403 142.741C76.8158 142.375 77.9185 141.973 78.8179 141.541V146.619C77.9799 147.059 76.8821 147.486 75.5403 147.881V142.741ZM56.0124 144.923C54.5159 144.921 53.0501 144.888 51.6257 144.825V149.976C52.7999 150.029 53.9906 150.063 55.1886 150.075V144.923H56.0124ZM50.6257 144.776V149.926C49.4707 149.861 48.3343 149.777 47.2255 149.673V144.53C48.3246 144.631 49.4601 144.713 50.6257 144.776ZM46.2255 144.433C45.0879 144.315 43.993 144.178 42.9479 144.023V149.155C43.992 149.313 45.0873 149.453 46.2255 149.574V144.433ZM41.9479 143.866V148.995C40.7621 148.795 39.6507 148.57 38.627 148.324V143.215C39.6551 143.454 40.7659 143.672 41.9479 143.866ZM37.627 142.969C36.478 142.671 35.4498 142.345 34.5615 141.996V147.035C35.4056 147.397 36.4306 147.745 37.627 148.069V142.969ZM33.5615 141.564V146.554C33.4778 146.508 33.3968 146.462 33.3186 146.417C32.312 145.827 31.9881 145.354 31.9059 145.074H31.9264V140.589C32.3581 140.927 32.907 141.254 33.5615 141.564Z" fill="url(#paint2_linear_252_2869)"/>
<rect x="23.0938" y="121.621" width="54.0073" height="21.6858" rx="10.8429" fill="#0C1018"/>
<path fill-rule="evenodd" clip-rule="evenodd" d="M74.4247 129.489C74.4329 129.45 74.4364 129.415 74.4364 129.384C74.4364 129.12 74.187 128.567 72.9451 127.854C71.7788 127.185 70.0247 126.549 67.7702 126.002C63.277 124.911 57.0177 124.227 50.0678 124.227C43.1178 124.227 36.8586 124.911 32.3654 126.002C30.1109 126.549 28.3568 127.185 27.1905 127.854C25.9486 128.567 25.6992 129.12 25.6992 129.384C25.6992 129.647 25.9486 130.2 27.1905 130.913C28.3568 131.582 30.1109 132.218 32.3654 132.766C36.8586 133.856 43.1178 134.541 50.0678 134.541C57.0177 134.541 63.277 133.856 67.7702 132.766C70.0247 132.218 71.7788 131.582 72.9451 130.913C73.978 130.32 74.3243 129.838 74.4116 129.541L74.4108 129.489L74.4247 129.489ZM75.4135 129.647C75.4287 129.56 75.4364 129.472 75.4364 129.384C75.4364 125.983 64.0785 123.227 50.0678 123.227C36.0571 123.227 24.6992 125.983 24.6992 129.384C24.6992 129.595 24.7431 129.804 24.8288 130.01L24.8288 135.54H24.7843C24.7843 136.348 25.4391 137.149 26.7154 137.897C27.9903 138.644 29.859 139.322 32.2146 139.894C34.5703 140.466 37.3669 140.919 40.4448 141.229C43.5226 141.538 46.8215 141.698 50.1529 141.698C53.4844 141.698 56.7832 141.538 59.8611 141.229C62.9389 140.919 65.7355 140.466 68.0912 139.894C70.4469 139.322 72.3155 138.644 73.5904 137.897C74.8668 137.149 75.5215 136.348 75.5215 135.54H75.5089L75.4135 129.647ZM74.4369 131.101C74.2285 131.275 73.9891 131.446 73.7203 131.614V136.613C74.2823 136.186 74.4669 135.848 74.5104 135.64L74.4369 131.101ZM50.0909 135.541C51.4985 135.54 52.8792 135.512 54.2243 135.458V140.617C52.8821 140.67 51.5206 140.698 50.1529 140.698L50.0909 140.697V135.541ZM58.8277 135.164C57.6642 135.268 56.4607 135.351 55.2243 135.413V140.572C56.4481 140.511 57.6527 140.427 58.8277 140.322V135.164ZM59.8277 135.068C61.173 134.932 62.4597 134.769 63.6759 134.581V139.738C62.4599 139.927 61.1728 140.091 59.8277 140.227V135.068ZM68.4426 133.629C67.2978 133.921 66.0361 134.185 64.6759 134.418V139.574C65.8095 139.379 66.8733 139.161 67.8554 138.922C68.0552 138.874 68.251 138.825 68.4426 138.775V133.629ZM69.4426 133.358C70.7181 132.993 71.8209 132.59 72.7203 132.158V137.236C71.8823 137.677 70.7844 138.103 69.4426 138.498V133.358ZM49.9148 135.541C48.4183 135.538 46.9525 135.505 45.528 135.442V140.593C46.7023 140.647 47.8929 140.68 49.0909 140.692V135.541H49.9148ZM44.528 135.393V140.543C43.373 140.478 42.2367 140.394 41.1279 140.29V135.147C42.227 135.248 43.3624 135.33 44.528 135.393ZM40.1279 135.05C38.9903 134.932 37.8953 134.795 36.8502 134.64V139.772C37.8943 139.93 38.9897 140.071 40.1279 140.191V135.05ZM35.8502 134.484V139.612C34.6645 139.412 33.553 139.188 32.5293 138.941V133.832C33.5574 134.071 34.6682 134.289 35.8502 134.484ZM31.5293 133.587C30.3803 133.288 29.3522 132.962 28.4639 132.613V137.652C29.3079 138.014 30.3329 138.363 31.5293 138.686V133.587ZM27.4639 132.182V137.171C27.3801 137.125 27.2991 137.08 27.221 137.034C26.2144 136.444 25.8904 135.971 25.8082 135.691H25.8288V131.206C26.2605 131.545 26.8093 131.871 27.4639 132.182Z" fill="black"/>
<path fill-rule="evenodd" clip-rule="evenodd" d="M74.4247 129.489C74.4329 129.45 74.4364 129.415 74.4364 129.384C74.4364 129.12 74.187 128.567 72.9451 127.854C71.7788 127.185 70.0247 126.549 67.7702 126.002C63.277 124.911 57.0177 124.227 50.0678 124.227C43.1178 124.227 36.8586 124.911 32.3654 126.002C30.1109 126.549 28.3568 127.185 27.1905 127.854C25.9486 128.567 25.6992 129.12 25.6992 129.384C25.6992 129.647 25.9486 130.2 27.1905 130.913C28.3568 131.582 30.1109 132.218 32.3654 132.766C36.8586 133.856 43.1178 134.541 50.0678 134.541C57.0177 134.541 63.277 133.856 67.7702 132.766C70.0247 132.218 71.7788 131.582 72.9451 130.913C73.978 130.32 74.3243 129.838 74.4116 129.541L74.4108 129.489L74.4247 129.489ZM75.4135 129.647C75.4287 129.56 75.4364 129.472 75.4364 129.384C75.4364 125.983 64.0785 123.227 50.0678 123.227C36.0571 123.227 24.6992 125.983 24.6992 129.384C24.6992 129.595 24.7431 129.804 24.8288 130.01L24.8288 135.54H24.7843C24.7843 136.348 25.4391 137.149 26.7154 137.897C27.9903 138.644 29.859 139.322 32.2146 139.894C34.5703 140.466 37.3669 140.919 40.4448 141.229C43.5226 141.538 46.8215 141.698 50.1529 141.698C53.4844 141.698 56.7832 141.538 59.8611 141.229C62.9389 140.919 65.7355 140.466 68.0912 139.894C70.4469 139.322 72.3155 138.644 73.5904 137.897C74.8668 137.149 75.5215 136.348 75.5215 135.54H75.5089L75.4135 129.647ZM74.4369 131.101C74.2285 131.275 73.9891 131.446 73.7203 131.614V136.613C74.2823 136.186 74.4669 135.848 74.5104 135.64L74.4369 131.101ZM50.0909 135.541C51.4985 135.54 52.8792 135.512 54.2243 135.458V140.617C52.8821 140.67 51.5206 140.698 50.1529 140.698L50.0909 140.697V135.541ZM58.8277 135.164C57.6642 135.268 56.4607 135.351 55.2243 135.413V140.572C56.4481 140.511 57.6527 140.427 58.8277 140.322V135.164ZM59.8277 135.068C61.173 134.932 62.4597 134.769 63.6759 134.581V139.738C62.4599 139.927 61.1728 140.091 59.8277 140.227V135.068ZM68.4426 133.629C67.2978 133.921 66.0361 134.185 64.6759 134.418V139.574C65.8095 139.379 66.8733 139.161 67.8554 138.922C68.0552 138.874 68.251 138.825 68.4426 138.775V133.629ZM69.4426 133.358C70.7181 132.993 71.8209 132.59 72.7203 132.158V137.236C71.8823 137.677 70.7844 138.103 69.4426 138.498V133.358ZM49.9148 135.541C48.4183 135.538 46.9525 135.505 45.528 135.442V140.593C46.7023 140.647 47.8929 140.68 49.0909 140.692V135.541H49.9148ZM44.528 135.393V140.543C43.373 140.478 42.2367 140.394 41.1279 140.29V135.147C42.227 135.248 43.3624 135.33 44.528 135.393ZM40.1279 135.05C38.9903 134.932 37.8953 134.795 36.8502 134.64V139.772C37.8943 139.93 38.9897 140.071 40.1279 140.191V135.05ZM35.8502 134.484V139.612C34.6645 139.412 33.553 139.188 32.5293 138.941V133.832C33.5574 134.071 34.6682 134.289 35.8502 134.484ZM31.5293 133.587C30.3803 133.288 29.3522 132.962 28.4639 132.613V137.652C29.3079 138.014 30.3329 138.363 31.5293 138.686V133.587ZM27.4639 132.182V137.171C27.3801 137.125 27.2991 137.08 27.221 137.034C26.2144 136.444 25.8904 135.971 25.8082 135.691H25.8288V131.206C26.2605 131.545 26.8093 131.871 27.4639 132.182Z" fill="url(#paint3_linear_252_2869)"/>
<rect x="30.7383" y="113.676" width="54.0073" height="21.6858" rx="10.8429" fill="#0C1018"/>
<path fill-rule="evenodd" clip-rule="evenodd" d="M82.0692 121.544C82.0774 121.505 82.0809 121.47 82.0809 121.438C82.0809 121.175 81.8315 120.622 80.5896 119.909C79.4233 119.24 77.6692 118.604 75.4148 118.056C70.9215 116.966 64.6623 116.281 57.7123 116.281C50.7624 116.281 44.5032 116.966 40.0099 118.056C37.7554 118.604 36.0013 119.24 34.835 119.909C33.5931 120.622 33.3438 121.175 33.3438 121.438C33.3438 121.702 33.5931 122.255 34.835 122.968C36.0013 123.637 37.7554 124.273 40.0099 124.82C44.5032 125.911 50.7624 126.595 57.7123 126.595C64.6623 126.595 70.9215 125.911 75.4148 124.82C77.6692 124.273 79.4233 123.637 80.5896 122.968C81.6225 122.375 81.9689 121.893 82.0562 121.595L82.0553 121.544L82.0692 121.544ZM83.058 121.702C83.0732 121.615 83.0809 121.527 83.0809 121.438C83.0809 118.038 71.723 115.281 57.7123 115.281C43.7016 115.281 32.3438 118.038 32.3438 121.438C32.3438 121.65 32.3876 121.859 32.4733 122.064L32.4733 127.595H32.4289C32.4289 128.403 33.0836 129.203 34.3599 129.951C35.6348 130.698 37.5035 131.377 39.8592 131.949C42.2149 132.521 45.0115 132.974 48.0893 133.284C51.1672 133.593 54.466 133.752 57.7975 133.752C61.1289 133.752 64.4277 133.593 67.5056 133.284C70.5835 132.974 73.3801 132.521 75.7358 131.949C78.0914 131.377 79.9601 130.698 81.235 129.951C82.5113 129.203 83.166 128.403 83.166 127.595H83.1534L83.058 121.702ZM82.0814 123.155C81.873 123.33 81.6336 123.501 81.3648 123.669V128.668C81.9268 128.241 82.1114 127.903 82.1549 127.695L82.0814 123.155ZM57.7355 127.595C59.143 127.595 60.5238 127.567 61.8688 127.513V132.672C60.5267 132.725 59.1651 132.752 57.7975 132.752L57.7355 132.752V127.595ZM66.4723 127.218C65.3088 127.322 64.1052 127.406 62.8688 127.468V132.627C64.0926 132.565 65.2973 132.482 66.4723 132.377V127.218ZM67.4723 127.123C68.8176 126.987 70.1042 126.823 71.3204 126.635V131.793C70.1045 131.982 68.8173 132.145 67.4723 132.282V127.123ZM76.0872 125.683C74.9423 125.975 73.6806 126.24 72.3204 126.473V131.629C73.454 131.433 74.5178 131.215 75.4999 130.977C75.6998 130.929 75.8955 130.879 76.0872 130.83V125.683ZM77.0872 125.413C78.3626 125.047 79.4654 124.645 80.3648 124.213V129.291C79.5268 129.731 78.429 130.158 77.0872 130.553V125.413ZM57.5593 127.595C56.0628 127.593 54.597 127.559 53.1726 127.497V132.648C54.3468 132.701 55.5375 132.734 56.7355 132.747V127.595H57.5593ZM52.1726 127.448V132.597C51.0175 132.533 49.8812 132.449 48.7724 132.345V127.202C49.8715 127.303 51.0069 127.385 52.1726 127.448ZM47.7724 127.105C46.6348 126.987 45.5399 126.85 44.4948 126.695V131.827C45.5389 131.985 46.6342 132.125 47.7724 132.246V127.105ZM43.4948 126.538V131.666C42.309 131.467 41.1976 131.242 40.1738 130.996V125.887C41.202 126.126 42.3128 126.344 43.4948 126.538ZM39.1738 125.641C38.0248 125.343 36.9967 125.017 36.1084 124.667V129.707C36.9525 130.069 37.9775 130.417 39.1738 130.741V125.641ZM35.1084 124.236V129.226C35.0247 129.18 34.9437 129.134 34.8655 129.089C33.8589 128.499 33.535 128.026 33.4528 127.746H33.4733V123.261C33.905 123.599 34.4539 123.925 35.1084 124.236Z" fill="black"/>
<path fill-rule="evenodd" clip-rule="evenodd" d="M82.0692 121.544C82.0774 121.505 82.0809 121.47 82.0809 121.438C82.0809 121.175 81.8315 120.622 80.5896 119.909C79.4233 119.24 77.6692 118.604 75.4148 118.056C70.9215 116.966 64.6623 116.281 57.7123 116.281C50.7624 116.281 44.5032 116.966 40.0099 118.056C37.7554 118.604 36.0013 119.24 34.835 119.909C33.5931 120.622 33.3438 121.175 33.3438 121.438C33.3438 121.702 33.5931 122.255 34.835 122.968C36.0013 123.637 37.7554 124.273 40.0099 124.82C44.5032 125.911 50.7624 126.595 57.7123 126.595C64.6623 126.595 70.9215 125.911 75.4148 124.82C77.6692 124.273 79.4233 123.637 80.5896 122.968C81.6225 122.375 81.9689 121.893 82.0562 121.595L82.0553 121.544L82.0692 121.544ZM83.058 121.702C83.0732 121.615 83.0809 121.527 83.0809 121.438C83.0809 118.038 71.723 115.281 57.7123 115.281C43.7016 115.281 32.3438 118.038 32.3438 121.438C32.3438 121.65 32.3876 121.859 32.4733 122.064L32.4733 127.595H32.4289C32.4289 128.403 33.0836 129.203 34.3599 129.951C35.6348 130.698 37.5035 131.377 39.8592 131.949C42.2149 132.521 45.0115 132.974 48.0893 133.284C51.1672 133.593 54.466 133.752 57.7975 133.752C61.1289 133.752 64.4277 133.593 67.5056 133.284C70.5835 132.974 73.3801 132.521 75.7358 131.949C78.0914 131.377 79.9601 130.698 81.235 129.951C82.5113 129.203 83.166 128.403 83.166 127.595H83.1534L83.058 121.702ZM82.0814 123.155C81.873 123.33 81.6336 123.501 81.3648 123.669V128.668C81.9268 128.241 82.1114 127.903 82.1549 127.695L82.0814 123.155ZM57.7355 127.595C59.143 127.595 60.5238 127.567 61.8688 127.513V132.672C60.5267 132.725 59.1651 132.752 57.7975 132.752L57.7355 132.752V127.595ZM66.4723 127.218C65.3088 127.322 64.1052 127.406 62.8688 127.468V132.627C64.0926 132.565 65.2973 132.482 66.4723 132.377V127.218ZM67.4723 127.123C68.8176 126.987 70.1042 126.823 71.3204 126.635V131.793C70.1045 131.982 68.8173 132.145 67.4723 132.282V127.123ZM76.0872 125.683C74.9423 125.975 73.6806 126.24 72.3204 126.473V131.629C73.454 131.433 74.5178 131.215 75.4999 130.977C75.6998 130.929 75.8955 130.879 76.0872 130.83V125.683ZM77.0872 125.413C78.3626 125.047 79.4654 124.645 80.3648 124.213V129.291C79.5268 129.731 78.429 130.158 77.0872 130.553V125.413ZM57.5593 127.595C56.0628 127.593 54.597 127.559 53.1726 127.497V132.648C54.3468 132.701 55.5375 132.734 56.7355 132.747V127.595H57.5593ZM52.1726 127.448V132.597C51.0175 132.533 49.8812 132.449 48.7724 132.345V127.202C49.8715 127.303 51.0069 127.385 52.1726 127.448ZM47.7724 127.105C46.6348 126.987 45.5399 126.85 44.4948 126.695V131.827C45.5389 131.985 46.6342 132.125 47.7724 132.246V127.105ZM43.4948 126.538V131.666C42.309 131.467 41.1976 131.242 40.1738 130.996V125.887C41.202 126.126 42.3128 126.344 43.4948 126.538ZM39.1738 125.641C38.0248 125.343 36.9967 125.017 36.1084 124.667V129.707C36.9525 130.069 37.9775 130.417 39.1738 130.741V125.641ZM35.1084 124.236V129.226C35.0247 129.18 34.9437 129.134 34.8655 129.089C33.8589 128.499 33.535 128.026 33.4528 127.746H33.4733V123.261C33.905 123.599 34.4539 123.925 35.1084 124.236Z" fill="url(#paint4_linear_252_2869)"/>
<rect x="19.7383" y="105.676" width="54.0073" height="21.6858" rx="10.8429" fill="#0C1018"/>
<path fill-rule="evenodd" clip-rule="evenodd" d="M71.0692 113.544C71.0774 113.505 71.0809 113.47 71.0809 113.438C71.0809 113.175 70.8315 112.622 69.5896 111.909C68.4233 111.24 66.6692 110.604 64.4148 110.056C59.9215 108.966 53.6623 108.281 46.7123 108.281C39.7624 108.281 33.5032 108.966 29.0099 110.056C26.7554 110.604 25.0013 111.24 23.835 111.909C22.5931 112.622 22.3438 113.175 22.3438 113.438C22.3438 113.702 22.5931 114.255 23.835 114.968C25.0013 115.637 26.7554 116.273 29.0099 116.82C33.5032 117.911 39.7624 118.595 46.7123 118.595C53.6623 118.595 59.9215 117.911 64.4148 116.82C66.6692 116.273 68.4233 115.637 69.5896 114.968C70.6225 114.375 70.9689 113.893 71.0562 113.595L71.0553 113.544L71.0692 113.544ZM72.058 113.702C72.0732 113.615 72.0809 113.527 72.0809 113.438C72.0809 110.038 60.723 107.281 46.7123 107.281C32.7016 107.281 21.3438 110.038 21.3438 113.438C21.3438 113.65 21.3876 113.859 21.4733 114.064L21.4733 119.595H21.4289C21.4289 120.403 22.0836 121.203 23.3599 121.951C24.6348 122.698 26.5035 123.377 28.8592 123.949C31.2149 124.521 34.0115 124.974 37.0893 125.284C40.1672 125.593 43.466 125.752 46.7975 125.752C50.1289 125.752 53.4277 125.593 56.5056 125.284C59.5835 124.974 62.3801 124.521 64.7358 123.949C67.0914 123.377 68.9601 122.698 70.235 121.951C71.5113 121.203 72.166 120.403 72.166 119.595H72.1534L72.058 113.702ZM71.0814 115.155C70.873 115.33 70.6336 115.501 70.3648 115.669V120.668C70.9268 120.241 71.1114 119.903 71.1549 119.695L71.0814 115.155ZM46.7355 119.595C48.143 119.595 49.5238 119.567 50.8688 119.513V124.672C49.5267 124.725 48.1651 124.752 46.7975 124.752L46.7355 124.752V119.595ZM55.4723 119.218C54.3088 119.322 53.1052 119.406 51.8688 119.468V124.627C53.0926 124.565 54.2973 124.482 55.4723 124.377V119.218ZM56.4723 119.123C57.8176 118.987 59.1042 118.823 60.3204 118.635V123.793C59.1045 123.982 57.8173 124.145 56.4723 124.282V119.123ZM65.0872 117.683C63.9423 117.975 62.6806 118.24 61.3204 118.473V123.629C62.454 123.433 63.5178 123.215 64.4999 122.977C64.6998 122.929 64.8955 122.879 65.0872 122.83V117.683ZM66.0872 117.413C67.3626 117.047 68.4654 116.645 69.3648 116.213V121.291C68.5268 121.731 67.429 122.158 66.0872 122.553V117.413ZM46.5593 119.595C45.0628 119.593 43.597 119.559 42.1726 119.497V124.648C43.3468 124.701 44.5375 124.734 45.7355 124.747V119.595H46.5593ZM41.1726 119.448V124.597C40.0175 124.533 38.8812 124.449 37.7724 124.345V119.202C38.8715 119.303 40.0069 119.385 41.1726 119.448ZM36.7724 119.105C35.6348 118.987 34.5399 118.85 33.4948 118.695V123.827C34.5389 123.985 35.6342 124.125 36.7724 124.246V119.105ZM32.4948 118.538V123.666C31.309 123.467 30.1976 123.242 29.1738 122.996V117.887C30.202 118.126 31.3128 118.344 32.4948 118.538ZM28.1738 117.641C27.0248 117.343 25.9967 117.017 25.1084 116.667V121.707C25.9525 122.069 26.9775 122.417 28.1738 122.741V117.641ZM24.1084 116.236V121.226C24.0247 121.18 23.9437 121.134 23.8655 121.089C22.8589 120.499 22.535 120.026 22.4528 119.746H22.4733V115.261C22.905 115.599 23.4539 115.925 24.1084 116.236Z" fill="black"/>
<path fill-rule="evenodd" clip-rule="evenodd" d="M71.0692 113.544C71.0774 113.505 71.0809 113.47 71.0809 113.438C71.0809 113.175 70.8315 112.622 69.5896 111.909C68.4233 111.24 66.6692 110.604 64.4148 110.056C59.9215 108.966 53.6623 108.281 46.7123 108.281C39.7624 108.281 33.5032 108.966 29.0099 110.056C26.7554 110.604 25.0013 111.24 23.835 111.909C22.5931 112.622 22.3438 113.175 22.3438 113.438C22.3438 113.702 22.5931 114.255 23.835 114.968C25.0013 115.637 26.7554 116.273 29.0099 116.82C33.5032 117.911 39.7624 118.595 46.7123 118.595C53.6623 118.595 59.9215 117.911 64.4148 116.82C66.6692 116.273 68.4233 115.637 69.5896 114.968C70.6225 114.375 70.9689 113.893 71.0562 113.595L71.0553 113.544L71.0692 113.544ZM72.058 113.702C72.0732 113.615 72.0809 113.527 72.0809 113.438C72.0809 110.038 60.723 107.281 46.7123 107.281C32.7016 107.281 21.3438 110.038 21.3438 113.438C21.3438 113.65 21.3876 113.859 21.4733 114.064L21.4733 119.595H21.4289C21.4289 120.403 22.0836 121.203 23.3599 121.951C24.6348 122.698 26.5035 123.377 28.8592 123.949C31.2149 124.521 34.0115 124.974 37.0893 125.284C40.1672 125.593 43.466 125.752 46.7975 125.752C50.1289 125.752 53.4277 125.593 56.5056 125.284C59.5835 124.974 62.3801 124.521 64.7358 123.949C67.0914 123.377 68.9601 122.698 70.235 121.951C71.5113 121.203 72.166 120.403 72.166 119.595H72.1534L72.058 113.702ZM71.0814 115.155C70.873 115.33 70.6336 115.501 70.3648 115.669V120.668C70.9268 120.241 71.1114 119.903 71.1549 119.695L71.0814 115.155ZM46.7355 119.595C48.143 119.595 49.5238 119.567 50.8688 119.513V124.672C49.5267 124.725 48.1651 124.752 46.7975 124.752L46.7355 124.752V119.595ZM55.4723 119.218C54.3088 119.322 53.1052 119.406 51.8688 119.468V124.627C53.0926 124.565 54.2973 124.482 55.4723 124.377V119.218ZM56.4723 119.123C57.8176 118.987 59.1042 118.823 60.3204 118.635V123.793C59.1045 123.982 57.8173 124.145 56.4723 124.282V119.123ZM65.0872 117.683C63.9423 117.975 62.6806 118.24 61.3204 118.473V123.629C62.454 123.433 63.5178 123.215 64.4999 122.977C64.6998 122.929 64.8955 122.879 65.0872 122.83V117.683ZM66.0872 117.413C67.3626 117.047 68.4654 116.645 69.3648 116.213V121.291C68.5268 121.731 67.429 122.158 66.0872 122.553V117.413ZM46.5593 119.595C45.0628 119.593 43.597 119.559 42.1726 119.497V124.648C43.3468 124.701 44.5375 124.734 45.7355 124.747V119.595H46.5593ZM41.1726 119.448V124.597C40.0175 124.533 38.8812 124.449 37.7724 124.345V119.202C38.8715 119.303 40.0069 119.385 41.1726 119.448ZM36.7724 119.105C35.6348 118.987 34.5399 118.85 33.4948 118.695V123.827C34.5389 123.985 35.6342 124.125 36.7724 124.246V119.105ZM32.4948 118.538V123.666C31.309 123.467 30.1976 123.242 29.1738 122.996V117.887C30.202 118.126 31.3128 118.344 32.4948 118.538ZM28.1738 117.641C27.0248 117.343 25.9967 117.017 25.1084 116.667V121.707C25.9525 122.069 26.9775 122.417 28.1738 122.741V117.641ZM24.1084 116.236V121.226C24.0247 121.18 23.9437 121.134 23.8655 121.089C22.8589 120.499 22.535 120.026 22.4528 119.746H22.4733V115.261C22.905 115.599 23.4539 115.925 24.1084 116.236Z" fill="url(#paint5_linear_252_2869)"/>
<rect x="25.8008" y="97.3047" width="54.0073" height="21.6858" rx="10.8429" fill="#0C1018"/>
<path fill-rule="evenodd" clip-rule="evenodd" d="M77.1317 105.173C77.1399 105.134 77.1434 105.098 77.1434 105.067C77.1434 104.804 76.894 104.251 75.6521 103.538C74.4858 102.869 72.7317 102.232 70.4773 101.685C65.984 100.595 59.7248 99.9102 52.7748 99.9102C45.8249 99.9102 39.5657 100.595 35.0724 101.685C32.8179 102.232 31.0638 102.869 29.8975 103.538C28.6556 104.251 28.4062 104.804 28.4062 105.067C28.4062 105.331 28.6556 105.884 29.8975 106.596C31.0638 107.266 32.8179 107.902 35.0724 108.449C39.5657 109.54 45.8249 110.224 52.7748 110.224C59.7248 110.224 65.984 109.54 70.4773 108.449C72.7317 107.902 74.4858 107.266 75.6521 106.596C76.685 106.004 77.0314 105.522 77.1187 105.224L77.1178 105.173L77.1317 105.173ZM78.1205 105.331C78.1357 105.244 78.1434 105.156 78.1434 105.067C78.1434 101.667 66.7855 98.9102 52.7748 98.9102C38.7641 98.9102 27.4062 101.667 27.4062 105.067C27.4062 105.279 27.4501 105.487 27.5358 105.693L27.5358 111.224H27.4914C27.4914 112.032 28.1461 112.832 29.4224 113.58C30.6973 114.327 32.566 115.006 34.9217 115.578C37.2774 116.149 40.074 116.603 43.1518 116.912C46.2297 117.222 49.5285 117.381 52.86 117.381C56.1914 117.381 59.4902 117.222 62.5681 116.912C65.646 116.603 68.4426 116.149 70.7983 115.578C73.1539 115.006 75.0226 114.327 76.2975 113.58C77.5738 112.832 78.2285 112.032 78.2285 111.224H78.2159L78.1205 105.331ZM77.1439 106.784C76.9355 106.959 76.6961 107.13 76.4273 107.298V112.297C76.9893 111.87 77.1739 111.532 77.2174 111.324L77.1439 106.784ZM52.798 111.224C54.2055 111.224 55.5863 111.196 56.9313 111.142V116.301C55.5892 116.354 54.2276 116.381 52.86 116.381L52.798 116.381V111.224ZM61.5348 110.847C60.3713 110.951 59.1677 111.035 57.9313 111.097V116.256C59.1551 116.194 60.3598 116.111 61.5348 116.006V110.847ZM62.5348 110.752C63.8801 110.616 65.1667 110.452 66.3829 110.264V115.422C65.167 115.61 63.8798 115.774 62.5348 115.911V110.752ZM71.1497 109.312C70.0048 109.604 68.7431 109.869 67.3829 110.102V115.258C68.5165 115.062 69.5803 114.844 70.5624 114.606C70.7623 114.557 70.958 114.508 71.1497 114.458V109.312ZM72.1497 109.042C73.4251 108.676 74.5279 108.274 75.4273 107.842V112.92C74.5893 113.36 73.4915 113.787 72.1497 114.182V109.042ZM52.6218 111.224C51.1253 111.222 49.6595 111.188 48.2351 111.126V116.277C49.4093 116.33 50.6 116.363 51.798 116.376V111.224H52.6218ZM47.2351 111.077V116.226C46.08 116.162 44.9437 116.078 43.8349 115.974V110.831C44.934 110.932 46.0694 111.014 47.2351 111.077ZM42.8349 110.734C41.6973 110.616 40.6024 110.479 39.5573 110.324V115.455C40.6014 115.614 41.6967 115.754 42.8349 115.874V110.734ZM38.5573 110.167V115.295C37.3715 115.096 36.2601 114.871 35.2363 114.625V109.516C36.2645 109.755 37.3753 109.973 38.5573 110.167ZM34.2363 109.27C33.0873 108.972 32.0592 108.646 31.1709 108.296V113.335C32.015 113.698 33.04 114.046 34.2363 114.37V109.27ZM30.1709 107.865V112.855C30.0872 112.809 30.0062 112.763 29.928 112.717C28.9214 112.128 28.5975 111.655 28.5153 111.375H28.5358V106.89C28.9675 107.228 29.5164 107.554 30.1709 107.865Z" fill="black"/>
<path fill-rule="evenodd" clip-rule="evenodd" d="M77.1317 105.173C77.1399 105.134 77.1434 105.098 77.1434 105.067C77.1434 104.804 76.894 104.251 75.6521 103.538C74.4858 102.869 72.7317 102.232 70.4773 101.685C65.984 100.595 59.7248 99.9102 52.7748 99.9102C45.8249 99.9102 39.5657 100.595 35.0724 101.685C32.8179 102.232 31.0638 102.869 29.8975 103.538C28.6556 104.251 28.4062 104.804 28.4062 105.067C28.4062 105.331 28.6556 105.884 29.8975 106.596C31.0638 107.266 32.8179 107.902 35.0724 108.449C39.5657 109.54 45.8249 110.224 52.7748 110.224C59.7248 110.224 65.984 109.54 70.4773 108.449C72.7317 107.902 74.4858 107.266 75.6521 106.596C76.685 106.004 77.0314 105.522 77.1187 105.224L77.1178 105.173L77.1317 105.173ZM78.1205 105.331C78.1357 105.244 78.1434 105.156 78.1434 105.067C78.1434 101.667 66.7855 98.9102 52.7748 98.9102C38.7641 98.9102 27.4062 101.667 27.4062 105.067C27.4062 105.279 27.4501 105.487 27.5358 105.693L27.5358 111.224H27.4914C27.4914 112.032 28.1461 112.832 29.4224 113.58C30.6973 114.327 32.566 115.006 34.9217 115.578C37.2774 116.149 40.074 116.603 43.1518 116.912C46.2297 117.222 49.5285 117.381 52.86 117.381C56.1914 117.381 59.4902 117.222 62.5681 116.912C65.646 116.603 68.4426 116.149 70.7983 115.578C73.1539 115.006 75.0226 114.327 76.2975 113.58C77.5738 112.832 78.2285 112.032 78.2285 111.224H78.2159L78.1205 105.331ZM77.1439 106.784C76.9355 106.959 76.6961 107.13 76.4273 107.298V112.297C76.9893 111.87 77.1739 111.532 77.2174 111.324L77.1439 106.784ZM52.798 111.224C54.2055 111.224 55.5863 111.196 56.9313 111.142V116.301C55.5892 116.354 54.2276 116.381 52.86 116.381L52.798 116.381V111.224ZM61.5348 110.847C60.3713 110.951 59.1677 111.035 57.9313 111.097V116.256C59.1551 116.194 60.3598 116.111 61.5348 116.006V110.847ZM62.5348 110.752C63.8801 110.616 65.1667 110.452 66.3829 110.264V115.422C65.167 115.61 63.8798 115.774 62.5348 115.911V110.752ZM71.1497 109.312C70.0048 109.604 68.7431 109.869 67.3829 110.102V115.258C68.5165 115.062 69.5803 114.844 70.5624 114.606C70.7623 114.557 70.958 114.508 71.1497 114.458V109.312ZM72.1497 109.042C73.4251 108.676 74.5279 108.274 75.4273 107.842V112.92C74.5893 113.36 73.4915 113.787 72.1497 114.182V109.042ZM52.6218 111.224C51.1253 111.222 49.6595 111.188 48.2351 111.126V116.277C49.4093 116.33 50.6 116.363 51.798 116.376V111.224H52.6218ZM47.2351 111.077V116.226C46.08 116.162 44.9437 116.078 43.8349 115.974V110.831C44.934 110.932 46.0694 111.014 47.2351 111.077ZM42.8349 110.734C41.6973 110.616 40.6024 110.479 39.5573 110.324V115.455C40.6014 115.614 41.6967 115.754 42.8349 115.874V110.734ZM38.5573 110.167V115.295C37.3715 115.096 36.2601 114.871 35.2363 114.625V109.516C36.2645 109.755 37.3753 109.973 38.5573 110.167ZM34.2363 109.27C33.0873 108.972 32.0592 108.646 31.1709 108.296V113.335C32.015 113.698 33.04 114.046 34.2363 114.37V109.27ZM30.1709 107.865V112.855C30.0872 112.809 30.0062 112.763 29.928 112.717C28.9214 112.128 28.5975 111.655 28.5153 111.375H28.5358V106.89C28.9675 107.228 29.5164 107.554 30.1709 107.865Z" fill="url(#paint6_linear_252_2869)"/>
<rect x="152.984" y="56.3594" width="47.5112" height="61.1426" rx="3.15741" stroke="#D9D9D9"/>
<rect x="152.984" y="56.3594" width="47.5112" height="61.1426" rx="3.15741" stroke="url(#paint7_linear_252_2869)"/>
<path d="M158.797 73.7734H180.635" stroke="black"/>
<path d="M158.797 73.7734H180.635" stroke="url(#paint8_linear_252_2869)"/>
<rect x="186.48" y="69.1758" width="9.19374" height="9.19372" rx="1.41882" stroke="#D9D9D9"/>
<rect x="186.48" y="69.1758" width="9.19374" height="9.19372" rx="1.41882" stroke="url(#paint9_linear_252_2869)"/>
<rect x="193.633" y="68.6758" width="3.71116" height="4.2671" fill="#0C1018"/>
<path d="M188.723 73.0628L190.627 74.9672C190.777 75.1171 191.02 75.1171 191.17 74.9672L195.489 70.6484" stroke="black" stroke-linecap="round"/>
<path d="M188.723 73.0628L190.627 74.9672C190.777 75.1171 191.02 75.1171 191.17 74.9672L195.489 70.6484" stroke="url(#paint10_linear_252_2869)" stroke-linecap="round"/>
<path d="M158.797 86.9688H180.635" stroke="black"/>
<path d="M158.797 86.9688H180.635" stroke="url(#paint11_linear_252_2869)"/>
<rect x="186.48" y="82.3711" width="9.19374" height="9.19372" rx="1.41882" stroke="#D9D9D9"/>
<rect x="186.48" y="82.3711" width="9.19374" height="9.19372" rx="1.41882" stroke="url(#paint12_linear_252_2869)"/>
<rect x="193.633" y="81.8711" width="3.71116" height="4.2671" fill="#0C1018"/>
<path d="M188.723 86.2581L190.627 88.1625C190.777 88.3124 191.02 88.3124 191.17 88.1625L195.489 83.8438" stroke="black" stroke-linecap="round"/>
<path d="M188.723 86.2581L190.627 88.1625C190.777 88.3124 191.02 88.3124 191.17 88.1625L195.489 83.8438" stroke="url(#paint13_linear_252_2869)" stroke-linecap="round"/>
<path d="M158.797 100.16H180.635" stroke="black"/>
<path d="M158.797 100.16H180.635" stroke="url(#paint14_linear_252_2869)"/>
<rect x="186.48" y="95.5625" width="9.19374" height="9.19372" rx="1.41882" stroke="#D9D9D9"/>
<rect x="186.48" y="95.5625" width="9.19374" height="9.19372" rx="1.41882" stroke="url(#paint15_linear_252_2869)"/>
<rect x="193.633" y="95.0625" width="3.71116" height="4.2671" fill="#0C1018"/>
<rect x="152.984" y="132.5" width="47.5112" height="61.1426" rx="3.15741" stroke="#D9D9D9"/>
<rect x="152.984" y="132.5" width="47.5112" height="61.1426" rx="3.15741" stroke="url(#paint16_linear_252_2869)"/>
<path d="M158.797 149.914H180.635" stroke="black"/>
<path d="M158.797 149.914H180.635" stroke="url(#paint17_linear_252_2869)"/>
<rect x="186.48" y="145.316" width="9.19374" height="9.19372" rx="1.41882" stroke="#D9D9D9"/>
<rect x="186.48" y="145.316" width="9.19374" height="9.19372" rx="1.41882" stroke="url(#paint18_linear_252_2869)"/>
<rect x="193.633" y="144.816" width="3.71116" height="4.2671" fill="#0C1018"/>
<path d="M188.723 149.203L190.627 151.108C190.777 151.258 191.02 151.258 191.17 151.108L195.489 146.789" stroke="black" stroke-linecap="round"/>
<path d="M188.723 149.203L190.627 151.108C190.777 151.258 191.02 151.258 191.17 151.108L195.489 146.789" stroke="url(#paint19_linear_252_2869)" stroke-linecap="round"/>
<path d="M158.797 163.109H180.635" stroke="black"/>
<path d="M158.797 163.109H180.635" stroke="url(#paint20_linear_252_2869)"/>
<rect x="186.48" y="158.512" width="9.19374" height="9.19372" rx="1.41882" stroke="#D9D9D9"/>
<rect x="186.48" y="158.512" width="9.19374" height="9.19372" rx="1.41882" stroke="url(#paint21_linear_252_2869)"/>
<rect x="193.633" y="158.012" width="3.71116" height="4.2671" fill="#0C1018"/>
<path d="M158.797 176.301H180.635" stroke="black"/>
<path d="M158.797 176.301H180.635" stroke="url(#paint22_linear_252_2869)"/>
<rect x="186.48" y="171.703" width="9.19374" height="9.19372" rx="1.41882" stroke="#D9D9D9"/>
<rect x="186.48" y="171.703" width="9.19374" height="9.19372" rx="1.41882" stroke="url(#paint23_linear_252_2869)"/>
<rect x="193.633" y="171.203" width="3.71116" height="4.2671" fill="#0C1018"/>
<defs>
<filter id="filter0_dddddd_252_2869" x="100.276" y="43.417" width="76.0567" height="76.5254" filterUnits="userSpaceOnUse" color-interpolation-filters="sRGB">
<feFlood flood-opacity="0" result="BackgroundImageFix"/>
<feColorMatrix in="SourceAlpha" type="matrix" values="0 0 0 0 0 0 0 0 0 0 0 0 0 0 0 0 0 0 127 0" result="hardAlpha"/>
<feOffset/>
<feGaussianBlur stdDeviation="0.401147"/>
<feColorMatrix type="matrix" values="0 0 0 0 0.176471 0 0 0 0 0.890196 0 0 0 0 0.890196 0 0 0 1 0"/>
<feBlend mode="normal" in2="BackgroundImageFix" result="effect1_dropShadow_252_2869"/>
<feColorMatrix in="SourceAlpha" type="matrix" values="0 0 0 0 0 0 0 0 0 0 0 0 0 0 0 0 0 0 127 0" result="hardAlpha"/>
<feOffset/>
<feGaussianBlur stdDeviation="0.802293"/>
<feColorMatrix type="matrix" values="0 0 0 0 0.176471 0 0 0 0 0.890196 0 0 0 0 0.890196 0 0 0 1 0"/>
<feBlend mode="normal" in2="effect1_dropShadow_252_2869" result="effect2_dropShadow_252_2869"/>
<feColorMatrix in="SourceAlpha" type="matrix" values="0 0 0 0 0 0 0 0 0 0 0 0 0 0 0 0 0 0 127 0" result="hardAlpha"/>
<feOffset/>
<feGaussianBlur stdDeviation="2.80803"/>
<feColorMatrix type="matrix" values="0 0 0 0 0.176471 0 0 0 0 0.890196 0 0 0 0 0.890196 0 0 0 1 0"/>
<feBlend mode="normal" in2="effect2_dropShadow_252_2869" result="effect3_dropShadow_252_2869"/>
<feColorMatrix in="SourceAlpha" type="matrix" values="0 0 0 0 0 0 0 0 0 0 0 0 0 0 0 0 0 0 127 0" result="hardAlpha"/>
<feOffset/>
<feGaussianBlur stdDeviation="5.61605"/>
<feColorMatrix type="matrix" values="0 0 0 0 0.176471 0 0 0 0 0.890196 0 0 0 0 0.890196 0 0 0 1 0"/>
<feBlend mode="normal" in2="effect3_dropShadow_252_2869" result="effect4_dropShadow_252_2869"/>
<feColorMatrix in="SourceAlpha" type="matrix" values="0 0 0 0 0 0 0 0 0 0 0 0 0 0 0 0 0 0 127 0" result="hardAlpha"/>
<feOffset/>
<feGaussianBlur stdDeviation="9.62752"/>
<feColorMatrix type="matrix" values="0 0 0 0 0.176471 0 0 0 0 0.890196 0 0 0 0 0.890196 0 0 0 1 0"/>
<feBlend mode="normal" in2="effect4_dropShadow_252_2869" result="effect5_dropShadow_252_2869"/>
<feColorMatrix in="SourceAlpha" type="matrix" values="0 0 0 0 0 0 0 0 0 0 0 0 0 0 0 0 0 0 127 0" result="hardAlpha"/>
<feOffset/>
<feGaussianBlur stdDeviation="16.8482"/>
<feColorMatrix type="matrix" values="0 0 0 0 0.176471 0 0 0 0 0.890196 0 0 0 0 0.890196 0 0 0 1 0"/>
<feBlend mode="normal" in2="effect5_dropShadow_252_2869" result="effect6_dropShadow_252_2869"/>
<feBlend mode="normal" in="SourceGraphic" in2="effect6_dropShadow_252_2869" result="shape"/>
</filter>
<filter id="filter1_dddddd_252_2869" x="101.171" y="127.112" width="76.0567" height="76.5254" filterUnits="userSpaceOnUse" color-interpolation-filters="sRGB">
<feFlood flood-opacity="0" result="BackgroundImageFix"/>
<feColorMatrix in="SourceAlpha" type="matrix" values="0 0 0 0 0 0 0 0 0 0 0 0 0 0 0 0 0 0 127 0" result="hardAlpha"/>
<feOffset/>
<feGaussianBlur stdDeviation="0.401147"/>
<feColorMatrix type="matrix" values="0 0 0 0 0.176471 0 0 0 0 0.890196 0 0 0 0 0.890196 0 0 0 1 0"/>
<feBlend mode="normal" in2="BackgroundImageFix" result="effect1_dropShadow_252_2869"/>
<feColorMatrix in="SourceAlpha" type="matrix" values="0 0 0 0 0 0 0 0 0 0 0 0 0 0 0 0 0 0 127 0" result="hardAlpha"/>
<feOffset/>
<feGaussianBlur stdDeviation="0.802293"/>
<feColorMatrix type="matrix" values="0 0 0 0 0.176471 0 0 0 0 0.890196 0 0 0 0 0.890196 0 0 0 1 0"/>
<feBlend mode="normal" in2="effect1_dropShadow_252_2869" result="effect2_dropShadow_252_2869"/>
<feColorMatrix in="SourceAlpha" type="matrix" values="0 0 0 0 0 0 0 0 0 0 0 0 0 0 0 0 0 0 127 0" result="hardAlpha"/>
<feOffset/>
<feGaussianBlur stdDeviation="2.80803"/>
<feColorMatrix type="matrix" values="0 0 0 0 0.176471 0 0 0 0 0.890196 0 0 0 0 0.890196 0 0 0 1 0"/>
<feBlend mode="normal" in2="effect2_dropShadow_252_2869" result="effect3_dropShadow_252_2869"/>
<feColorMatrix in="SourceAlpha" type="matrix" values="0 0 0 0 0 0 0 0 0 0 0 0 0 0 0 0 0 0 127 0" result="hardAlpha"/>
<feOffset/>
<feGaussianBlur stdDeviation="5.61605"/>
<feColorMatrix type="matrix" values="0 0 0 0 0.176471 0 0 0 0 0.890196 0 0 0 0 0.890196 0 0 0 1 0"/>
<feBlend mode="normal" in2="effect3_dropShadow_252_2869" result="effect4_dropShadow_252_2869"/>
<feColorMatrix in="SourceAlpha" type="matrix" values="0 0 0 0 0 0 0 0 0 0 0 0 0 0 0 0 0 0 127 0" result="hardAlpha"/>
<feOffset/>
<feGaussianBlur stdDeviation="9.62752"/>
<feColorMatrix type="matrix" values="0 0 0 0 0.176471 0 0 0 0 0.890196 0 0 0 0 0.890196 0 0 0 1 0"/>
<feBlend mode="normal" in2="effect4_dropShadow_252_2869" result="effect5_dropShadow_252_2869"/>
<feColorMatrix in="SourceAlpha" type="matrix" values="0 0 0 0 0 0 0 0 0 0 0 0 0 0 0 0 0 0 127 0" result="hardAlpha"/>
<feOffset/>
<feGaussianBlur stdDeviation="16.8482"/>
<feColorMatrix type="matrix" values="0 0 0 0 0.176471 0 0 0 0 0.890196 0 0 0 0 0.890196 0 0 0 1 0"/>
<feBlend mode="normal" in2="effect5_dropShadow_252_2869" result="effect6_dropShadow_252_2869"/>
<feBlend mode="normal" in="SourceGraphic" in2="effect6_dropShadow_252_2869" result="shape"/>
</filter>
<linearGradient id="paint0_linear_252_2869" x1="42.3861" y1="160.35" x2="121.939" y2="147.297" gradientUnits="userSpaceOnUse">
<stop stop-color="#2DE3E3"/>
<stop offset="1" stop-color="#0A81BE"/>
</linearGradient>
<linearGradient id="paint1_linear_252_2869" x1="41.3587" y1="88.0908" x2="121.761" y2="98.2817" gradientUnits="userSpaceOnUse">
<stop stop-color="#2DE3E3"/>
<stop offset="1" stop-color="#0A81BE"/>
</linearGradient>
<linearGradient id="paint2_linear_252_2869" x1="23.9399" y1="128.263" x2="75.1469" y2="127.153" gradientUnits="userSpaceOnUse">
<stop stop-color="#2DE3E3"/>
<stop offset="1" stop-color="#0A81BE"/>
</linearGradient>
<linearGradient id="paint3_linear_252_2869" x1="17.8423" y1="118.88" x2="69.0492" y2="117.77" gradientUnits="userSpaceOnUse">
<stop stop-color="#2DE3E3"/>
<stop offset="1" stop-color="#0A81BE"/>
</linearGradient>
<linearGradient id="paint4_linear_252_2869" x1="25.4868" y1="110.935" x2="76.6938" y2="109.825" gradientUnits="userSpaceOnUse">
<stop stop-color="#2DE3E3"/>
<stop offset="1" stop-color="#0A81BE"/>
</linearGradient>
<linearGradient id="paint5_linear_252_2869" x1="14.4868" y1="102.935" x2="65.6938" y2="101.825" gradientUnits="userSpaceOnUse">
<stop stop-color="#2DE3E3"/>
<stop offset="1" stop-color="#0A81BE"/>
</linearGradient>
<linearGradient id="paint6_linear_252_2869" x1="20.5493" y1="94.564" x2="71.7563" y2="93.4536" gradientUnits="userSpaceOnUse">
<stop stop-color="#2DE3E3"/>
<stop offset="1" stop-color="#0A81BE"/>
</linearGradient>
<linearGradient id="paint7_linear_252_2869" x1="145.946" y1="41.2375" x2="194.795" y2="40.9372" gradientUnits="userSpaceOnUse">
<stop stop-color="#2DE3E3"/>
<stop offset="1" stop-color="#0A81BE"/>
</linearGradient>
<linearGradient id="paint8_linear_252_2869" x1="155.853" y1="73.5381" x2="177.213" y2="69.8658" gradientUnits="userSpaceOnUse">
<stop stop-color="#2DE3E3"/>
<stop offset="1" stop-color="#0A81BE"/>
</linearGradient>
<linearGradient id="paint9_linear_252_2869" x1="184.698" y1="68.6758" x2="194.28" y2="68.5888" gradientUnits="userSpaceOnUse">
<stop stop-color="#2DE3E3"/>
<stop offset="1" stop-color="#0A81BE"/>
</linearGradient>
<linearGradient id="paint10_linear_252_2869" x1="187.871" y1="70.6484" x2="194.23" y2="70.5633" gradientUnits="userSpaceOnUse">
<stop stop-color="#2DE3E3"/>
<stop offset="1" stop-color="#0A81BE"/>
</linearGradient>
<linearGradient id="paint11_linear_252_2869" x1="155.853" y1="86.7335" x2="177.213" y2="83.0611" gradientUnits="userSpaceOnUse">
<stop stop-color="#2DE3E3"/>
<stop offset="1" stop-color="#0A81BE"/>
</linearGradient>
<linearGradient id="paint12_linear_252_2869" x1="184.698" y1="81.8711" x2="194.28" y2="81.7841" gradientUnits="userSpaceOnUse">
<stop stop-color="#2DE3E3"/>
<stop offset="1" stop-color="#0A81BE"/>
</linearGradient>
<linearGradient id="paint13_linear_252_2869" x1="187.871" y1="83.8438" x2="194.23" y2="83.7587" gradientUnits="userSpaceOnUse">
<stop stop-color="#2DE3E3"/>
<stop offset="1" stop-color="#0A81BE"/>
</linearGradient>
<linearGradient id="paint14_linear_252_2869" x1="155.853" y1="99.9249" x2="177.213" y2="96.2525" gradientUnits="userSpaceOnUse">
<stop stop-color="#2DE3E3"/>
<stop offset="1" stop-color="#0A81BE"/>
</linearGradient>
<linearGradient id="paint15_linear_252_2869" x1="184.698" y1="95.0625" x2="194.28" y2="94.9755" gradientUnits="userSpaceOnUse">
<stop stop-color="#2DE3E3"/>
<stop offset="1" stop-color="#0A81BE"/>
</linearGradient>
<linearGradient id="paint16_linear_252_2869" x1="145.946" y1="117.378" x2="194.795" y2="117.078" gradientUnits="userSpaceOnUse">
<stop stop-color="#2DE3E3"/>
<stop offset="1" stop-color="#0A81BE"/>
</linearGradient>
<linearGradient id="paint17_linear_252_2869" x1="155.853" y1="149.679" x2="177.213" y2="146.006" gradientUnits="userSpaceOnUse">
<stop stop-color="#2DE3E3"/>
<stop offset="1" stop-color="#0A81BE"/>
</linearGradient>
<linearGradient id="paint18_linear_252_2869" x1="184.698" y1="144.816" x2="194.28" y2="144.729" gradientUnits="userSpaceOnUse">
<stop stop-color="#2DE3E3"/>
<stop offset="1" stop-color="#0A81BE"/>
</linearGradient>
<linearGradient id="paint19_linear_252_2869" x1="187.871" y1="146.789" x2="194.23" y2="146.704" gradientUnits="userSpaceOnUse">
<stop stop-color="#2DE3E3"/>
<stop offset="1" stop-color="#0A81BE"/>
</linearGradient>
<linearGradient id="paint20_linear_252_2869" x1="155.853" y1="162.874" x2="177.213" y2="159.202" gradientUnits="userSpaceOnUse">
<stop stop-color="#2DE3E3"/>
<stop offset="1" stop-color="#0A81BE"/>
</linearGradient>
<linearGradient id="paint21_linear_252_2869" x1="184.698" y1="158.012" x2="194.28" y2="157.925" gradientUnits="userSpaceOnUse">
<stop stop-color="#2DE3E3"/>
<stop offset="1" stop-color="#0A81BE"/>
</linearGradient>
<linearGradient id="paint22_linear_252_2869" x1="155.853" y1="176.065" x2="177.213" y2="172.393" gradientUnits="userSpaceOnUse">
<stop stop-color="#2DE3E3"/>
<stop offset="1" stop-color="#0A81BE"/>
</linearGradient>
<linearGradient id="paint23_linear_252_2869" x1="184.698" y1="171.203" x2="194.28" y2="171.116" gradientUnits="userSpaceOnUse">
<stop stop-color="#2DE3E3"/>
<stop offset="1" stop-color="#0A81BE"/>
</linearGradient>
</defs>
</svg>
