<svg width="251" height="250" viewBox="0 0 251 250" fill="none" xmlns="http://www.w3.org/2000/svg">
<path d="M95.5117 124.293C94.9594 124.293 94.5117 124.741 94.5117 125.293C94.5117 125.845 94.9594 126.293 95.5117 126.293L95.5117 124.293ZM142.777 126C143.167 125.61 143.167 124.976 142.777 124.586L136.413 118.222C136.022 117.831 135.389 117.831 134.998 118.222C134.608 118.612 134.608 119.246 134.998 119.636L140.655 125.293L134.998 130.95C134.608 131.34 134.608 131.974 134.998 132.364C135.389 132.755 136.022 132.755 136.413 132.364L142.777 126ZM95.5117 126.293L142.069 126.293L142.069 124.293L95.5117 124.293L95.5117 126.293Z" fill="black"/>
<path d="M95.5117 124.293C94.9594 124.293 94.5117 124.741 94.5117 125.293C94.5117 125.845 94.9594 126.293 95.5117 126.293L95.5117 124.293ZM142.777 126C143.167 125.61 143.167 124.976 142.777 124.586L136.413 118.222C136.022 117.831 135.389 117.831 134.998 118.222C134.608 118.612 134.608 119.246 134.998 119.636L140.655 125.293L134.998 130.95C134.608 131.34 134.608 131.974 134.998 132.364C135.389 132.755 136.022 132.755 136.413 132.364L142.777 126ZM95.5117 126.293L142.069 126.293L142.069 124.293L95.5117 124.293L95.5117 126.293Z" fill="url(#paint0_linear_252_2871)"/>
<g filter="url(#filter0_dddddd_252_2871)">
<circle cx="95.5117" cy="125" r="3" transform="rotate(45 95.5117 125)" fill="#2DE3E3" fill-opacity="0.8"/>
</g>
<rect x="22.6367" y="132.012" width="54.0073" height="21.6858" rx="10.8429" fill="#0C1018"/>
<path fill-rule="evenodd" clip-rule="evenodd" d="M73.9676 139.88C73.9759 139.841 73.9793 139.805 73.9793 139.774C73.9793 139.511 73.73 138.958 72.4881 138.245C71.3218 137.576 69.5677 136.939 67.3132 136.392C62.8199 135.302 56.5607 134.617 49.6108 134.617C42.6608 134.617 36.4016 135.302 31.9083 136.392C29.6539 136.939 27.8998 137.576 26.7335 138.245C25.4916 138.958 25.2422 139.511 25.2422 139.774C25.2422 140.038 25.4916 140.591 26.7335 141.303C27.8998 141.973 29.6539 142.609 31.9083 143.156C36.4016 144.247 42.6608 144.931 49.6108 144.931C56.5607 144.931 62.8199 144.247 67.3132 143.156C69.5677 142.609 71.3218 141.973 72.4881 141.303C73.521 140.711 73.8673 140.229 73.9546 139.931L73.9538 139.88L73.9676 139.88ZM74.9565 140.038C74.9717 139.951 74.9793 139.863 74.9793 139.774C74.9793 136.374 63.6214 133.617 49.6108 133.617C35.6001 133.617 24.2422 136.374 24.2422 139.774C24.2422 139.986 24.2861 140.194 24.3717 140.4L24.3717 145.931H24.3273C24.3273 146.739 24.982 147.539 26.2584 148.287C27.5333 149.034 29.4019 149.713 31.7576 150.285C34.1133 150.857 36.9099 151.31 39.9878 151.619C43.0656 151.929 46.3644 152.088 49.6959 152.088C53.0273 152.088 56.3262 151.929 59.404 151.619C62.4819 151.31 65.2785 150.857 67.6342 150.285C69.9899 149.713 71.8585 149.034 73.1334 148.287C74.4098 147.539 75.0645 146.739 75.0645 145.931H75.0519L74.9565 140.038ZM73.9799 141.491C73.7715 141.666 73.5321 141.837 73.2633 142.005V147.004C73.8253 146.577 74.0099 146.239 74.0533 146.031L73.9799 141.491ZM49.6339 145.931C51.0415 145.931 52.4222 145.903 53.7673 145.849V151.008C52.4251 151.061 51.0635 151.088 49.6959 151.088L49.6339 151.088V145.931ZM58.3707 145.554C57.2072 145.658 56.0037 145.742 54.7673 145.804V150.963C55.9911 150.901 57.1957 150.818 58.3707 150.713V145.554ZM59.3707 145.459C60.716 145.323 62.0026 145.159 63.2188 144.971V150.129C62.0029 150.318 60.7157 150.481 59.3707 150.618V145.459ZM67.9856 144.019C66.8407 144.311 65.5791 144.576 64.2188 144.809V149.965C65.3524 149.769 66.4163 149.551 67.3983 149.313C67.5982 149.264 67.794 149.215 67.9856 149.165V144.019ZM68.9856 143.749C70.2611 143.383 71.3638 142.981 72.2633 142.549V147.627C71.4253 148.067 70.3274 148.494 68.9856 148.889V143.749ZM49.4577 145.931C47.9612 145.929 46.4954 145.895 45.071 145.833V150.984C46.2453 151.037 47.4359 151.07 48.6339 151.083V145.931H49.4577ZM44.071 145.784V150.933C42.916 150.869 41.7796 150.785 40.6709 150.681V145.538C41.77 145.639 42.9054 145.721 44.071 145.784ZM39.6709 145.441C38.5332 145.323 37.4383 145.186 36.3932 145.031V150.162C37.4373 150.321 38.5326 150.461 39.6709 150.581V145.441ZM35.3932 144.874V150.002C34.2074 149.803 33.096 149.578 32.0723 149.332V144.223C33.1004 144.462 34.2112 144.68 35.3932 144.874ZM31.0723 143.977C29.9233 143.679 28.8951 143.353 28.0068 143.003V148.042C28.8509 148.405 29.8759 148.753 31.0723 149.077V143.977ZM27.0068 142.572V147.562C26.9231 147.516 26.8421 147.47 26.7639 147.424C25.7573 146.835 25.4334 146.362 25.3512 146.082H25.3717V141.597C25.8034 141.935 26.3523 142.261 27.0068 142.572Z" fill="black"/>
<path fill-rule="evenodd" clip-rule="evenodd" d="M73.9676 139.88C73.9759 139.841 73.9793 139.805 73.9793 139.774C73.9793 139.511 73.73 138.958 72.4881 138.245C71.3218 137.576 69.5677 136.939 67.3132 136.392C62.8199 135.302 56.5607 134.617 49.6108 134.617C42.6608 134.617 36.4016 135.302 31.9083 136.392C29.6539 136.939 27.8998 137.576 26.7335 138.245C25.4916 138.958 25.2422 139.511 25.2422 139.774C25.2422 140.038 25.4916 140.591 26.7335 141.303C27.8998 141.973 29.6539 142.609 31.9083 143.156C36.4016 144.247 42.6608 144.931 49.6108 144.931C56.5607 144.931 62.8199 144.247 67.3132 143.156C69.5677 142.609 71.3218 141.973 72.4881 141.303C73.521 140.711 73.8673 140.229 73.9546 139.931L73.9538 139.88L73.9676 139.88ZM74.9565 140.038C74.9717 139.951 74.9793 139.863 74.9793 139.774C74.9793 136.374 63.6214 133.617 49.6108 133.617C35.6001 133.617 24.2422 136.374 24.2422 139.774C24.2422 139.986 24.2861 140.194 24.3717 140.4L24.3717 145.931H24.3273C24.3273 146.739 24.982 147.539 26.2584 148.287C27.5333 149.034 29.4019 149.713 31.7576 150.285C34.1133 150.857 36.9099 151.31 39.9878 151.619C43.0656 151.929 46.3644 152.088 49.6959 152.088C53.0273 152.088 56.3262 151.929 59.404 151.619C62.4819 151.31 65.2785 150.857 67.6342 150.285C69.9899 149.713 71.8585 149.034 73.1334 148.287C74.4098 147.539 75.0645 146.739 75.0645 145.931H75.0519L74.9565 140.038ZM73.9799 141.491C73.7715 141.666 73.5321 141.837 73.2633 142.005V147.004C73.8253 146.577 74.0099 146.239 74.0533 146.031L73.9799 141.491ZM49.6339 145.931C51.0415 145.931 52.4222 145.903 53.7673 145.849V151.008C52.4251 151.061 51.0635 151.088 49.6959 151.088L49.6339 151.088V145.931ZM58.3707 145.554C57.2072 145.658 56.0037 145.742 54.7673 145.804V150.963C55.9911 150.901 57.1957 150.818 58.3707 150.713V145.554ZM59.3707 145.459C60.716 145.323 62.0026 145.159 63.2188 144.971V150.129C62.0029 150.318 60.7157 150.481 59.3707 150.618V145.459ZM67.9856 144.019C66.8407 144.311 65.5791 144.576 64.2188 144.809V149.965C65.3524 149.769 66.4163 149.551 67.3983 149.313C67.5982 149.264 67.794 149.215 67.9856 149.165V144.019ZM68.9856 143.749C70.2611 143.383 71.3638 142.981 72.2633 142.549V147.627C71.4253 148.067 70.3274 148.494 68.9856 148.889V143.749ZM49.4577 145.931C47.9612 145.929 46.4954 145.895 45.071 145.833V150.984C46.2453 151.037 47.4359 151.07 48.6339 151.083V145.931H49.4577ZM44.071 145.784V150.933C42.916 150.869 41.7796 150.785 40.6709 150.681V145.538C41.77 145.639 42.9054 145.721 44.071 145.784ZM39.6709 145.441C38.5332 145.323 37.4383 145.186 36.3932 145.031V150.162C37.4373 150.321 38.5326 150.461 39.6709 150.581V145.441ZM35.3932 144.874V150.002C34.2074 149.803 33.096 149.578 32.0723 149.332V144.223C33.1004 144.462 34.2112 144.68 35.3932 144.874ZM31.0723 143.977C29.9233 143.679 28.8951 143.353 28.0068 143.003V148.042C28.8509 148.405 29.8759 148.753 31.0723 149.077V143.977ZM27.0068 142.572V147.562C26.9231 147.516 26.8421 147.47 26.7639 147.424C25.7573 146.835 25.4334 146.362 25.3512 146.082H25.3717V141.597C25.8034 141.935 26.3523 142.261 27.0068 142.572Z" fill="url(#paint1_linear_252_2871)"/>
<rect x="16.5391" y="122.629" width="54.0073" height="21.6858" rx="10.8429" fill="#0C1018"/>
<path fill-rule="evenodd" clip-rule="evenodd" d="M67.87 130.497C67.8782 130.458 67.8817 130.423 67.8817 130.391C67.8817 130.128 67.6323 129.575 66.3904 128.862C65.2241 128.193 63.47 127.557 61.2155 127.01C56.7223 125.919 50.4631 125.234 43.5131 125.234C36.5632 125.234 30.3039 125.919 25.8107 127.01C23.5562 127.557 21.8021 128.193 20.6358 128.862C19.3939 129.575 19.1445 130.128 19.1445 130.391C19.1445 130.655 19.3939 131.208 20.6358 131.921C21.8021 132.59 23.5562 133.226 25.8107 133.773C30.3039 134.864 36.5632 135.548 43.5131 135.548C50.4631 135.548 56.7223 134.864 61.2155 133.773C63.47 133.226 65.2241 132.59 66.3904 131.921C67.4233 131.328 67.7696 130.846 67.857 130.549L67.8561 130.497L67.87 130.497ZM68.8588 130.655C68.874 130.568 68.8817 130.48 68.8817 130.391C68.8817 126.991 57.5238 124.234 43.5131 124.234C29.5024 124.234 18.1445 126.991 18.1445 130.391C18.1445 130.603 18.1884 130.812 18.2741 131.018L18.2741 136.548H18.2297C18.2297 137.356 18.8844 138.157 20.1607 138.904C21.4356 139.651 23.3043 140.33 25.6599 140.902C28.0156 141.474 30.8122 141.927 33.8901 142.237C36.968 142.546 40.2668 142.705 43.5982 142.705C46.9297 142.705 50.2285 142.546 53.3064 142.237C56.3842 141.927 59.1808 141.474 61.5365 140.902C63.8922 140.33 65.7609 139.651 67.0358 138.904C68.3121 138.157 68.9668 137.356 68.9668 136.548H68.9542L68.8588 130.655ZM67.8822 132.108C67.6738 132.283 67.4344 132.454 67.1656 132.622V137.621C67.7276 137.194 67.9122 136.856 67.9557 136.648L67.8822 132.108ZM43.5362 136.548C44.9438 136.548 46.3245 136.52 47.6696 136.466V141.625C46.3274 141.678 44.9659 141.705 43.5982 141.705L43.5362 141.705V136.548ZM52.2731 136.172C51.1096 136.275 49.906 136.359 48.6696 136.421V141.58C49.8934 141.519 51.098 141.435 52.2731 141.33V136.172ZM53.2731 136.076C54.6184 135.94 55.905 135.777 57.1212 135.589V140.746C55.9052 140.935 54.6181 141.099 53.2731 141.235V136.076ZM61.8879 134.637C60.7431 134.928 59.4814 135.193 58.1212 135.426V140.582C59.2548 140.387 60.3186 140.169 61.3007 139.93C61.5006 139.882 61.6963 139.832 61.8879 139.783V134.637ZM62.8879 134.366C64.1634 134 65.2662 133.598 66.1656 133.166V138.244C65.3276 138.684 64.2298 139.111 62.8879 139.506V134.366ZM43.3601 136.548C41.8636 136.546 40.3978 136.513 38.9734 136.45V141.601C40.1476 141.654 41.3382 141.688 42.5362 141.7V136.548H43.3601ZM37.9734 136.401V141.551C36.8183 141.486 35.682 141.402 34.5732 141.298V136.155C35.6723 136.256 36.8077 136.338 37.9734 136.401ZM33.5732 136.058C32.4356 135.94 31.3406 135.803 30.2955 135.648V140.78C31.3397 140.938 32.435 141.078 33.5732 141.199V136.058ZM29.2955 135.491V140.62C28.1098 140.42 26.9983 140.195 25.9746 139.949V134.84C27.0028 135.079 28.1136 135.297 29.2955 135.491ZM24.9746 134.594C23.8256 134.296 22.7975 133.97 21.9092 133.621V138.66C22.7533 139.022 23.7782 139.37 24.9746 139.694V134.594ZM20.9092 133.189V138.179C20.8254 138.133 20.7445 138.087 20.6663 138.042C19.6597 137.452 19.3357 136.979 19.2535 136.699H19.2741V132.214C19.7058 132.552 20.2547 132.879 20.9092 133.189Z" fill="black"/>
<path fill-rule="evenodd" clip-rule="evenodd" d="M67.87 130.497C67.8782 130.458 67.8817 130.423 67.8817 130.391C67.8817 130.128 67.6323 129.575 66.3904 128.862C65.2241 128.193 63.47 127.557 61.2155 127.01C56.7223 125.919 50.4631 125.234 43.5131 125.234C36.5632 125.234 30.3039 125.919 25.8107 127.01C23.5562 127.557 21.8021 128.193 20.6358 128.862C19.3939 129.575 19.1445 130.128 19.1445 130.391C19.1445 130.655 19.3939 131.208 20.6358 131.921C21.8021 132.59 23.5562 133.226 25.8107 133.773C30.3039 134.864 36.5632 135.548 43.5131 135.548C50.4631 135.548 56.7223 134.864 61.2155 133.773C63.47 133.226 65.2241 132.59 66.3904 131.921C67.4233 131.328 67.7696 130.846 67.857 130.549L67.8561 130.497L67.87 130.497ZM68.8588 130.655C68.874 130.568 68.8817 130.48 68.8817 130.391C68.8817 126.991 57.5238 124.234 43.5131 124.234C29.5024 124.234 18.1445 126.991 18.1445 130.391C18.1445 130.603 18.1884 130.812 18.2741 131.018L18.2741 136.548H18.2297C18.2297 137.356 18.8844 138.157 20.1607 138.904C21.4356 139.651 23.3043 140.33 25.6599 140.902C28.0156 141.474 30.8122 141.927 33.8901 142.237C36.968 142.546 40.2668 142.705 43.5982 142.705C46.9297 142.705 50.2285 142.546 53.3064 142.237C56.3842 141.927 59.1808 141.474 61.5365 140.902C63.8922 140.33 65.7609 139.651 67.0358 138.904C68.3121 138.157 68.9668 137.356 68.9668 136.548H68.9542L68.8588 130.655ZM67.8822 132.108C67.6738 132.283 67.4344 132.454 67.1656 132.622V137.621C67.7276 137.194 67.9122 136.856 67.9557 136.648L67.8822 132.108ZM43.5362 136.548C44.9438 136.548 46.3245 136.52 47.6696 136.466V141.625C46.3274 141.678 44.9659 141.705 43.5982 141.705L43.5362 141.705V136.548ZM52.2731 136.172C51.1096 136.275 49.906 136.359 48.6696 136.421V141.58C49.8934 141.519 51.098 141.435 52.2731 141.33V136.172ZM53.2731 136.076C54.6184 135.94 55.905 135.777 57.1212 135.589V140.746C55.9052 140.935 54.6181 141.099 53.2731 141.235V136.076ZM61.8879 134.637C60.7431 134.928 59.4814 135.193 58.1212 135.426V140.582C59.2548 140.387 60.3186 140.169 61.3007 139.93C61.5006 139.882 61.6963 139.832 61.8879 139.783V134.637ZM62.8879 134.366C64.1634 134 65.2662 133.598 66.1656 133.166V138.244C65.3276 138.684 64.2298 139.111 62.8879 139.506V134.366ZM43.3601 136.548C41.8636 136.546 40.3978 136.513 38.9734 136.45V141.601C40.1476 141.654 41.3382 141.688 42.5362 141.7V136.548H43.3601ZM37.9734 136.401V141.551C36.8183 141.486 35.682 141.402 34.5732 141.298V136.155C35.6723 136.256 36.8077 136.338 37.9734 136.401ZM33.5732 136.058C32.4356 135.94 31.3406 135.803 30.2955 135.648V140.78C31.3397 140.938 32.435 141.078 33.5732 141.199V136.058ZM29.2955 135.491V140.62C28.1098 140.42 26.9983 140.195 25.9746 139.949V134.84C27.0028 135.079 28.1136 135.297 29.2955 135.491ZM24.9746 134.594C23.8256 134.296 22.7975 133.97 21.9092 133.621V138.66C22.7533 139.022 23.7782 139.37 24.9746 139.694V134.594ZM20.9092 133.189V138.179C20.8254 138.133 20.7445 138.087 20.6663 138.042C19.6597 137.452 19.3357 136.979 19.2535 136.699H19.2741V132.214C19.7058 132.552 20.2547 132.879 20.9092 133.189Z" fill="url(#paint2_linear_252_2871)"/>
<rect x="24.1836" y="114.684" width="54.0073" height="21.6858" rx="10.8429" fill="#0C1018"/>
<path fill-rule="evenodd" clip-rule="evenodd" d="M75.5145 122.552C75.5227 122.513 75.5262 122.477 75.5262 122.446C75.5262 122.182 75.2768 121.629 74.0349 120.917C72.8687 120.248 71.1145 119.611 68.8601 119.064C64.3668 117.974 58.1076 117.289 51.1576 117.289C44.2077 117.289 37.9485 117.974 33.4552 119.064C31.2007 119.611 29.4466 120.248 28.2804 120.917C27.0384 121.629 26.7891 122.182 26.7891 122.446C26.7891 122.71 27.0384 123.263 28.2804 123.975C29.4466 124.645 31.2007 125.281 33.4552 125.828C37.9485 126.919 44.2077 127.603 51.1576 127.603C58.1076 127.603 64.3668 126.919 68.8601 125.828C71.1145 125.281 72.8687 124.645 74.0349 123.975C75.0678 123.383 75.4142 122.9 75.5015 122.603L75.5007 122.552L75.5145 122.552ZM76.5033 122.71C76.5185 122.622 76.5262 122.535 76.5262 122.446C76.5262 119.046 65.1683 116.289 51.1576 116.289C37.147 116.289 25.7891 119.046 25.7891 122.446C25.7891 122.657 25.8329 122.866 25.9186 123.072L25.9186 128.603H25.8742C25.8742 129.411 26.5289 130.211 27.8053 130.959C29.0802 131.706 30.9488 132.385 33.3045 132.957C35.6602 133.528 38.4568 133.982 41.5346 134.291C44.6125 134.601 47.9113 134.76 51.2428 134.76C54.5742 134.76 57.873 134.601 60.9509 134.291C64.0288 133.982 66.8254 133.528 69.1811 132.957C71.5367 132.385 73.4054 131.706 74.6803 130.959C75.9566 130.211 76.6114 129.411 76.6114 128.603H76.5987L76.5033 122.71ZM75.5267 124.163C75.3183 124.338 75.0789 124.509 74.8101 124.677V129.676C75.3721 129.248 75.5568 128.911 75.6002 128.703L75.5267 124.163ZM51.1808 128.603C52.5883 128.603 53.9691 128.575 55.3141 128.521V133.679C53.972 133.733 52.6104 133.76 51.2428 133.76L51.1808 133.76V128.603ZM59.9176 128.226C58.7541 128.33 57.5506 128.414 56.3141 128.476V133.634C57.538 133.573 58.7426 133.49 59.9176 133.385V128.226ZM60.9176 128.131C62.2629 127.995 63.5495 127.831 64.7657 127.643V132.8C63.5498 132.989 62.2626 133.153 60.9176 133.29V128.131ZM69.5325 126.691C68.3876 126.983 67.126 127.248 65.7657 127.481V132.637C66.8993 132.441 67.9631 132.223 68.9452 131.985C69.1451 131.936 69.3409 131.887 69.5325 131.837V126.691ZM70.5325 126.421C71.808 126.055 72.9107 125.653 73.8101 125.221V130.299C72.9721 130.739 71.8743 131.166 70.5325 131.561V126.421ZM51.0046 128.603C49.5081 128.601 48.0423 128.567 46.6179 128.505V133.656C47.7921 133.709 48.9828 133.742 50.1808 133.755V128.603H51.0046ZM45.6179 128.456V133.605C44.4629 133.541 43.3265 133.457 42.2177 133.353V128.21C43.3168 128.31 44.4522 128.393 45.6179 128.456ZM41.2177 128.113C40.0801 127.995 38.9852 127.858 37.9401 127.702V132.834C38.9842 132.993 40.0795 133.133 41.2177 133.253V128.113ZM36.9401 127.546V132.674C35.7543 132.474 34.6429 132.25 33.6191 132.004V126.895C34.6473 127.134 35.7581 127.352 36.9401 127.546ZM32.6191 126.649C31.4701 126.351 30.442 126.025 29.5537 125.675V130.714C30.3978 131.077 31.4228 131.425 32.6191 131.749V126.649ZM28.5537 125.244V130.233C28.47 130.188 28.389 130.142 28.3108 130.096C27.3042 129.507 26.9803 129.034 26.8981 128.754H26.9186V124.268C27.3503 124.607 27.8992 124.933 28.5537 125.244Z" fill="black"/>
<path fill-rule="evenodd" clip-rule="evenodd" d="M75.5145 122.552C75.5227 122.513 75.5262 122.477 75.5262 122.446C75.5262 122.182 75.2768 121.629 74.0349 120.917C72.8687 120.248 71.1145 119.611 68.8601 119.064C64.3668 117.974 58.1076 117.289 51.1576 117.289C44.2077 117.289 37.9485 117.974 33.4552 119.064C31.2007 119.611 29.4466 120.248 28.2804 120.917C27.0384 121.629 26.7891 122.182 26.7891 122.446C26.7891 122.71 27.0384 123.263 28.2804 123.975C29.4466 124.645 31.2007 125.281 33.4552 125.828C37.9485 126.919 44.2077 127.603 51.1576 127.603C58.1076 127.603 64.3668 126.919 68.8601 125.828C71.1145 125.281 72.8687 124.645 74.0349 123.975C75.0678 123.383 75.4142 122.9 75.5015 122.603L75.5007 122.552L75.5145 122.552ZM76.5033 122.71C76.5185 122.622 76.5262 122.535 76.5262 122.446C76.5262 119.046 65.1683 116.289 51.1576 116.289C37.147 116.289 25.7891 119.046 25.7891 122.446C25.7891 122.657 25.8329 122.866 25.9186 123.072L25.9186 128.603H25.8742C25.8742 129.411 26.5289 130.211 27.8053 130.959C29.0802 131.706 30.9488 132.385 33.3045 132.957C35.6602 133.528 38.4568 133.982 41.5346 134.291C44.6125 134.601 47.9113 134.76 51.2428 134.76C54.5742 134.76 57.873 134.601 60.9509 134.291C64.0288 133.982 66.8254 133.528 69.1811 132.957C71.5367 132.385 73.4054 131.706 74.6803 130.959C75.9566 130.211 76.6114 129.411 76.6114 128.603H76.5987L76.5033 122.71ZM75.5267 124.163C75.3183 124.338 75.0789 124.509 74.8101 124.677V129.676C75.3721 129.248 75.5568 128.911 75.6002 128.703L75.5267 124.163ZM51.1808 128.603C52.5883 128.603 53.9691 128.575 55.3141 128.521V133.679C53.972 133.733 52.6104 133.76 51.2428 133.76L51.1808 133.76V128.603ZM59.9176 128.226C58.7541 128.33 57.5506 128.414 56.3141 128.476V133.634C57.538 133.573 58.7426 133.49 59.9176 133.385V128.226ZM60.9176 128.131C62.2629 127.995 63.5495 127.831 64.7657 127.643V132.8C63.5498 132.989 62.2626 133.153 60.9176 133.29V128.131ZM69.5325 126.691C68.3876 126.983 67.126 127.248 65.7657 127.481V132.637C66.8993 132.441 67.9631 132.223 68.9452 131.985C69.1451 131.936 69.3409 131.887 69.5325 131.837V126.691ZM70.5325 126.421C71.808 126.055 72.9107 125.653 73.8101 125.221V130.299C72.9721 130.739 71.8743 131.166 70.5325 131.561V126.421ZM51.0046 128.603C49.5081 128.601 48.0423 128.567 46.6179 128.505V133.656C47.7921 133.709 48.9828 133.742 50.1808 133.755V128.603H51.0046ZM45.6179 128.456V133.605C44.4629 133.541 43.3265 133.457 42.2177 133.353V128.21C43.3168 128.31 44.4522 128.393 45.6179 128.456ZM41.2177 128.113C40.0801 127.995 38.9852 127.858 37.9401 127.702V132.834C38.9842 132.993 40.0795 133.133 41.2177 133.253V128.113ZM36.9401 127.546V132.674C35.7543 132.474 34.6429 132.25 33.6191 132.004V126.895C34.6473 127.134 35.7581 127.352 36.9401 127.546ZM32.6191 126.649C31.4701 126.351 30.442 126.025 29.5537 125.675V130.714C30.3978 131.077 31.4228 131.425 32.6191 131.749V126.649ZM28.5537 125.244V130.233C28.47 130.188 28.389 130.142 28.3108 130.096C27.3042 129.507 26.9803 129.034 26.8981 128.754H26.9186V124.268C27.3503 124.607 27.8992 124.933 28.5537 125.244Z" fill="url(#paint3_linear_252_2871)"/>
<rect x="13.1836" y="106.684" width="54.0073" height="21.6858" rx="10.8429" fill="#0C1018"/>
<path fill-rule="evenodd" clip-rule="evenodd" d="M64.5145 114.552C64.5227 114.513 64.5262 114.477 64.5262 114.446C64.5262 114.182 64.2768 113.629 63.0349 112.917C61.8687 112.248 60.1145 111.611 57.8601 111.064C53.3668 109.974 47.1076 109.289 40.1576 109.289C33.2077 109.289 26.9485 109.974 22.4552 111.064C20.2007 111.611 18.4466 112.248 17.2804 112.917C16.0384 113.629 15.7891 114.182 15.7891 114.446C15.7891 114.71 16.0384 115.263 17.2804 115.975C18.4466 116.645 20.2007 117.281 22.4552 117.828C26.9485 118.919 33.2077 119.603 40.1576 119.603C47.1076 119.603 53.3668 118.919 57.8601 117.828C60.1145 117.281 61.8687 116.645 63.0349 115.975C64.0678 115.383 64.4142 114.9 64.5015 114.603L64.5007 114.552L64.5145 114.552ZM65.5033 114.71C65.5185 114.622 65.5262 114.535 65.5262 114.446C65.5262 111.046 54.1683 108.289 40.1576 108.289C26.147 108.289 14.7891 111.046 14.7891 114.446C14.7891 114.657 14.8329 114.866 14.9186 115.072L14.9186 120.603H14.8742C14.8742 121.411 15.5289 122.211 16.8053 122.959C18.0802 123.706 19.9488 124.385 22.3045 124.957C24.6602 125.528 27.4568 125.982 30.5346 126.291C33.6125 126.601 36.9113 126.76 40.2428 126.76C43.5742 126.76 46.873 126.601 49.9509 126.291C53.0288 125.982 55.8254 125.528 58.1811 124.957C60.5367 124.385 62.4054 123.706 63.6803 122.959C64.9566 122.211 65.6114 121.411 65.6114 120.603H65.5987L65.5033 114.71ZM64.5267 116.163C64.3183 116.338 64.0789 116.509 63.8101 116.677V121.676C64.3721 121.248 64.5568 120.911 64.6002 120.703L64.5267 116.163ZM40.1808 120.603C41.5883 120.603 42.9691 120.575 44.3141 120.521V125.679C42.972 125.733 41.6104 125.76 40.2428 125.76L40.1808 125.76V120.603ZM48.9176 120.226C47.7541 120.33 46.5506 120.414 45.3141 120.476V125.634C46.538 125.573 47.7426 125.49 48.9176 125.385V120.226ZM49.9176 120.131C51.2629 119.995 52.5495 119.831 53.7657 119.643V124.8C52.5498 124.989 51.2626 125.153 49.9176 125.29V120.131ZM58.5325 118.691C57.3876 118.983 56.126 119.248 54.7657 119.481V124.637C55.8993 124.441 56.9631 124.223 57.9452 123.985C58.1451 123.936 58.3409 123.887 58.5325 123.837V118.691ZM59.5325 118.421C60.808 118.055 61.9107 117.653 62.8101 117.221V122.299C61.9721 122.739 60.8743 123.166 59.5325 123.561V118.421ZM40.0046 120.603C38.5081 120.601 37.0423 120.567 35.6179 120.505V125.656C36.7921 125.709 37.9828 125.742 39.1808 125.755V120.603H40.0046ZM34.6179 120.456V125.605C33.4629 125.541 32.3265 125.457 31.2177 125.353V120.21C32.3168 120.31 33.4522 120.393 34.6179 120.456ZM30.2177 120.113C29.0801 119.995 27.9852 119.858 26.9401 119.702V124.834C27.9842 124.993 29.0795 125.133 30.2177 125.253V120.113ZM25.9401 119.546V124.674C24.7543 124.474 23.6429 124.25 22.6191 124.004V118.895C23.6473 119.134 24.7581 119.352 25.9401 119.546ZM21.6191 118.649C20.4701 118.351 19.442 118.025 18.5537 117.675V122.714C19.3978 123.077 20.4228 123.425 21.6191 123.749V118.649ZM17.5537 117.244V122.233C17.47 122.188 17.389 122.142 17.3108 122.096C16.3042 121.507 15.9803 121.034 15.8981 120.754H15.9186V116.268C16.3503 116.607 16.8992 116.933 17.5537 117.244Z" fill="black"/>
<path fill-rule="evenodd" clip-rule="evenodd" d="M64.5145 114.552C64.5227 114.513 64.5262 114.477 64.5262 114.446C64.5262 114.182 64.2768 113.629 63.0349 112.917C61.8687 112.248 60.1145 111.611 57.8601 111.064C53.3668 109.974 47.1076 109.289 40.1576 109.289C33.2077 109.289 26.9485 109.974 22.4552 111.064C20.2007 111.611 18.4466 112.248 17.2804 112.917C16.0384 113.629 15.7891 114.182 15.7891 114.446C15.7891 114.71 16.0384 115.263 17.2804 115.975C18.4466 116.645 20.2007 117.281 22.4552 117.828C26.9485 118.919 33.2077 119.603 40.1576 119.603C47.1076 119.603 53.3668 118.919 57.8601 117.828C60.1145 117.281 61.8687 116.645 63.0349 115.975C64.0678 115.383 64.4142 114.9 64.5015 114.603L64.5007 114.552L64.5145 114.552ZM65.5033 114.71C65.5185 114.622 65.5262 114.535 65.5262 114.446C65.5262 111.046 54.1683 108.289 40.1576 108.289C26.147 108.289 14.7891 111.046 14.7891 114.446C14.7891 114.657 14.8329 114.866 14.9186 115.072L14.9186 120.603H14.8742C14.8742 121.411 15.5289 122.211 16.8053 122.959C18.0802 123.706 19.9488 124.385 22.3045 124.957C24.6602 125.528 27.4568 125.982 30.5346 126.291C33.6125 126.601 36.9113 126.76 40.2428 126.76C43.5742 126.76 46.873 126.601 49.9509 126.291C53.0288 125.982 55.8254 125.528 58.1811 124.957C60.5367 124.385 62.4054 123.706 63.6803 122.959C64.9566 122.211 65.6114 121.411 65.6114 120.603H65.5987L65.5033 114.71ZM64.5267 116.163C64.3183 116.338 64.0789 116.509 63.8101 116.677V121.676C64.3721 121.248 64.5568 120.911 64.6002 120.703L64.5267 116.163ZM40.1808 120.603C41.5883 120.603 42.9691 120.575 44.3141 120.521V125.679C42.972 125.733 41.6104 125.76 40.2428 125.76L40.1808 125.76V120.603ZM48.9176 120.226C47.7541 120.33 46.5506 120.414 45.3141 120.476V125.634C46.538 125.573 47.7426 125.49 48.9176 125.385V120.226ZM49.9176 120.131C51.2629 119.995 52.5495 119.831 53.7657 119.643V124.8C52.5498 124.989 51.2626 125.153 49.9176 125.29V120.131ZM58.5325 118.691C57.3876 118.983 56.126 119.248 54.7657 119.481V124.637C55.8993 124.441 56.9631 124.223 57.9452 123.985C58.1451 123.936 58.3409 123.887 58.5325 123.837V118.691ZM59.5325 118.421C60.808 118.055 61.9107 117.653 62.8101 117.221V122.299C61.9721 122.739 60.8743 123.166 59.5325 123.561V118.421ZM40.0046 120.603C38.5081 120.601 37.0423 120.567 35.6179 120.505V125.656C36.7921 125.709 37.9828 125.742 39.1808 125.755V120.603H40.0046ZM34.6179 120.456V125.605C33.4629 125.541 32.3265 125.457 31.2177 125.353V120.21C32.3168 120.31 33.4522 120.393 34.6179 120.456ZM30.2177 120.113C29.0801 119.995 27.9852 119.858 26.9401 119.702V124.834C27.9842 124.993 29.0795 125.133 30.2177 125.253V120.113ZM25.9401 119.546V124.674C24.7543 124.474 23.6429 124.25 22.6191 124.004V118.895C23.6473 119.134 24.7581 119.352 25.9401 119.546ZM21.6191 118.649C20.4701 118.351 19.442 118.025 18.5537 117.675V122.714C19.3978 123.077 20.4228 123.425 21.6191 123.749V118.649ZM17.5537 117.244V122.233C17.47 122.188 17.389 122.142 17.3108 122.096C16.3042 121.507 15.9803 121.034 15.8981 120.754H15.9186V116.268C16.3503 116.607 16.8992 116.933 17.5537 117.244Z" fill="url(#paint4_linear_252_2871)"/>
<rect x="19.2461" y="98.3125" width="54.0073" height="21.6858" rx="10.8429" fill="#0C1018"/>
<path fill-rule="evenodd" clip-rule="evenodd" d="M70.577 106.181C70.5852 106.141 70.5887 106.106 70.5887 106.075C70.5887 105.811 70.3393 105.258 69.0974 104.546C67.9312 103.877 66.177 103.24 63.9226 102.693C59.4293 101.603 53.1701 100.918 46.2201 100.918C39.2702 100.918 33.011 101.603 28.5177 102.693C26.2632 103.24 24.5091 103.877 23.3429 104.546C22.1009 105.258 21.8516 105.811 21.8516 106.075C21.8516 106.339 22.1009 106.892 23.3429 107.604C24.5091 108.273 26.2632 108.91 28.5177 109.457C33.011 110.547 39.2702 111.232 46.2201 111.232C53.1701 111.232 59.4293 110.547 63.9226 109.457C66.177 108.91 67.9312 108.273 69.0974 107.604C70.1303 107.012 70.4767 106.529 70.564 106.232L70.5632 106.181L70.577 106.181ZM71.5658 106.339C71.581 106.251 71.5887 106.163 71.5887 106.075C71.5887 102.675 60.2308 99.918 46.2201 99.918C32.2095 99.918 20.8516 102.675 20.8516 106.075C20.8516 106.286 20.8954 106.495 20.9811 106.701L20.9811 112.232H20.9367C20.9367 113.039 21.5914 113.84 22.8678 114.588C24.1427 115.335 26.0113 116.014 28.367 116.586C30.7227 117.157 33.5193 117.611 36.5971 117.92C39.675 118.23 42.9738 118.389 46.3053 118.389C49.6367 118.389 52.9355 118.23 56.0134 117.92C59.0913 117.611 61.8879 117.157 64.2436 116.586C66.5992 116.014 68.4679 115.335 69.7428 114.588C71.0191 113.84 71.6739 113.039 71.6739 112.232H71.6612L71.5658 106.339ZM70.5892 107.792C70.3808 107.967 70.1414 108.138 69.8726 108.306V113.305C70.4346 112.877 70.6193 112.54 70.6627 112.332L70.5892 107.792ZM46.2433 112.232C47.6508 112.232 49.0316 112.204 50.3766 112.15V117.308C49.0345 117.362 47.6729 117.389 46.3053 117.389L46.2433 117.389V112.232ZM54.9801 111.855C53.8166 111.959 52.6131 112.043 51.3766 112.105V117.263C52.6005 117.202 53.8051 117.119 54.9801 117.014V111.855ZM55.9801 111.76C57.3254 111.624 58.612 111.46 59.8282 111.272V116.429C58.6123 116.618 57.3251 116.782 55.9801 116.919V111.76ZM64.595 110.32C63.4501 110.612 62.1885 110.877 60.8282 111.109V116.266C61.9618 116.07 63.0256 115.852 64.0077 115.614C64.2076 115.565 64.4034 115.516 64.595 115.466V110.32ZM65.595 110.05C66.8705 109.684 67.9732 109.281 68.8726 108.85V113.927C68.0346 114.368 66.9368 114.795 65.595 115.19V110.05ZM46.0671 112.232C44.5706 112.23 43.1048 112.196 41.6804 112.134V117.285C42.8546 117.338 44.0453 117.371 45.2433 117.383V112.232H46.0671ZM40.6804 112.085V117.234C39.5254 117.17 38.389 117.085 37.2802 116.982V111.839C38.3793 111.939 39.5147 112.022 40.6804 112.085ZM36.2802 111.741C35.1426 111.624 34.0477 111.486 33.0026 111.331V116.463C34.0467 116.622 35.142 116.762 36.2802 116.882V111.741ZM32.0026 111.175V116.303C30.8168 116.103 29.7054 115.879 28.6816 115.633V110.524C29.7098 110.762 30.8206 110.981 32.0026 111.175ZM27.6816 110.278C26.5326 109.98 25.5045 109.653 24.6162 109.304V114.343C25.4603 114.706 26.4853 115.054 27.6816 115.378V110.278ZM23.6162 108.873V113.862C23.5325 113.817 23.4515 113.771 23.3733 113.725C22.3667 113.135 22.0428 112.663 21.9606 112.383H21.9811V107.897C22.4128 108.236 22.9617 108.562 23.6162 108.873Z" fill="black"/>
<path fill-rule="evenodd" clip-rule="evenodd" d="M70.577 106.181C70.5852 106.141 70.5887 106.106 70.5887 106.075C70.5887 105.811 70.3393 105.258 69.0974 104.546C67.9312 103.877 66.177 103.24 63.9226 102.693C59.4293 101.603 53.1701 100.918 46.2201 100.918C39.2702 100.918 33.011 101.603 28.5177 102.693C26.2632 103.24 24.5091 103.877 23.3429 104.546C22.1009 105.258 21.8516 105.811 21.8516 106.075C21.8516 106.339 22.1009 106.892 23.3429 107.604C24.5091 108.273 26.2632 108.91 28.5177 109.457C33.011 110.547 39.2702 111.232 46.2201 111.232C53.1701 111.232 59.4293 110.547 63.9226 109.457C66.177 108.91 67.9312 108.273 69.0974 107.604C70.1303 107.012 70.4767 106.529 70.564 106.232L70.5632 106.181L70.577 106.181ZM71.5658 106.339C71.581 106.251 71.5887 106.163 71.5887 106.075C71.5887 102.675 60.2308 99.918 46.2201 99.918C32.2095 99.918 20.8516 102.675 20.8516 106.075C20.8516 106.286 20.8954 106.495 20.9811 106.701L20.9811 112.232H20.9367C20.9367 113.039 21.5914 113.84 22.8678 114.588C24.1427 115.335 26.0113 116.014 28.367 116.586C30.7227 117.157 33.5193 117.611 36.5971 117.92C39.675 118.23 42.9738 118.389 46.3053 118.389C49.6367 118.389 52.9355 118.23 56.0134 117.92C59.0913 117.611 61.8879 117.157 64.2436 116.586C66.5992 116.014 68.4679 115.335 69.7428 114.588C71.0191 113.84 71.6739 113.039 71.6739 112.232H71.6612L71.5658 106.339ZM70.5892 107.792C70.3808 107.967 70.1414 108.138 69.8726 108.306V113.305C70.4346 112.877 70.6193 112.54 70.6627 112.332L70.5892 107.792ZM46.2433 112.232C47.6508 112.232 49.0316 112.204 50.3766 112.15V117.308C49.0345 117.362 47.6729 117.389 46.3053 117.389L46.2433 117.389V112.232ZM54.9801 111.855C53.8166 111.959 52.6131 112.043 51.3766 112.105V117.263C52.6005 117.202 53.8051 117.119 54.9801 117.014V111.855ZM55.9801 111.76C57.3254 111.624 58.612 111.46 59.8282 111.272V116.429C58.6123 116.618 57.3251 116.782 55.9801 116.919V111.76ZM64.595 110.32C63.4501 110.612 62.1885 110.877 60.8282 111.109V116.266C61.9618 116.07 63.0256 115.852 64.0077 115.614C64.2076 115.565 64.4034 115.516 64.595 115.466V110.32ZM65.595 110.05C66.8705 109.684 67.9732 109.281 68.8726 108.85V113.927C68.0346 114.368 66.9368 114.795 65.595 115.19V110.05ZM46.0671 112.232C44.5706 112.23 43.1048 112.196 41.6804 112.134V117.285C42.8546 117.338 44.0453 117.371 45.2433 117.383V112.232H46.0671ZM40.6804 112.085V117.234C39.5254 117.17 38.389 117.085 37.2802 116.982V111.839C38.3793 111.939 39.5147 112.022 40.6804 112.085ZM36.2802 111.741C35.1426 111.624 34.0477 111.486 33.0026 111.331V116.463C34.0467 116.622 35.142 116.762 36.2802 116.882V111.741ZM32.0026 111.175V116.303C30.8168 116.103 29.7054 115.879 28.6816 115.633V110.524C29.7098 110.762 30.8206 110.981 32.0026 111.175ZM27.6816 110.278C26.5326 109.98 25.5045 109.653 24.6162 109.304V114.343C25.4603 114.706 26.4853 115.054 27.6816 115.378V110.278ZM23.6162 108.873V113.862C23.5325 113.817 23.4515 113.771 23.3733 113.725C22.3667 113.135 22.0428 112.663 21.9606 112.383H21.9811V107.897C22.4128 108.236 22.9617 108.562 23.6162 108.873Z" fill="url(#paint5_linear_252_2871)"/>
<rect x="13.7891" y="86.6055" width="54.0073" height="21.6858" rx="10.8429" fill="#0C1018"/>
<path fill-rule="evenodd" clip-rule="evenodd" d="M65.12 94.4736C65.1282 94.4345 65.1317 94.3992 65.1317 94.368C65.1317 94.1043 64.8823 93.5514 63.6404 92.8387C62.4741 92.1695 60.72 91.5332 58.4655 90.9861C53.9723 89.8956 47.7131 89.2109 40.7631 89.2109C33.8132 89.2109 27.5539 89.8956 23.0607 90.9861C20.8062 91.5332 19.0521 92.1695 17.8858 92.8387C16.6439 93.5514 16.3945 94.1043 16.3945 94.368C16.3945 94.6317 16.6439 95.1846 17.8858 95.8972C19.0521 96.5665 20.8062 97.2027 23.0607 97.7499C27.5539 98.8404 33.8132 99.525 40.7631 99.525C47.7131 99.525 53.9723 98.8404 58.4655 97.7499C60.72 97.2027 62.4741 96.5665 63.6404 95.8972C64.6733 95.3045 65.0196 94.8223 65.107 94.5251L65.1061 94.4738L65.12 94.4736ZM66.1088 94.6318C66.124 94.5443 66.1317 94.4564 66.1317 94.368C66.1317 90.9675 54.7738 88.2109 40.7631 88.2109C26.7524 88.2109 15.3945 90.9675 15.3945 94.368C15.3945 94.5793 15.4384 94.7882 15.5241 94.9941L15.5241 100.525H15.4797C15.4797 101.332 16.1344 102.133 17.4107 102.881C18.6856 103.628 20.5543 104.307 22.9099 104.879C25.2656 105.45 28.0622 105.904 31.1401 106.213C34.218 106.523 37.5168 106.682 40.8482 106.682C44.1797 106.682 47.4785 106.523 50.5564 106.213C53.6342 105.904 56.4308 105.45 58.7865 104.879C61.1422 104.307 63.0109 103.628 64.2858 102.881C65.5621 102.133 66.2168 101.332 66.2168 100.525H66.2042L66.1088 94.6318ZM65.1322 96.0849C64.9238 96.2595 64.6844 96.4308 64.4156 96.5986V101.598C64.9776 101.17 65.1622 100.833 65.2057 100.625L65.1322 96.0849ZM40.7862 100.525C42.1938 100.525 43.5745 100.497 44.9196 100.443V105.601C43.5774 105.655 42.2159 105.682 40.8482 105.682L40.7862 105.682V100.525ZM49.5231 100.148C48.3596 100.252 47.156 100.336 45.9196 100.398V105.556C47.1434 105.495 48.348 105.412 49.5231 105.307V100.148ZM50.5231 100.053C51.8684 99.9167 53.155 99.7531 54.3712 99.5652V104.722C53.1552 104.911 51.8681 105.075 50.5231 105.211V100.053ZM59.1379 98.6131C57.9931 98.9049 56.7314 99.1695 55.3712 99.4024V104.559C56.5048 104.363 57.5686 104.145 58.5507 103.907C58.7506 103.858 58.9463 103.809 59.1379 103.759V98.6131ZM60.1379 98.3428C61.4134 97.9769 62.5162 97.5744 63.4156 97.1427V102.22C62.5776 102.661 61.4798 103.088 60.1379 103.483V98.3428ZM40.6101 100.525C39.1136 100.523 37.6478 100.489 36.2234 100.427V105.578C37.3976 105.631 38.5882 105.664 39.7862 105.676V100.525H40.6101ZM35.2234 100.378V105.527C34.0683 105.463 32.932 105.378 31.8232 105.275V100.132C32.9223 100.232 34.0577 100.315 35.2234 100.378ZM30.8232 100.034C29.6856 99.9167 28.5906 99.7795 27.5455 99.6243V104.756C28.5897 104.915 29.685 105.055 30.8232 105.175V100.034ZM26.5455 99.468V104.596C25.3598 104.396 24.2483 104.172 23.2246 103.926V98.8166C24.2528 99.0554 25.3636 99.2735 26.5455 99.468ZM22.2246 98.571C21.0756 98.2726 20.0475 97.9464 19.1592 97.5971V102.636C20.0033 102.999 21.0282 103.347 22.2246 103.671V98.571ZM18.1592 97.1659V102.155C18.0754 102.11 17.9945 102.064 17.9163 102.018C16.9097 101.428 16.5857 100.956 16.5035 100.675H16.5241V96.1903C16.9558 96.5289 17.5047 96.8551 18.1592 97.1659Z" fill="black"/>
<path fill-rule="evenodd" clip-rule="evenodd" d="M65.12 94.4736C65.1282 94.4345 65.1317 94.3992 65.1317 94.368C65.1317 94.1043 64.8823 93.5514 63.6404 92.8387C62.4741 92.1695 60.72 91.5332 58.4655 90.9861C53.9723 89.8956 47.7131 89.2109 40.7631 89.2109C33.8132 89.2109 27.5539 89.8956 23.0607 90.9861C20.8062 91.5332 19.0521 92.1695 17.8858 92.8387C16.6439 93.5514 16.3945 94.1043 16.3945 94.368C16.3945 94.6317 16.6439 95.1846 17.8858 95.8972C19.0521 96.5665 20.8062 97.2027 23.0607 97.7499C27.5539 98.8404 33.8132 99.525 40.7631 99.525C47.7131 99.525 53.9723 98.8404 58.4655 97.7499C60.72 97.2027 62.4741 96.5665 63.6404 95.8972C64.6733 95.3045 65.0196 94.8223 65.107 94.5251L65.1061 94.4738L65.12 94.4736ZM66.1088 94.6318C66.124 94.5443 66.1317 94.4564 66.1317 94.368C66.1317 90.9675 54.7738 88.2109 40.7631 88.2109C26.7524 88.2109 15.3945 90.9675 15.3945 94.368C15.3945 94.5793 15.4384 94.7882 15.5241 94.9941L15.5241 100.525H15.4797C15.4797 101.332 16.1344 102.133 17.4107 102.881C18.6856 103.628 20.5543 104.307 22.9099 104.879C25.2656 105.45 28.0622 105.904 31.1401 106.213C34.218 106.523 37.5168 106.682 40.8482 106.682C44.1797 106.682 47.4785 106.523 50.5564 106.213C53.6342 105.904 56.4308 105.45 58.7865 104.879C61.1422 104.307 63.0109 103.628 64.2858 102.881C65.5621 102.133 66.2168 101.332 66.2168 100.525H66.2042L66.1088 94.6318ZM65.1322 96.0849C64.9238 96.2595 64.6844 96.4308 64.4156 96.5986V101.598C64.9776 101.17 65.1622 100.833 65.2057 100.625L65.1322 96.0849ZM40.7862 100.525C42.1938 100.525 43.5745 100.497 44.9196 100.443V105.601C43.5774 105.655 42.2159 105.682 40.8482 105.682L40.7862 105.682V100.525ZM49.5231 100.148C48.3596 100.252 47.156 100.336 45.9196 100.398V105.556C47.1434 105.495 48.348 105.412 49.5231 105.307V100.148ZM50.5231 100.053C51.8684 99.9167 53.155 99.7531 54.3712 99.5652V104.722C53.1552 104.911 51.8681 105.075 50.5231 105.211V100.053ZM59.1379 98.6131C57.9931 98.9049 56.7314 99.1695 55.3712 99.4024V104.559C56.5048 104.363 57.5686 104.145 58.5507 103.907C58.7506 103.858 58.9463 103.809 59.1379 103.759V98.6131ZM60.1379 98.3428C61.4134 97.9769 62.5162 97.5744 63.4156 97.1427V102.22C62.5776 102.661 61.4798 103.088 60.1379 103.483V98.3428ZM40.6101 100.525C39.1136 100.523 37.6478 100.489 36.2234 100.427V105.578C37.3976 105.631 38.5882 105.664 39.7862 105.676V100.525H40.6101ZM35.2234 100.378V105.527C34.0683 105.463 32.932 105.378 31.8232 105.275V100.132C32.9223 100.232 34.0577 100.315 35.2234 100.378ZM30.8232 100.034C29.6856 99.9167 28.5906 99.7795 27.5455 99.6243V104.756C28.5897 104.915 29.685 105.055 30.8232 105.175V100.034ZM26.5455 99.468V104.596C25.3598 104.396 24.2483 104.172 23.2246 103.926V98.8166C24.2528 99.0554 25.3636 99.2735 26.5455 99.468ZM22.2246 98.571C21.0756 98.2726 20.0475 97.9464 19.1592 97.5971V102.636C20.0033 102.999 21.0282 103.347 22.2246 103.671V98.571ZM18.1592 97.1659V102.155C18.0754 102.11 17.9945 102.064 17.9163 102.018C16.9097 101.428 16.5857 100.956 16.5035 100.675H16.5241V96.1903C16.9558 96.5289 17.5047 96.8551 18.1592 97.1659Z" fill="url(#paint6_linear_252_2871)"/>
<rect x="58.2539" y="133.391" width="30" height="30" rx="15" fill="#0C1018"/>
<path d="M82.7302 142.206L83.635 143.773C84.3286 144.975 83.9152 146.51 82.7149 147.204C81.8031 147.731 81.8031 149.048 82.7149 149.575C83.9164 150.268 84.3286 151.805 83.635 153.005L82.7302 154.573C82.0366 155.775 80.5001 156.186 79.2987 155.492C78.3868 154.966 77.2461 155.624 77.2461 156.677C77.2461 158.064 76.1217 159.19 74.7346 159.19H72.9249C71.5378 159.19 70.4135 158.064 70.4135 156.677C70.4135 155.624 69.2728 154.966 68.3597 155.492C67.1583 156.186 65.6229 155.775 64.9294 154.573L64.0245 153.005C63.331 151.805 63.742 150.268 64.9434 149.575C65.8565 149.048 65.8565 147.731 64.9434 147.204C63.742 146.51 63.331 144.975 64.0245 143.773L64.9294 142.206C65.6229 141.005 67.1583 140.593 68.3597 141.286C69.2728 141.814 70.4135 141.156 70.4135 140.101C70.4135 138.714 71.5378 137.59 72.9249 137.59H74.7346C76.1217 137.59 77.2461 138.714 77.2461 140.101C77.2461 141.156 78.388 141.814 79.2999 141.286C80.5001 140.593 82.0366 141.005 82.7302 142.206Z" stroke="url(#paint7_linear_252_2871)" stroke-linecap="round" stroke-linejoin="round"/>
<path d="M77.6833 148.391C77.6833 146.261 75.9576 144.535 73.8279 144.535C71.6983 144.535 69.9727 146.261 69.9727 148.391C69.9727 150.52 71.6983 152.246 73.8279 152.246C75.9576 152.246 77.6833 150.52 77.6833 148.391Z" stroke="url(#paint8_linear_252_2871)" stroke-linecap="round" stroke-linejoin="round"/>
<rect x="155.648" y="56.3594" width="47.5112" height="61.1426" rx="3.15741" stroke="#D9D9D9"/>
<rect x="155.648" y="56.3594" width="47.5112" height="61.1426" rx="3.15741" stroke="url(#paint9_linear_252_2871)"/>
<path d="M161.461 73.7734H183.299" stroke="black"/>
<path d="M161.461 73.7734H183.299" stroke="url(#paint10_linear_252_2871)"/>
<rect x="189.145" y="69.1758" width="9.19374" height="9.19372" rx="1.41882" stroke="#D9D9D9"/>
<rect x="189.145" y="69.1758" width="9.19374" height="9.19372" rx="1.41882" stroke="url(#paint11_linear_252_2871)"/>
<rect x="196.297" y="68.6758" width="3.71116" height="4.2671" fill="#0C1018"/>
<path d="M191.387 73.0628L193.291 74.9672C193.441 75.1171 193.684 75.1171 193.834 74.9672L198.153 70.6484" stroke="black" stroke-linecap="round"/>
<path d="M191.387 73.0628L193.291 74.9672C193.441 75.1171 193.684 75.1171 193.834 74.9672L198.153 70.6484" stroke="url(#paint12_linear_252_2871)" stroke-linecap="round"/>
<path d="M161.461 86.9688H183.299" stroke="black"/>
<path d="M161.461 86.9688H183.299" stroke="url(#paint13_linear_252_2871)"/>
<rect x="189.145" y="82.3711" width="9.19374" height="9.19372" rx="1.41882" stroke="#D9D9D9"/>
<rect x="189.145" y="82.3711" width="9.19374" height="9.19372" rx="1.41882" stroke="url(#paint14_linear_252_2871)"/>
<rect x="196.297" y="81.8711" width="3.71116" height="4.2671" fill="#0C1018"/>
<path d="M191.387 86.2581L193.291 88.1625C193.441 88.3124 193.684 88.3124 193.834 88.1625L198.153 83.8438" stroke="black" stroke-linecap="round"/>
<path d="M191.387 86.2581L193.291 88.1625C193.441 88.3124 193.684 88.3124 193.834 88.1625L198.153 83.8438" stroke="url(#paint15_linear_252_2871)" stroke-linecap="round"/>
<path d="M161.461 100.16H183.299" stroke="black"/>
<path d="M161.461 100.16H183.299" stroke="url(#paint16_linear_252_2871)"/>
<rect x="189.145" y="95.5625" width="9.19374" height="9.19372" rx="1.41882" stroke="#D9D9D9"/>
<rect x="189.145" y="95.5625" width="9.19374" height="9.19372" rx="1.41882" stroke="url(#paint17_linear_252_2871)"/>
<rect x="196.297" y="95.0625" width="3.71116" height="4.2671" fill="#0C1018"/>
<rect x="155.648" y="132.5" width="47.5112" height="61.1426" rx="3.15741" stroke="#D9D9D9"/>
<rect x="155.648" y="132.5" width="47.5112" height="61.1426" rx="3.15741" stroke="url(#paint18_linear_252_2871)"/>
<path d="M161.461 149.914H183.299" stroke="black"/>
<path d="M161.461 149.914H183.299" stroke="url(#paint19_linear_252_2871)"/>
<rect x="189.145" y="145.316" width="9.19374" height="9.19372" rx="1.41882" stroke="#D9D9D9"/>
<rect x="189.145" y="145.316" width="9.19374" height="9.19372" rx="1.41882" stroke="url(#paint20_linear_252_2871)"/>
<rect x="196.297" y="144.816" width="3.71116" height="4.2671" fill="#0C1018"/>
<path d="M191.387 149.203L193.291 151.108C193.441 151.258 193.684 151.258 193.834 151.108L198.153 146.789" stroke="black" stroke-linecap="round"/>
<path d="M191.387 149.203L193.291 151.108C193.441 151.258 193.684 151.258 193.834 151.108L198.153 146.789" stroke="url(#paint21_linear_252_2871)" stroke-linecap="round"/>
<path d="M161.461 163.109H183.299" stroke="black"/>
<path d="M161.461 163.109H183.299" stroke="url(#paint22_linear_252_2871)"/>
<rect x="189.145" y="158.512" width="9.19374" height="9.19372" rx="1.41882" stroke="#D9D9D9"/>
<rect x="189.145" y="158.512" width="9.19374" height="9.19372" rx="1.41882" stroke="url(#paint23_linear_252_2871)"/>
<rect x="196.297" y="158.012" width="3.71116" height="4.2671" fill="#0C1018"/>
<path d="M161.461 176.301H183.299" stroke="black"/>
<path d="M161.461 176.301H183.299" stroke="url(#paint24_linear_252_2871)"/>
<rect x="189.145" y="171.703" width="9.19374" height="9.19372" rx="1.41882" stroke="#D9D9D9"/>
<rect x="189.145" y="171.703" width="9.19374" height="9.19372" rx="1.41882" stroke="url(#paint25_linear_252_2871)"/>
<rect x="196.297" y="171.203" width="3.71116" height="4.2671" fill="#0C1018"/>
<defs>
<filter id="filter0_dddddd_252_2871" x="58.8154" y="88.3037" width="73.3926" height="73.3926" filterUnits="userSpaceOnUse" color-interpolation-filters="sRGB">
<feFlood flood-opacity="0" result="BackgroundImageFix"/>
<feColorMatrix in="SourceAlpha" type="matrix" values="0 0 0 0 0 0 0 0 0 0 0 0 0 0 0 0 0 0 127 0" result="hardAlpha"/>
<feOffset/>
<feGaussianBlur stdDeviation="0.401147"/>
<feColorMatrix type="matrix" values="0 0 0 0 0.176471 0 0 0 0 0.890196 0 0 0 0 0.890196 0 0 0 1 0"/>
<feBlend mode="normal" in2="BackgroundImageFix" result="effect1_dropShadow_252_2871"/>
<feColorMatrix in="SourceAlpha" type="matrix" values="0 0 0 0 0 0 0 0 0 0 0 0 0 0 0 0 0 0 127 0" result="hardAlpha"/>
<feOffset/>
<feGaussianBlur stdDeviation="0.802293"/>
<feColorMatrix type="matrix" values="0 0 0 0 0.176471 0 0 0 0 0.890196 0 0 0 0 0.890196 0 0 0 1 0"/>
<feBlend mode="normal" in2="effect1_dropShadow_252_2871" result="effect2_dropShadow_252_2871"/>
<feColorMatrix in="SourceAlpha" type="matrix" values="0 0 0 0 0 0 0 0 0 0 0 0 0 0 0 0 0 0 127 0" result="hardAlpha"/>
<feOffset/>
<feGaussianBlur stdDeviation="2.80803"/>
<feColorMatrix type="matrix" values="0 0 0 0 0.176471 0 0 0 0 0.890196 0 0 0 0 0.890196 0 0 0 1 0"/>
<feBlend mode="normal" in2="effect2_dropShadow_252_2871" result="effect3_dropShadow_252_2871"/>
<feColorMatrix in="SourceAlpha" type="matrix" values="0 0 0 0 0 0 0 0 0 0 0 0 0 0 0 0 0 0 127 0" result="hardAlpha"/>
<feOffset/>
<feGaussianBlur stdDeviation="5.61605"/>
<feColorMatrix type="matrix" values="0 0 0 0 0.176471 0 0 0 0 0.890196 0 0 0 0 0.890196 0 0 0 1 0"/>
<feBlend mode="normal" in2="effect3_dropShadow_252_2871" result="effect4_dropShadow_252_2871"/>
<feColorMatrix in="SourceAlpha" type="matrix" values="0 0 0 0 0 0 0 0 0 0 0 0 0 0 0 0 0 0 127 0" result="hardAlpha"/>
<feOffset/>
<feGaussianBlur stdDeviation="9.62752"/>
<feColorMatrix type="matrix" values="0 0 0 0 0.176471 0 0 0 0 0.890196 0 0 0 0 0.890196 0 0 0 1 0"/>
<feBlend mode="normal" in2="effect4_dropShadow_252_2871" result="effect5_dropShadow_252_2871"/>
<feColorMatrix in="SourceAlpha" type="matrix" values="0 0 0 0 0 0 0 0 0 0 0 0 0 0 0 0 0 0 127 0" result="hardAlpha"/>
<feOffset/>
<feGaussianBlur stdDeviation="16.8482"/>
<feColorMatrix type="matrix" values="0 0 0 0 0.176471 0 0 0 0 0.890196 0 0 0 0 0.890196 0 0 0 1 0"/>
<feBlend mode="normal" in2="effect5_dropShadow_252_2871" result="effect6_dropShadow_252_2871"/>
<feBlend mode="normal" in="SourceGraphic" in2="effect6_dropShadow_252_2871" result="shape"/>
</filter>
<linearGradient id="paint0_linear_252_2871" x1="89.654" y1="125.293" x2="126.786" y2="109.598" gradientUnits="userSpaceOnUse">
<stop stop-color="#2DE3E3"/>
<stop offset="1" stop-color="#0A81BE"/>
</linearGradient>
<linearGradient id="paint1_linear_252_2871" x1="17.3852" y1="129.271" x2="68.5922" y2="128.161" gradientUnits="userSpaceOnUse">
<stop stop-color="#2DE3E3"/>
<stop offset="1" stop-color="#0A81BE"/>
</linearGradient>
<linearGradient id="paint2_linear_252_2871" x1="11.2876" y1="119.888" x2="62.4945" y2="118.778" gradientUnits="userSpaceOnUse">
<stop stop-color="#2DE3E3"/>
<stop offset="1" stop-color="#0A81BE"/>
</linearGradient>
<linearGradient id="paint3_linear_252_2871" x1="18.9321" y1="111.943" x2="70.1391" y2="110.833" gradientUnits="userSpaceOnUse">
<stop stop-color="#2DE3E3"/>
<stop offset="1" stop-color="#0A81BE"/>
</linearGradient>
<linearGradient id="paint4_linear_252_2871" x1="7.93212" y1="103.943" x2="59.1391" y2="102.833" gradientUnits="userSpaceOnUse">
<stop stop-color="#2DE3E3"/>
<stop offset="1" stop-color="#0A81BE"/>
</linearGradient>
<linearGradient id="paint5_linear_252_2871" x1="13.9946" y1="95.5718" x2="65.2016" y2="94.4614" gradientUnits="userSpaceOnUse">
<stop stop-color="#2DE3E3"/>
<stop offset="1" stop-color="#0A81BE"/>
</linearGradient>
<linearGradient id="paint6_linear_252_2871" x1="8.53759" y1="83.8648" x2="59.7445" y2="82.7544" gradientUnits="userSpaceOnUse">
<stop stop-color="#2DE3E3"/>
<stop offset="1" stop-color="#0A81BE"/>
</linearGradient>
<linearGradient id="paint7_linear_252_2871" x1="60.2074" y1="137.59" x2="86.2054" y2="137.288" gradientUnits="userSpaceOnUse">
<stop stop-color="#2DE3E3"/>
<stop offset="1" stop-color="#0A81BE"/>
</linearGradient>
<linearGradient id="paint8_linear_252_2871" x1="68.6498" y1="144.535" x2="78.5322" y2="144.413" gradientUnits="userSpaceOnUse">
<stop stop-color="#2DE3E3"/>
<stop offset="1" stop-color="#0A81BE"/>
</linearGradient>
<linearGradient id="paint9_linear_252_2871" x1="148.61" y1="41.2375" x2="197.459" y2="40.9372" gradientUnits="userSpaceOnUse">
<stop stop-color="#2DE3E3"/>
<stop offset="1" stop-color="#0A81BE"/>
</linearGradient>
<linearGradient id="paint10_linear_252_2871" x1="158.518" y1="73.5381" x2="179.878" y2="69.8658" gradientUnits="userSpaceOnUse">
<stop stop-color="#2DE3E3"/>
<stop offset="1" stop-color="#0A81BE"/>
</linearGradient>
<linearGradient id="paint11_linear_252_2871" x1="187.362" y1="68.6758" x2="196.944" y2="68.5888" gradientUnits="userSpaceOnUse">
<stop stop-color="#2DE3E3"/>
<stop offset="1" stop-color="#0A81BE"/>
</linearGradient>
<linearGradient id="paint12_linear_252_2871" x1="190.535" y1="70.6484" x2="196.895" y2="70.5633" gradientUnits="userSpaceOnUse">
<stop stop-color="#2DE3E3"/>
<stop offset="1" stop-color="#0A81BE"/>
</linearGradient>
<linearGradient id="paint13_linear_252_2871" x1="158.518" y1="86.7335" x2="179.878" y2="83.0611" gradientUnits="userSpaceOnUse">
<stop stop-color="#2DE3E3"/>
<stop offset="1" stop-color="#0A81BE"/>
</linearGradient>
<linearGradient id="paint14_linear_252_2871" x1="187.362" y1="81.8711" x2="196.944" y2="81.7841" gradientUnits="userSpaceOnUse">
<stop stop-color="#2DE3E3"/>
<stop offset="1" stop-color="#0A81BE"/>
</linearGradient>
<linearGradient id="paint15_linear_252_2871" x1="190.535" y1="83.8438" x2="196.895" y2="83.7587" gradientUnits="userSpaceOnUse">
<stop stop-color="#2DE3E3"/>
<stop offset="1" stop-color="#0A81BE"/>
</linearGradient>
<linearGradient id="paint16_linear_252_2871" x1="158.518" y1="99.9249" x2="179.878" y2="96.2525" gradientUnits="userSpaceOnUse">
<stop stop-color="#2DE3E3"/>
<stop offset="1" stop-color="#0A81BE"/>
</linearGradient>
<linearGradient id="paint17_linear_252_2871" x1="187.362" y1="95.0625" x2="196.944" y2="94.9755" gradientUnits="userSpaceOnUse">
<stop stop-color="#2DE3E3"/>
<stop offset="1" stop-color="#0A81BE"/>
</linearGradient>
<linearGradient id="paint18_linear_252_2871" x1="148.61" y1="117.378" x2="197.459" y2="117.078" gradientUnits="userSpaceOnUse">
<stop stop-color="#2DE3E3"/>
<stop offset="1" stop-color="#0A81BE"/>
</linearGradient>
<linearGradient id="paint19_linear_252_2871" x1="158.518" y1="149.679" x2="179.878" y2="146.006" gradientUnits="userSpaceOnUse">
<stop stop-color="#2DE3E3"/>
<stop offset="1" stop-color="#0A81BE"/>
</linearGradient>
<linearGradient id="paint20_linear_252_2871" x1="187.362" y1="144.816" x2="196.944" y2="144.729" gradientUnits="userSpaceOnUse">
<stop stop-color="#2DE3E3"/>
<stop offset="1" stop-color="#0A81BE"/>
</linearGradient>
<linearGradient id="paint21_linear_252_2871" x1="190.535" y1="146.789" x2="196.895" y2="146.704" gradientUnits="userSpaceOnUse">
<stop stop-color="#2DE3E3"/>
<stop offset="1" stop-color="#0A81BE"/>
</linearGradient>
<linearGradient id="paint22_linear_252_2871" x1="158.518" y1="162.874" x2="179.878" y2="159.202" gradientUnits="userSpaceOnUse">
<stop stop-color="#2DE3E3"/>
<stop offset="1" stop-color="#0A81BE"/>
</linearGradient>
<linearGradient id="paint23_linear_252_2871" x1="187.362" y1="158.012" x2="196.944" y2="157.925" gradientUnits="userSpaceOnUse">
<stop stop-color="#2DE3E3"/>
<stop offset="1" stop-color="#0A81BE"/>
</linearGradient>
<linearGradient id="paint24_linear_252_2871" x1="158.518" y1="176.065" x2="179.878" y2="172.393" gradientUnits="userSpaceOnUse">
<stop stop-color="#2DE3E3"/>
<stop offset="1" stop-color="#0A81BE"/>
</linearGradient>
<linearGradient id="paint25_linear_252_2871" x1="187.362" y1="171.203" x2="196.944" y2="171.116" gradientUnits="userSpaceOnUse">
<stop stop-color="#2DE3E3"/>
<stop offset="1" stop-color="#0A81BE"/>
</linearGradient>
</defs>
</svg>
