<svg width="251" height="250" viewBox="0 0 251 250" fill="none" xmlns="http://www.w3.org/2000/svg">
<path fill-rule="evenodd" clip-rule="evenodd" d="M80.019 121.486C80.019 136.013 65.1998 148.147 46.4275 148.147C27.6552 148.147 12.8359 136.013 12.8359 121.486C12.8359 106.958 27.6552 94.8242 46.4275 94.8242C65.1998 94.8242 80.019 106.958 80.019 121.486ZM46.5583 155.371C48.0391 155.366 49.5096 155.28 50.9612 155.116V148.911C49.5196 149.062 48.05 149.142 46.5583 149.147V155.371ZM51.9612 154.99C53.394 154.792 54.8062 154.517 56.1893 154.169V148.03C54.8135 148.353 53.4022 148.61 51.9612 148.795V154.99ZM57.1893 153.903C58.5348 153.526 59.8502 153.078 61.1274 152.563V146.532C59.8552 147.01 58.5405 147.429 57.1893 147.782V153.903ZM62.1274 152.143C63.745 151.434 65.2957 150.615 66.7625 149.69V143.865C65.3 144.716 63.7507 145.478 62.1274 146.14V152.143ZM67.7625 149.035C68.6082 148.459 69.423 147.846 70.2034 147.199C70.2455 147.164 70.2874 147.129 70.3291 147.094C70.8836 146.627 71.3948 146.148 71.8676 145.659V140.229C70.604 141.325 69.231 142.339 67.7625 143.261V149.035ZM72.8676 144.542C73.6401 143.609 74.294 142.641 74.8599 141.642C75.3671 140.747 75.8037 139.826 76.1917 138.883H76.1283V135.674C75.164 136.962 74.0725 138.182 72.8676 139.322V144.542ZM77.1283 136.313C77.563 134.977 77.9443 133.604 78.328 132.201C77.9621 132.897 77.5616 133.578 77.1283 134.243V136.313ZM80.5435 126.082C80.8563 124.587 81.019 123.052 81.019 121.486C81.019 106.209 65.5319 93.8242 46.4275 93.8242C27.3231 93.8242 11.8359 106.209 11.8359 121.486C11.8359 122.974 11.983 124.436 12.2663 125.861L12.2228 125.781C12.2228 126.522 12.2536 127.275 12.3151 128.037C12.5377 130.79 13.1625 133.654 14.1883 136.412C14.6727 137.714 15.2465 138.993 15.9097 140.225L15.9089 140.245L15.9209 140.246C17.4582 143.096 19.4741 145.698 21.967 147.766C21.984 147.78 22.0009 147.794 22.0179 147.808C22.043 147.829 22.0682 147.85 22.0934 147.87C28.5682 153.188 37.3121 156.173 46.427 156.173C55.5418 156.173 64.2857 153.188 70.7605 147.87C70.7852 147.85 70.8099 147.83 70.8346 147.809C70.852 147.795 70.8695 147.78 70.8869 147.766C72.7533 146.217 74.3461 144.326 75.6682 142.236C78.2703 138.122 79.8242 133.24 80.352 128.686C80.3635 128.587 80.3745 128.488 80.385 128.39L80.3918 128.326C80.4711 127.566 80.5216 126.817 80.5435 126.082ZM16.8753 140.281C17.5113 141.464 18.2665 142.606 19.1662 143.711L19.2905 138.641C18.4906 137.833 17.746 136.989 17.0612 136.111L16.9083 140.282L16.8753 140.281ZM20.1391 144.831C20.8533 145.602 21.6455 146.356 22.5247 147.094C22.5665 147.129 22.6084 147.164 22.6505 147.199C23.2199 147.671 23.8077 148.125 24.4124 148.56V142.823C22.9206 141.837 21.5338 140.754 20.2676 139.585L20.1391 144.831ZM25.4124 149.251C26.7867 150.164 28.2398 150.982 29.7569 151.701V145.729C28.2352 145.058 26.7833 144.299 25.4124 143.459V149.251ZM30.7569 152.156C32.1953 152.784 33.6863 153.326 35.2179 153.775V147.703H35.3693C33.7768 147.274 32.2361 146.754 30.7569 146.152V152.156ZM36.2179 154.054C37.5438 154.404 38.8976 154.687 40.2716 154.899V148.71C38.8902 148.512 37.5372 148.248 36.2179 147.922V154.054ZM41.2716 155.041V148.842C42.6747 149.009 44.1054 149.11 45.5583 149.138V155.361C44.1155 155.331 42.6839 155.223 41.2716 155.041ZM15.9766 138.401L16.1082 134.813C15.3194 133.668 14.6291 132.473 14.0464 131.236C14.3068 132.926 14.6546 134.54 15.134 136.086C15.3786 136.875 15.6575 137.646 15.9766 138.401ZM73.4233 123.996L72.9277 123.93L72.4321 123.864C72.5318 123.118 72.583 122.359 72.583 121.591C72.583 120.823 72.5318 120.065 72.4321 119.319L72.9277 119.253L73.4233 119.187C73.5288 119.976 73.583 120.779 73.583 121.591C73.583 122.404 73.5288 123.206 73.4233 123.996ZM72.1662 114.545L71.7045 114.737L71.2427 114.929C70.6634 113.534 69.9059 112.201 68.9896 110.949L69.3931 110.654L69.7966 110.358C70.7575 111.672 71.555 113.074 72.1662 114.545ZM66.5554 106.799C65.3807 105.748 64.0826 104.79 62.6798 103.941L62.4208 104.369L62.1619 104.796C63.5137 105.615 64.7617 106.536 65.8887 107.544L66.2221 107.171L66.5554 106.799ZM58.3624 101.805L58.1785 102.27L57.9947 102.735C56.578 102.175 55.0881 101.716 53.5393 101.369L53.6486 100.881L53.7578 100.393C55.3569 100.751 56.8967 101.226 58.3624 101.805ZM48.9907 99.6942L48.9548 100.193L48.9189 100.692C48.1486 100.636 47.3685 100.608 46.5801 100.608C45.7916 100.608 45.0116 100.636 44.2413 100.692L44.2054 100.193L44.1695 99.6942C44.9636 99.637 45.7677 99.6078 46.5801 99.6078C47.3925 99.6078 48.1965 99.637 48.9907 99.6942ZM39.4024 100.393L39.5116 100.881L39.6209 101.369C38.072 101.716 36.5822 102.175 35.1655 102.735L34.9816 102.27L34.7978 101.805C36.2634 101.226 37.8032 100.751 39.4024 100.393ZM30.4803 103.941L30.7393 104.369L30.9983 104.796C29.6464 105.615 28.3984 106.536 27.2714 107.544L26.9381 107.171L26.6047 106.799C27.7794 105.748 29.0775 104.79 30.4803 103.941ZM23.3635 110.358L23.7671 110.654L24.1706 110.949C23.2543 112.201 22.4968 113.534 21.9174 114.929L21.4557 114.737L20.9939 114.545C21.6052 113.074 22.4027 111.672 23.3635 110.358ZM19.7369 119.187C19.6313 119.976 19.5772 120.779 19.5772 121.591C19.5772 122.404 19.6313 123.206 19.7369 123.996L20.2325 123.93L20.728 123.864C20.6283 123.118 20.5772 122.359 20.5772 121.591C20.5772 120.823 20.6283 120.065 20.728 119.319L20.2325 119.253L19.7369 119.187ZM20.9939 128.637L21.4557 128.445L21.9174 128.254C22.4968 129.648 23.2543 130.981 24.1706 132.234L23.7671 132.529L23.3635 132.824C22.4027 131.511 21.6052 130.109 20.9939 128.637ZM26.6047 136.384L26.9381 136.011L27.2714 135.639C28.3984 136.647 29.6464 137.568 30.9983 138.386L30.7393 138.814L30.4803 139.242C29.0775 138.392 27.7794 137.435 26.6047 136.384ZM34.7978 141.377L34.9816 140.912L35.1655 140.447C36.5822 141.008 38.072 141.467 39.6209 141.814L39.5116 142.302L39.4024 142.79C37.8032 142.432 36.2634 141.957 34.7978 141.377ZM44.1695 143.488L44.2054 142.99L44.2413 142.491C45.0116 142.546 45.7916 142.575 46.5801 142.575C47.3685 142.575 48.1486 142.546 48.9189 142.491L48.9548 142.99L48.9907 143.488C48.1965 143.546 47.3925 143.575 46.5801 143.575C45.7677 143.575 44.9636 143.546 44.1695 143.488ZM53.7578 142.79L53.6486 142.302L53.5393 141.814C55.0881 141.467 56.578 141.008 57.9947 140.447L58.1785 140.912L58.3624 141.377C56.8967 141.957 55.3569 142.432 53.7578 142.79ZM62.6798 139.242L62.4208 138.814L62.1619 138.386C63.5137 137.568 64.7617 136.647 65.8887 135.639L66.2221 136.011L66.5554 136.384C65.3807 137.435 64.0826 138.392 62.6798 139.242ZM69.7966 132.824C70.7575 131.511 71.555 130.109 72.1662 128.637L71.7045 128.445L71.2427 128.254C70.6634 129.648 69.9059 130.981 68.9896 132.234L69.3931 132.529L69.7966 132.824Z" fill="#D9D9D9"/>
<path fill-rule="evenodd" clip-rule="evenodd" d="M80.019 121.486C80.019 136.013 65.1998 148.147 46.4275 148.147C27.6552 148.147 12.8359 136.013 12.8359 121.486C12.8359 106.958 27.6552 94.8242 46.4275 94.8242C65.1998 94.8242 80.019 106.958 80.019 121.486ZM46.5583 155.371C48.0391 155.366 49.5096 155.28 50.9612 155.116V148.911C49.5196 149.062 48.05 149.142 46.5583 149.147V155.371ZM51.9612 154.99C53.394 154.792 54.8062 154.517 56.1893 154.169V148.03C54.8135 148.353 53.4022 148.61 51.9612 148.795V154.99ZM57.1893 153.903C58.5348 153.526 59.8502 153.078 61.1274 152.563V146.532C59.8552 147.01 58.5405 147.429 57.1893 147.782V153.903ZM62.1274 152.143C63.745 151.434 65.2957 150.615 66.7625 149.69V143.865C65.3 144.716 63.7507 145.478 62.1274 146.14V152.143ZM67.7625 149.035C68.6082 148.459 69.423 147.846 70.2034 147.199C70.2455 147.164 70.2874 147.129 70.3291 147.094C70.8836 146.627 71.3948 146.148 71.8676 145.659V140.229C70.604 141.325 69.231 142.339 67.7625 143.261V149.035ZM72.8676 144.542C73.6401 143.609 74.294 142.641 74.8599 141.642C75.3671 140.747 75.8037 139.826 76.1917 138.883H76.1283V135.674C75.164 136.962 74.0725 138.182 72.8676 139.322V144.542ZM77.1283 136.313C77.563 134.977 77.9443 133.604 78.328 132.201C77.9621 132.897 77.5616 133.578 77.1283 134.243V136.313ZM80.5435 126.082C80.8563 124.587 81.019 123.052 81.019 121.486C81.019 106.209 65.5319 93.8242 46.4275 93.8242C27.3231 93.8242 11.8359 106.209 11.8359 121.486C11.8359 122.974 11.983 124.436 12.2663 125.861L12.2228 125.781C12.2228 126.522 12.2536 127.275 12.3151 128.037C12.5377 130.79 13.1625 133.654 14.1883 136.412C14.6727 137.714 15.2465 138.993 15.9097 140.225L15.9089 140.245L15.9209 140.246C17.4582 143.096 19.4741 145.698 21.967 147.766C21.984 147.78 22.0009 147.794 22.0179 147.808C22.043 147.829 22.0682 147.85 22.0934 147.87C28.5682 153.188 37.3121 156.173 46.427 156.173C55.5418 156.173 64.2857 153.188 70.7605 147.87C70.7852 147.85 70.8099 147.83 70.8346 147.809C70.852 147.795 70.8695 147.78 70.8869 147.766C72.7533 146.217 74.3461 144.326 75.6682 142.236C78.2703 138.122 79.8242 133.24 80.352 128.686C80.3635 128.587 80.3745 128.488 80.385 128.39L80.3918 128.326C80.4711 127.566 80.5216 126.817 80.5435 126.082ZM16.8753 140.281C17.5113 141.464 18.2665 142.606 19.1662 143.711L19.2905 138.641C18.4906 137.833 17.746 136.989 17.0612 136.111L16.9083 140.282L16.8753 140.281ZM20.1391 144.831C20.8533 145.602 21.6455 146.356 22.5247 147.094C22.5665 147.129 22.6084 147.164 22.6505 147.199C23.2199 147.671 23.8077 148.125 24.4124 148.56V142.823C22.9206 141.837 21.5338 140.754 20.2676 139.585L20.1391 144.831ZM25.4124 149.251C26.7867 150.164 28.2398 150.982 29.7569 151.701V145.729C28.2352 145.058 26.7833 144.299 25.4124 143.459V149.251ZM30.7569 152.156C32.1953 152.784 33.6863 153.326 35.2179 153.775V147.703H35.3693C33.7768 147.274 32.2361 146.754 30.7569 146.152V152.156ZM36.2179 154.054C37.5438 154.404 38.8976 154.687 40.2716 154.899V148.71C38.8902 148.512 37.5372 148.248 36.2179 147.922V154.054ZM41.2716 155.041V148.842C42.6747 149.009 44.1054 149.11 45.5583 149.138V155.361C44.1155 155.331 42.6839 155.223 41.2716 155.041ZM15.9766 138.401L16.1082 134.813C15.3194 133.668 14.6291 132.473 14.0464 131.236C14.3068 132.926 14.6546 134.54 15.134 136.086C15.3786 136.875 15.6575 137.646 15.9766 138.401ZM73.4233 123.996L72.9277 123.93L72.4321 123.864C72.5318 123.118 72.583 122.359 72.583 121.591C72.583 120.823 72.5318 120.065 72.4321 119.319L72.9277 119.253L73.4233 119.187C73.5288 119.976 73.583 120.779 73.583 121.591C73.583 122.404 73.5288 123.206 73.4233 123.996ZM72.1662 114.545L71.7045 114.737L71.2427 114.929C70.6634 113.534 69.9059 112.201 68.9896 110.949L69.3931 110.654L69.7966 110.358C70.7575 111.672 71.555 113.074 72.1662 114.545ZM66.5554 106.799C65.3807 105.748 64.0826 104.79 62.6798 103.941L62.4208 104.369L62.1619 104.796C63.5137 105.615 64.7617 106.536 65.8887 107.544L66.2221 107.171L66.5554 106.799ZM58.3624 101.805L58.1785 102.27L57.9947 102.735C56.578 102.175 55.0881 101.716 53.5393 101.369L53.6486 100.881L53.7578 100.393C55.3569 100.751 56.8967 101.226 58.3624 101.805ZM48.9907 99.6942L48.9548 100.193L48.9189 100.692C48.1486 100.636 47.3685 100.608 46.5801 100.608C45.7916 100.608 45.0116 100.636 44.2413 100.692L44.2054 100.193L44.1695 99.6942C44.9636 99.637 45.7677 99.6078 46.5801 99.6078C47.3925 99.6078 48.1965 99.637 48.9907 99.6942ZM39.4024 100.393L39.5116 100.881L39.6209 101.369C38.072 101.716 36.5822 102.175 35.1655 102.735L34.9816 102.27L34.7978 101.805C36.2634 101.226 37.8032 100.751 39.4024 100.393ZM30.4803 103.941L30.7393 104.369L30.9983 104.796C29.6464 105.615 28.3984 106.536 27.2714 107.544L26.9381 107.171L26.6047 106.799C27.7794 105.748 29.0775 104.79 30.4803 103.941ZM23.3635 110.358L23.7671 110.654L24.1706 110.949C23.2543 112.201 22.4968 113.534 21.9174 114.929L21.4557 114.737L20.9939 114.545C21.6052 113.074 22.4027 111.672 23.3635 110.358ZM19.7369 119.187C19.6313 119.976 19.5772 120.779 19.5772 121.591C19.5772 122.404 19.6313 123.206 19.7369 123.996L20.2325 123.93L20.728 123.864C20.6283 123.118 20.5772 122.359 20.5772 121.591C20.5772 120.823 20.6283 120.065 20.728 119.319L20.2325 119.253L19.7369 119.187ZM20.9939 128.637L21.4557 128.445L21.9174 128.254C22.4968 129.648 23.2543 130.981 24.1706 132.234L23.7671 132.529L23.3635 132.824C22.4027 131.511 21.6052 130.109 20.9939 128.637ZM26.6047 136.384L26.9381 136.011L27.2714 135.639C28.3984 136.647 29.6464 137.568 30.9983 138.386L30.7393 138.814L30.4803 139.242C29.0775 138.392 27.7794 137.435 26.6047 136.384ZM34.7978 141.377L34.9816 140.912L35.1655 140.447C36.5822 141.008 38.072 141.467 39.6209 141.814L39.5116 142.302L39.4024 142.79C37.8032 142.432 36.2634 141.957 34.7978 141.377ZM44.1695 143.488L44.2054 142.99L44.2413 142.491C45.0116 142.546 45.7916 142.575 46.5801 142.575C47.3685 142.575 48.1486 142.546 48.9189 142.491L48.9548 142.99L48.9907 143.488C48.1965 143.546 47.3925 143.575 46.5801 143.575C45.7677 143.575 44.9636 143.546 44.1695 143.488ZM53.7578 142.79L53.6486 142.302L53.5393 141.814C55.0881 141.467 56.578 141.008 57.9947 140.447L58.1785 140.912L58.3624 141.377C56.8967 141.957 55.3569 142.432 53.7578 142.79ZM62.6798 139.242L62.4208 138.814L62.1619 138.386C63.5137 137.568 64.7617 136.647 65.8887 135.639L66.2221 136.011L66.5554 136.384C65.3807 137.435 64.0826 138.392 62.6798 139.242ZM69.7966 132.824C70.7575 131.511 71.555 130.109 72.1662 128.637L71.7045 128.445L71.2427 128.254C70.6634 129.648 69.9059 130.981 68.9896 132.234L69.3931 132.529L69.7966 132.824Z" fill="url(#paint0_linear_252_2870)"/>
<path d="M98.5584 124.426C98.0061 124.426 97.5584 124.873 97.5584 125.426C97.5584 125.978 98.0061 126.426 98.5584 126.426L98.5584 124.426ZM162.707 126.133C163.098 125.742 163.098 125.109 162.707 124.719L156.344 118.355C155.953 117.964 155.32 117.964 154.929 118.355C154.539 118.745 154.539 119.378 154.929 119.769L160.586 125.426L154.929 131.083C154.539 131.473 154.539 132.106 154.929 132.497C155.32 132.887 155.953 132.887 156.344 132.497L162.707 126.133ZM98.5584 126.426L162 126.426L162 124.426L98.5584 124.426L98.5584 126.426Z" fill="black"/>
<path d="M98.5584 124.426C98.0061 124.426 97.5584 124.873 97.5584 125.426C97.5584 125.978 98.0061 126.426 98.5584 126.426L98.5584 124.426ZM162.707 126.133C163.098 125.742 163.098 125.109 162.707 124.719L156.344 118.355C155.953 117.964 155.32 117.964 154.929 118.355C154.539 118.745 154.539 119.378 154.929 119.769L160.586 125.426L154.929 131.083C154.539 131.473 154.539 132.106 154.929 132.497C155.32 132.887 155.953 132.887 156.344 132.497L162.707 126.133ZM98.5584 126.426L162 126.426L162 124.426L98.5584 124.426L98.5584 126.426Z" fill="url(#paint1_linear_252_2870)"/>
<g filter="url(#filter0_dddddd_252_2870)">
<circle cx="100.148" cy="124.999" r="4.33274" transform="rotate(45 100.148 124.999)" fill="#2DE3E3" fill-opacity="0.8"/>
</g>
<rect x="175.571" y="90.3403" width="53.8662" height="69.3209" rx="3.57974" stroke="#D9D9D9" stroke-width="1.13376"/>
<rect x="175.571" y="90.3403" width="53.8662" height="69.3209" rx="3.57974" stroke="url(#paint2_linear_252_2870)" stroke-width="1.13376"/>
<path d="M182.164 110.078H206.924" stroke="black" stroke-width="1.13376"/>
<path d="M182.164 110.078H206.924" stroke="url(#paint3_linear_252_2870)" stroke-width="1.13376"/>
<rect x="213.551" y="104.868" width="10.4235" height="10.4235" rx="1.6086" stroke="#D9D9D9" stroke-width="1.13376"/>
<rect x="213.551" y="104.868" width="10.4235" height="10.4235" rx="1.6086" stroke="url(#paint4_linear_252_2870)" stroke-width="1.13376"/>
<rect x="221.66" y="104.301" width="4.20755" height="4.83785" fill="#0C1018"/>
<path d="M216.094 109.272L218.253 111.432C218.423 111.602 218.698 111.602 218.868 111.432L223.765 106.535" stroke="black" stroke-width="1.13376" stroke-linecap="round"/>
<path d="M216.094 109.272L218.253 111.432C218.423 111.602 218.698 111.602 218.868 111.432L223.765 106.535" stroke="url(#paint5_linear_252_2870)" stroke-width="1.13376" stroke-linecap="round"/>
<path d="M182.164 125.035H206.924" stroke="black" stroke-width="1.13376"/>
<path d="M182.164 125.035H206.924" stroke="url(#paint6_linear_252_2870)" stroke-width="1.13376"/>
<rect x="213.551" y="119.825" width="10.4235" height="10.4235" rx="1.6086" stroke="#D9D9D9" stroke-width="1.13376"/>
<rect x="213.551" y="119.825" width="10.4235" height="10.4235" rx="1.6086" stroke="url(#paint7_linear_252_2870)" stroke-width="1.13376"/>
<rect x="221.66" y="119.258" width="4.20755" height="4.83785" fill="#0C1018"/>
<path d="M182.164 139.996H206.924" stroke="black" stroke-width="1.13376"/>
<path d="M182.164 139.996H206.924" stroke="url(#paint8_linear_252_2870)" stroke-width="1.13376"/>
<rect x="213.551" y="134.786" width="10.4235" height="10.4235" rx="1.6086" stroke="#D9D9D9" stroke-width="1.13376"/>
<rect x="213.551" y="134.786" width="10.4235" height="10.4235" rx="1.6086" stroke="url(#paint9_linear_252_2870)" stroke-width="1.13376"/>
<rect x="221.66" y="134.219" width="4.20755" height="4.83785" fill="#0C1018"/>
<defs>
<filter id="filter0_dddddd_252_2870" x="62.1201" y="86.9677" width="76.0567" height="76.0606" filterUnits="userSpaceOnUse" color-interpolation-filters="sRGB">
<feFlood flood-opacity="0" result="BackgroundImageFix"/>
<feColorMatrix in="SourceAlpha" type="matrix" values="0 0 0 0 0 0 0 0 0 0 0 0 0 0 0 0 0 0 127 0" result="hardAlpha"/>
<feOffset/>
<feGaussianBlur stdDeviation="0.401147"/>
<feColorMatrix type="matrix" values="0 0 0 0 0.176471 0 0 0 0 0.890196 0 0 0 0 0.890196 0 0 0 1 0"/>
<feBlend mode="normal" in2="BackgroundImageFix" result="effect1_dropShadow_252_2870"/>
<feColorMatrix in="SourceAlpha" type="matrix" values="0 0 0 0 0 0 0 0 0 0 0 0 0 0 0 0 0 0 127 0" result="hardAlpha"/>
<feOffset/>
<feGaussianBlur stdDeviation="0.802293"/>
<feColorMatrix type="matrix" values="0 0 0 0 0.176471 0 0 0 0 0.890196 0 0 0 0 0.890196 0 0 0 1 0"/>
<feBlend mode="normal" in2="effect1_dropShadow_252_2870" result="effect2_dropShadow_252_2870"/>
<feColorMatrix in="SourceAlpha" type="matrix" values="0 0 0 0 0 0 0 0 0 0 0 0 0 0 0 0 0 0 127 0" result="hardAlpha"/>
<feOffset/>
<feGaussianBlur stdDeviation="2.80803"/>
<feColorMatrix type="matrix" values="0 0 0 0 0.176471 0 0 0 0 0.890196 0 0 0 0 0.890196 0 0 0 1 0"/>
<feBlend mode="normal" in2="effect2_dropShadow_252_2870" result="effect3_dropShadow_252_2870"/>
<feColorMatrix in="SourceAlpha" type="matrix" values="0 0 0 0 0 0 0 0 0 0 0 0 0 0 0 0 0 0 127 0" result="hardAlpha"/>
<feOffset/>
<feGaussianBlur stdDeviation="5.61605"/>
<feColorMatrix type="matrix" values="0 0 0 0 0.176471 0 0 0 0 0.890196 0 0 0 0 0.890196 0 0 0 1 0"/>
<feBlend mode="normal" in2="effect3_dropShadow_252_2870" result="effect4_dropShadow_252_2870"/>
<feColorMatrix in="SourceAlpha" type="matrix" values="0 0 0 0 0 0 0 0 0 0 0 0 0 0 0 0 0 0 127 0" result="hardAlpha"/>
<feOffset/>
<feGaussianBlur stdDeviation="9.62752"/>
<feColorMatrix type="matrix" values="0 0 0 0 0.176471 0 0 0 0 0.890196 0 0 0 0 0.890196 0 0 0 1 0"/>
<feBlend mode="normal" in2="effect4_dropShadow_252_2870" result="effect5_dropShadow_252_2870"/>
<feColorMatrix in="SourceAlpha" type="matrix" values="0 0 0 0 0 0 0 0 0 0 0 0 0 0 0 0 0 0 127 0" result="hardAlpha"/>
<feOffset/>
<feGaussianBlur stdDeviation="16.8482"/>
<feColorMatrix type="matrix" values="0 0 0 0 0.176471 0 0 0 0 0.890196 0 0 0 0 0.890196 0 0 0 1 0"/>
<feBlend mode="normal" in2="effect5_dropShadow_252_2870" result="effect6_dropShadow_252_2870"/>
<feBlend mode="normal" in="SourceGraphic" in2="effect6_dropShadow_252_2870" result="shape"/>
</filter>
<linearGradient id="paint0_linear_252_2870" x1="2.51141" y1="79.1538" x2="72.1735" y2="78.5453" gradientUnits="userSpaceOnUse">
<stop stop-color="#2DE3E3"/>
<stop offset="1" stop-color="#0A81BE"/>
</linearGradient>
<linearGradient id="paint1_linear_252_2870" x1="60.5971" y1="125.426" x2="111.339" y2="83.9343" gradientUnits="userSpaceOnUse">
<stop stop-color="#2DE3E3"/>
<stop offset="1" stop-color="#0A81BE"/>
</linearGradient>
<linearGradient id="paint2_linear_252_2870" x1="167.591" y1="73.1957" x2="222.974" y2="72.8553" gradientUnits="userSpaceOnUse">
<stop stop-color="#2DE3E3"/>
<stop offset="1" stop-color="#0A81BE"/>
</linearGradient>
<linearGradient id="paint3_linear_252_2870" x1="178.827" y1="109.843" x2="202.847" y2="105.161" gradientUnits="userSpaceOnUse">
<stop stop-color="#2DE3E3"/>
<stop offset="1" stop-color="#0A81BE"/>
</linearGradient>
<linearGradient id="paint4_linear_252_2870" x1="211.53" y1="104.301" x2="222.394" y2="104.202" gradientUnits="userSpaceOnUse">
<stop stop-color="#2DE3E3"/>
<stop offset="1" stop-color="#0A81BE"/>
</linearGradient>
<linearGradient id="paint5_linear_252_2870" x1="215.129" y1="106.535" x2="222.338" y2="106.439" gradientUnits="userSpaceOnUse">
<stop stop-color="#2DE3E3"/>
<stop offset="1" stop-color="#0A81BE"/>
</linearGradient>
<linearGradient id="paint6_linear_252_2870" x1="178.827" y1="124.8" x2="202.847" y2="120.118" gradientUnits="userSpaceOnUse">
<stop stop-color="#2DE3E3"/>
<stop offset="1" stop-color="#0A81BE"/>
</linearGradient>
<linearGradient id="paint7_linear_252_2870" x1="211.53" y1="119.258" x2="222.394" y2="119.159" gradientUnits="userSpaceOnUse">
<stop stop-color="#2DE3E3"/>
<stop offset="1" stop-color="#0A81BE"/>
</linearGradient>
<linearGradient id="paint8_linear_252_2870" x1="178.827" y1="139.761" x2="202.847" y2="135.079" gradientUnits="userSpaceOnUse">
<stop stop-color="#2DE3E3"/>
<stop offset="1" stop-color="#0A81BE"/>
</linearGradient>
<linearGradient id="paint9_linear_252_2870" x1="211.53" y1="134.219" x2="222.394" y2="134.12" gradientUnits="userSpaceOnUse">
<stop stop-color="#2DE3E3"/>
<stop offset="1" stop-color="#0A81BE"/>
</linearGradient>
</defs>
</svg>
