<svg width="100" height="100" viewBox="0 0 100 100" fill="none" xmlns="http://www.w3.org/2000/svg">
<g clip-path="url(#clip0_252_1351)">
<path d="M11.9215 24.2369C11.9215 15.8409 18.7278 9.03465 27.1237 9.03465C35.5196 9.03465 42.3258 15.8409 42.3258 24.2369C42.3258 32.6328 35.5196 39.4391 27.1237 39.4391C18.7278 39.4391 11.9215 32.6328 11.9215 24.2369Z" stroke="url(#paint0_linear_252_1351)" stroke-width="1.09059"/>
<mask id="path-2-inside-1_252_1351" fill="white">
<path d="M17.1471 19.4142C15.9896 21.8094 15.7326 24.5411 16.4229 27.1102C17.1132 29.6792 18.7049 31.9141 20.907 33.4065C23.1092 34.8989 25.7748 35.5492 28.4168 35.2384C31.0587 34.9277 33.5007 33.6767 35.2965 31.7141C37.0923 29.7515 38.122 27.2082 38.1974 24.5491C38.2729 21.89 37.389 19.2925 35.7074 17.2312C34.0258 15.1699 31.6586 13.7826 29.0385 13.3225C26.4184 12.8625 23.7202 13.3606 21.437 14.7258L21.7271 15.211C23.8938 13.9155 26.4543 13.4429 28.9407 13.8794C31.4272 14.316 33.6735 15.6325 35.2693 17.5886C36.8651 19.5447 37.7039 22.0096 37.6323 24.5331C37.5607 27.0565 36.5835 29.47 34.8794 31.3324C33.1753 33.1949 30.8579 34.382 28.3507 34.6769C25.8436 34.9718 23.314 34.3547 21.2242 32.9385C19.1345 31.5223 17.624 29.4014 16.9689 26.9634C16.3138 24.5255 16.5577 21.9332 17.6562 19.6602L17.1471 19.4142Z"/>
</mask>
<path d="M17.1471 19.4142C15.9896 21.8094 15.7326 24.5411 16.4229 27.1102C17.1132 29.6792 18.7049 31.9141 20.907 33.4065C23.1092 34.8989 25.7748 35.5492 28.4168 35.2384C31.0587 34.9277 33.5007 33.6767 35.2965 31.7141C37.0923 29.7515 38.122 27.2082 38.1974 24.5491C38.2729 21.89 37.389 19.2925 35.7074 17.2312C34.0258 15.1699 31.6586 13.7826 29.0385 13.3225C26.4184 12.8625 23.7202 13.3606 21.437 14.7258L21.7271 15.211C23.8938 13.9155 26.4543 13.4429 28.9407 13.8794C31.4272 14.316 33.6735 15.6325 35.2693 17.5886C36.8651 19.5447 37.7039 22.0096 37.6323 24.5331C37.5607 27.0565 36.5835 29.47 34.8794 31.3324C33.1753 33.1949 30.8579 34.382 28.3507 34.6769C25.8436 34.9718 23.314 34.3547 21.2242 32.9385C19.1345 31.5223 17.624 29.4014 16.9689 26.9634C16.3138 24.5255 16.5577 21.9332 17.6562 19.6602L17.1471 19.4142Z" stroke="url(#paint1_linear_252_1351)" stroke-width="0.950503" mask="url(#path-2-inside-1_252_1351)"/>
<path d="M48.0195 25.9336H81.8733V46.9835" stroke="url(#paint2_linear_252_1351)" stroke-width="0.679977" stroke-linecap="round" stroke-dasharray="3.4 3.4"/>
<path d="M86.6848 61.6578C86.6848 65.6099 83.481 68.8137 79.5289 68.8137C75.5767 68.8137 72.3729 65.6099 72.3729 61.6578C72.3729 57.7057 75.5767 54.5018 79.5289 54.5018C83.481 54.5018 86.6848 57.7057 86.6848 61.6578Z" stroke="url(#paint3_linear_252_1351)" stroke-width="0.808358"/>
<mask id="path-5-inside-2_252_1351" fill="white">
<path d="M66.2526 84.6569C66.2526 82.8677 66.596 81.096 67.2632 79.4431C67.9304 77.7901 68.9083 76.2881 70.1411 75.023C71.3739 73.7579 72.8374 72.7543 74.4481 72.0696C76.0589 71.3849 77.7852 71.0325 79.5287 71.0325C81.2721 71.0325 82.9985 71.3849 84.6092 72.0696C86.2199 72.7543 87.6834 73.7579 88.9162 75.023C90.149 76.2881 91.1269 77.7901 91.7941 79.4431C92.4613 81.096 92.8047 82.8677 92.8047 84.6569L92.1369 84.6569C92.1369 82.9577 91.8108 81.2752 91.1771 79.7053C90.5435 78.1355 89.6148 76.7091 88.444 75.5076C87.2732 74.3061 85.8833 73.353 84.3536 72.7028C82.8239 72.0525 81.1844 71.7178 79.5287 71.7178C77.8729 71.7178 76.2334 72.0525 74.7037 72.7028C73.174 73.353 71.7841 74.3061 70.6133 75.5076C69.4425 76.7091 68.5138 78.1355 67.8802 79.7053C67.2466 81.2752 66.9204 82.9577 66.9204 84.6569L66.2526 84.6569Z"/>
</mask>
<path d="M66.2526 84.6569C66.2526 82.8677 66.596 81.096 67.2632 79.4431C67.9304 77.7901 68.9083 76.2881 70.1411 75.023C71.3739 73.7579 72.8374 72.7543 74.4481 72.0696C76.0589 71.3849 77.7852 71.0325 79.5287 71.0325C81.2721 71.0325 82.9985 71.3849 84.6092 72.0696C86.2199 72.7543 87.6834 73.7579 88.9162 75.023C90.149 76.2881 91.1269 77.7901 91.7941 79.4431C92.4613 81.096 92.8047 82.8677 92.8047 84.6569L92.1369 84.6569C92.1369 82.9577 91.8108 81.2752 91.1771 79.7053C90.5435 78.1355 89.6148 76.7091 88.444 75.5076C87.2732 74.3061 85.8833 73.353 84.3536 72.7028C82.8239 72.0525 81.1844 71.7178 79.5287 71.7178C77.8729 71.7178 76.2334 72.0525 74.7037 72.7028C73.174 73.353 71.7841 74.3061 70.6133 75.5076C69.4425 76.7091 68.5138 78.1355 67.8802 79.7053C67.2466 81.2752 66.9204 82.9577 66.9204 84.6569L66.2526 84.6569Z" stroke="url(#paint4_linear_252_1351)" stroke-width="1.61672" mask="url(#path-5-inside-2_252_1351)"/>
<path d="M25.0195 46.4727V68.8383H63.3434" stroke="url(#paint5_linear_252_1351)" stroke-width="0.679977" stroke-linecap="round" stroke-dasharray="3.4 3.4"/>
<g filter="url(#filter0_dddddd_252_1351)">
<ellipse cx="25.4226" cy="68.8367" rx="1.69994" ry="1.69994" fill="#2DE3E3" fill-opacity="0.8"/>
</g>
<g filter="url(#filter1_dddddd_252_1351)">
<ellipse cx="81.8718" cy="25.9343" rx="1.69994" ry="1.69994" fill="#2DE3E3" fill-opacity="0.8"/>
</g>
</g>
<defs>
<filter id="filter0_dddddd_252_1351" x="-4.60783" y="38.8062" width="60.0594" height="60.0594" filterUnits="userSpaceOnUse" color-interpolation-filters="sRGB">
<feFlood flood-opacity="0" result="BackgroundImageFix"/>
<feColorMatrix in="SourceAlpha" type="matrix" values="0 0 0 0 0 0 0 0 0 0 0 0 0 0 0 0 0 0 127 0" result="hardAlpha"/>
<feOffset/>
<feGaussianBlur stdDeviation="0.337268"/>
<feColorMatrix type="matrix" values="0 0 0 0 0.176471 0 0 0 0 0.890196 0 0 0 0 0.890196 0 0 0 1 0"/>
<feBlend mode="normal" in2="BackgroundImageFix" result="effect1_dropShadow_252_1351"/>
<feColorMatrix in="SourceAlpha" type="matrix" values="0 0 0 0 0 0 0 0 0 0 0 0 0 0 0 0 0 0 127 0" result="hardAlpha"/>
<feOffset/>
<feGaussianBlur stdDeviation="0.674535"/>
<feColorMatrix type="matrix" values="0 0 0 0 0.176471 0 0 0 0 0.890196 0 0 0 0 0.890196 0 0 0 1 0"/>
<feBlend mode="normal" in2="effect1_dropShadow_252_1351" result="effect2_dropShadow_252_1351"/>
<feColorMatrix in="SourceAlpha" type="matrix" values="0 0 0 0 0 0 0 0 0 0 0 0 0 0 0 0 0 0 127 0" result="hardAlpha"/>
<feOffset/>
<feGaussianBlur stdDeviation="2.36087"/>
<feColorMatrix type="matrix" values="0 0 0 0 0.176471 0 0 0 0 0.890196 0 0 0 0 0.890196 0 0 0 1 0"/>
<feBlend mode="normal" in2="effect2_dropShadow_252_1351" result="effect3_dropShadow_252_1351"/>
<feColorMatrix in="SourceAlpha" type="matrix" values="0 0 0 0 0 0 0 0 0 0 0 0 0 0 0 0 0 0 127 0" result="hardAlpha"/>
<feOffset/>
<feGaussianBlur stdDeviation="4.72175"/>
<feColorMatrix type="matrix" values="0 0 0 0 0.176471 0 0 0 0 0.890196 0 0 0 0 0.890196 0 0 0 1 0"/>
<feBlend mode="normal" in2="effect3_dropShadow_252_1351" result="effect4_dropShadow_252_1351"/>
<feColorMatrix in="SourceAlpha" type="matrix" values="0 0 0 0 0 0 0 0 0 0 0 0 0 0 0 0 0 0 127 0" result="hardAlpha"/>
<feOffset/>
<feGaussianBlur stdDeviation="8.09443"/>
<feColorMatrix type="matrix" values="0 0 0 0 0.176471 0 0 0 0 0.890196 0 0 0 0 0.890196 0 0 0 1 0"/>
<feBlend mode="normal" in2="effect4_dropShadow_252_1351" result="effect5_dropShadow_252_1351"/>
<feColorMatrix in="SourceAlpha" type="matrix" values="0 0 0 0 0 0 0 0 0 0 0 0 0 0 0 0 0 0 127 0" result="hardAlpha"/>
<feOffset/>
<feGaussianBlur stdDeviation="14.1652"/>
<feColorMatrix type="matrix" values="0 0 0 0 0.176471 0 0 0 0 0.890196 0 0 0 0 0.890196 0 0 0 1 0"/>
<feBlend mode="normal" in2="effect5_dropShadow_252_1351" result="effect6_dropShadow_252_1351"/>
<feBlend mode="normal" in="SourceGraphic" in2="effect6_dropShadow_252_1351" result="shape"/>
</filter>
<filter id="filter1_dddddd_252_1351" x="51.8414" y="-4.09611" width="60.0594" height="60.0594" filterUnits="userSpaceOnUse" color-interpolation-filters="sRGB">
<feFlood flood-opacity="0" result="BackgroundImageFix"/>
<feColorMatrix in="SourceAlpha" type="matrix" values="0 0 0 0 0 0 0 0 0 0 0 0 0 0 0 0 0 0 127 0" result="hardAlpha"/>
<feOffset/>
<feGaussianBlur stdDeviation="0.337268"/>
<feColorMatrix type="matrix" values="0 0 0 0 0.176471 0 0 0 0 0.890196 0 0 0 0 0.890196 0 0 0 1 0"/>
<feBlend mode="normal" in2="BackgroundImageFix" result="effect1_dropShadow_252_1351"/>
<feColorMatrix in="SourceAlpha" type="matrix" values="0 0 0 0 0 0 0 0 0 0 0 0 0 0 0 0 0 0 127 0" result="hardAlpha"/>
<feOffset/>
<feGaussianBlur stdDeviation="0.674535"/>
<feColorMatrix type="matrix" values="0 0 0 0 0.176471 0 0 0 0 0.890196 0 0 0 0 0.890196 0 0 0 1 0"/>
<feBlend mode="normal" in2="effect1_dropShadow_252_1351" result="effect2_dropShadow_252_1351"/>
<feColorMatrix in="SourceAlpha" type="matrix" values="0 0 0 0 0 0 0 0 0 0 0 0 0 0 0 0 0 0 127 0" result="hardAlpha"/>
<feOffset/>
<feGaussianBlur stdDeviation="2.36087"/>
<feColorMatrix type="matrix" values="0 0 0 0 0.176471 0 0 0 0 0.890196 0 0 0 0 0.890196 0 0 0 1 0"/>
<feBlend mode="normal" in2="effect2_dropShadow_252_1351" result="effect3_dropShadow_252_1351"/>
<feColorMatrix in="SourceAlpha" type="matrix" values="0 0 0 0 0 0 0 0 0 0 0 0 0 0 0 0 0 0 127 0" result="hardAlpha"/>
<feOffset/>
<feGaussianBlur stdDeviation="4.72175"/>
<feColorMatrix type="matrix" values="0 0 0 0 0.176471 0 0 0 0 0.890196 0 0 0 0 0.890196 0 0 0 1 0"/>
<feBlend mode="normal" in2="effect3_dropShadow_252_1351" result="effect4_dropShadow_252_1351"/>
<feColorMatrix in="SourceAlpha" type="matrix" values="0 0 0 0 0 0 0 0 0 0 0 0 0 0 0 0 0 0 127 0" result="hardAlpha"/>
<feOffset/>
<feGaussianBlur stdDeviation="8.09443"/>
<feColorMatrix type="matrix" values="0 0 0 0 0.176471 0 0 0 0 0.890196 0 0 0 0 0.890196 0 0 0 1 0"/>
<feBlend mode="normal" in2="effect4_dropShadow_252_1351" result="effect5_dropShadow_252_1351"/>
<feColorMatrix in="SourceAlpha" type="matrix" values="0 0 0 0 0 0 0 0 0 0 0 0 0 0 0 0 0 0 127 0" result="hardAlpha"/>
<feOffset/>
<feGaussianBlur stdDeviation="14.1652"/>
<feColorMatrix type="matrix" values="0 0 0 0 0.176471 0 0 0 0 0.890196 0 0 0 0 0.890196 0 0 0 1 0"/>
<feBlend mode="normal" in2="effect5_dropShadow_252_1351" result="effect6_dropShadow_252_1351"/>
<feBlend mode="normal" in="SourceGraphic" in2="effect6_dropShadow_252_1351" result="shape"/>
</filter>
<linearGradient id="paint0_linear_252_1351" x1="48.2746" y1="39.9844" x2="7.90883" y2="40.4841" gradientUnits="userSpaceOnUse">
<stop stop-color="#2DE3E3"/>
<stop offset="1" stop-color="#0A81BE"/>
</linearGradient>
<linearGradient id="paint1_linear_252_1351" x1="35.7003" y1="40.6854" x2="9.97687" y2="28.6448" gradientUnits="userSpaceOnUse">
<stop stop-color="#2DE3E3"/>
<stop offset="1" stop-color="#0A81BE"/>
</linearGradient>
<linearGradient id="paint2_linear_252_1351" x1="42.2113" y1="25.9336" x2="85.5899" y2="25.0699" gradientUnits="userSpaceOnUse">
<stop stop-color="#2DE3E3"/>
<stop offset="1" stop-color="#0A81BE"/>
</linearGradient>
<linearGradient id="paint3_linear_252_1351" x1="69.3746" y1="54.0977" x2="88.7536" y2="53.8578" gradientUnits="userSpaceOnUse">
<stop stop-color="#2DE3E3"/>
<stop offset="1" stop-color="#0A81BE"/>
</linearGradient>
<linearGradient id="paint4_linear_252_1351" x1="97.3602" y1="98.2812" x2="63.3291" y2="98.6918" gradientUnits="userSpaceOnUse">
<stop stop-color="#2DE3E3"/>
<stop offset="1" stop-color="#0A81BE"/>
</linearGradient>
<linearGradient id="paint5_linear_252_1351" x1="18.4444" y1="46.4727" x2="67.548" y2="45.431" gradientUnits="userSpaceOnUse">
<stop stop-color="#2DE3E3"/>
<stop offset="1" stop-color="#0A81BE"/>
</linearGradient>
<clipPath id="clip0_252_1351">
<rect width="100" height="100" fill="white"/>
</clipPath>
</defs>
</svg>
