<svg width="100" height="100" viewBox="0 0 100 100" fill="none" xmlns="http://www.w3.org/2000/svg">
<g clip-path="url(#clip0_252_1446)">
<path fill-rule="evenodd" clip-rule="evenodd" d="M88.3711 15.6023V77.635C88.3711 79.3852 86.9523 80.804 85.2021 80.804C83.4519 80.804 82.0331 79.3852 82.0331 77.635V15.6023C82.0331 13.8521 83.4519 12.4333 85.2021 12.4333C86.9523 12.4333 88.3711 13.8521 88.3711 15.6023ZM81.0551 14.2754C81.1798 14.1881 81.2731 14.064 81.3337 13.9243C81.9823 12.4311 83.4703 11.3867 85.2021 11.3867C87.5303 11.3867 89.4177 13.2741 89.4177 15.6023V38.8165C89.4177 39.2222 89.7425 39.5491 90.1439 39.6086C90.2007 39.617 90.2573 39.6262 90.3137 39.6363C91.5101 39.8491 92.6223 40.4235 93.4934 41.2945C94.6142 42.4154 95.2439 43.9356 95.2439 45.5208C95.2439 47.1059 94.6142 48.6262 93.4934 49.747C92.6223 50.6181 91.5101 51.1925 90.3137 51.4053C90.2573 51.4153 90.2007 51.4246 90.1439 51.433C89.7425 51.4925 89.4177 51.8193 89.4177 52.2251V77.635C89.4177 79.9632 87.5303 81.8506 85.2021 81.8506C83.0674 81.8506 81.3033 80.2639 81.0248 78.2056C80.9932 77.972 80.8762 77.7546 80.6812 77.6222L64.777 66.8287C64.6113 66.7162 64.4272 66.6335 64.2331 66.5844L45.3134 61.7949C45.2534 61.7797 45.1917 61.772 45.1299 61.772H42.8399C42.4916 61.772 42.1894 62.0124 42.1111 62.3518L41.0101 67.1224C40.7204 68.3779 39.6024 69.2673 38.3139 69.2673H31.5678C31.1548 69.2673 30.8199 69.6021 30.8199 70.0152V76.5906C30.8199 78.1189 29.581 79.3578 28.0528 79.3578H21.9241C20.6655 79.3578 19.5654 78.5083 19.247 77.2906L15.0876 61.3811V61.3811C15.0763 61.3379 15.0706 61.2934 15.0706 61.2487V61.2487V57.9857C15.0706 57.9779 15.0646 57.9714 15.0569 57.9707V57.9707C15.0485 57.9699 15.0424 57.9625 15.0433 57.9541L15.0706 57.6769V35.5596L15.0433 35.2824C15.0424 35.2741 15.0485 35.2666 15.0569 35.2658V35.2658C15.0646 35.2651 15.0706 35.2586 15.0706 35.2508V33.7975C15.0706 32.2693 16.3094 31.0304 17.8377 31.0304H45.1208C45.1862 31.0304 45.2513 31.0218 45.3145 31.0049L64.2265 25.9356C64.4204 25.8837 64.6037 25.7982 64.7681 25.683L81.0551 14.2754ZM89.4177 49.7587C89.4177 50.1805 89.7685 50.5244 90.1833 50.4472C91.1716 50.2634 92.0895 49.7849 92.8103 49.064C93.7501 48.1243 94.278 46.8498 94.278 45.5208C94.278 44.1918 93.7501 42.9173 92.8103 41.9776C92.0895 41.2567 91.1716 40.7782 90.1833 40.5943C89.7685 40.5172 89.4177 40.861 89.4177 41.2829V49.7587ZM16.8651 60.7255C16.452 60.7255 16.1171 60.3906 16.1171 59.9775V58.0453C16.1171 58.0336 16.1267 58.024 16.1384 58.0241V58.0241C16.1502 58.0241 16.1598 58.0146 16.1598 58.0028V57.5008V57.0736V56.9989C16.1598 56.9871 16.1502 56.9775 16.1384 56.9775V56.9775C16.1267 56.9775 16.1171 56.9679 16.1171 56.9561V55.194C16.1171 55.1822 16.1267 55.1726 16.1384 55.1726V55.1726C16.1502 55.1726 16.1598 55.1631 16.1598 55.1513V53.293C16.1598 53.2812 16.1502 53.2717 16.1384 53.2717V53.2717C16.1267 53.2717 16.1171 53.2621 16.1171 53.2504V51.392C16.1171 51.3802 16.1267 51.3707 16.1384 51.3707V51.3707C16.1502 51.3707 16.1598 51.3611 16.1598 51.3494V49.491C16.1598 49.4793 16.1502 49.4697 16.1384 49.4697V49.4697C16.1267 49.4697 16.1171 49.4602 16.1171 49.4484V47.5901C16.1171 47.5783 16.1267 47.5687 16.1384 47.5687V47.5687C16.1502 47.5687 16.1598 47.5592 16.1598 47.5474V46.6183L16.1598 45.6891C16.1598 45.6773 16.1502 45.6678 16.1384 45.6678V45.6678C16.1267 45.6678 16.1171 45.6582 16.1171 45.6464V43.7881C16.1171 43.7763 16.1267 43.7668 16.1384 43.7668V43.7668C16.1502 43.7668 16.1598 43.7572 16.1598 43.7455L16.1598 41.8871C16.1598 41.8754 16.1502 41.8658 16.1384 41.8658V41.8658C16.1267 41.8658 16.1171 41.8563 16.1171 41.8445V39.9862C16.1171 39.9744 16.1267 39.9648 16.1384 39.9648V39.9648C16.1502 39.9648 16.1598 39.9553 16.1598 39.9435L16.1598 38.0852C16.1598 38.0734 16.1502 38.0639 16.1384 38.0639V38.0639C16.1267 38.0639 16.1171 38.0543 16.1171 38.0425V36.2804C16.1171 36.2686 16.1267 36.259 16.1384 36.259V36.259C16.1502 36.259 16.1598 36.2494 16.1598 36.2376V36.1629V35.7357V35.2337C16.1598 35.2219 16.1502 35.2124 16.1384 35.2124V35.2124C16.1267 35.2125 16.1171 35.2029 16.1171 35.1912V33.7975C16.1171 32.8473 16.8874 32.077 17.8377 32.077H44.017C44.4301 32.077 44.765 32.4118 44.765 32.8249V59.9775C44.765 60.3906 44.4301 60.7255 44.017 60.7255H41.8286H30.2966H16.8651ZM80.9856 15.6018C80.986 15.6016 80.9865 15.6018 80.9865 15.6023V15.6023V75.1531C80.9865 75.7533 80.3152 76.109 79.8186 75.772L65.3647 65.9627C65.0982 65.7818 64.8021 65.6489 64.4899 65.5698L46.3759 60.9843C46.044 60.9003 45.8115 60.6016 45.8115 60.2592V32.529C45.8115 32.1905 46.0389 31.8942 46.3658 31.8066L64.4975 26.9465C64.8093 26.8629 65.1041 26.7254 65.3685 26.5402L80.9856 15.6018ZM20.2595 77.0258L16.5165 62.7092C16.3926 62.2352 16.7502 61.772 17.2402 61.772H29.0254C29.4385 61.772 29.7733 62.1069 29.7733 62.52V68.744V76.5906C29.7733 77.5409 29.003 78.3112 28.0528 78.3112H21.9241C21.1415 78.3112 20.4575 77.783 20.2595 77.0258ZM31.5678 68.2207C31.1548 68.2207 30.8199 67.8858 30.8199 67.4727V62.52C30.8199 62.1069 31.1548 61.772 31.5678 61.772H40.2306C40.7116 61.772 41.0676 62.2195 40.9594 62.6882L39.9904 66.887C39.8102 67.6677 39.115 68.2207 38.3139 68.2207H31.5678ZM12.3517 35.8669C12.6241 35.7704 12.9168 35.9277 13.0007 36.2043V36.2043V36.2043C13.0846 36.4808 12.9279 36.7717 12.6559 36.8695C12.3461 36.9809 12.0417 37.1069 11.7439 37.2473C11.4825 37.3704 11.166 37.2755 11.0297 37.0207V37.0207V37.0207C10.8935 36.7658 10.9892 36.4476 11.2501 36.3232C11.6091 36.152 11.9768 35.9997 12.3517 35.8669ZM8.52722 38.1425C8.74196 37.9491 9.07258 37.9825 9.25593 38.2059V38.2059V38.2059C9.43927 38.4293 9.40582 38.758 9.19197 38.9524C9.07045 39.0629 8.9513 39.1765 8.83463 39.2931C8.71797 39.4098 8.60438 39.5289 8.49391 39.6505C8.29952 39.8643 7.97077 39.8978 7.74737 39.7144V39.7144V39.7144C7.52398 39.5311 7.49062 39.2005 7.68402 38.9857C7.81676 38.8383 7.95365 38.6941 8.0946 38.5531C8.23556 38.4121 8.37982 38.2753 8.52722 38.1425ZM5.86469 41.7086C5.98909 41.4477 6.3073 41.352 6.56218 41.4882V41.4882V41.4882C6.81705 41.6244 6.91196 41.941 6.78877 42.2024C6.64843 42.5002 6.52236 42.8046 6.411 43.1144C6.31325 43.3864 6.02232 43.5431 5.74576 43.4592V43.4592V43.4592C5.46921 43.3753 5.31187 43.0826 5.40837 42.8102C5.54117 42.4353 5.69349 42.0676 5.86469 41.7086ZM4.76948 46.022C4.78458 45.7334 5.04195 45.5232 5.32956 45.5515V45.5515V45.5515C5.61716 45.5799 5.82598 45.836 5.81222 46.1247C5.8044 46.2887 5.80046 46.4533 5.80046 46.6183C5.80046 46.7832 5.8044 46.9478 5.81222 47.1119C5.82598 47.4005 5.61716 47.6566 5.32956 47.685V47.685V47.685C5.04195 47.7133 4.78458 47.5031 4.76949 47.2145C4.75912 47.0164 4.75391 46.8176 4.75391 46.6183C4.75391 46.4189 4.75912 46.2201 4.76948 46.022ZM5.40836 50.4263C5.31187 50.1539 5.46921 49.8612 5.74576 49.7773V49.7773V49.7773C6.02232 49.6934 6.31325 49.8501 6.411 50.1221C6.52236 50.4319 6.64843 50.7363 6.78877 51.0341C6.91196 51.2955 6.81706 51.6121 6.56218 51.7483V51.7483V51.7483C6.3073 51.8845 5.98908 51.7888 5.86469 51.528C5.69348 51.1689 5.54116 50.8012 5.40836 50.4263ZM7.74737 53.5221C7.52398 53.7054 7.49062 54.036 7.68402 54.2508C7.81676 54.3982 7.95365 54.5425 8.0946 54.6834C8.23556 54.8244 8.37982 54.9613 8.52722 55.094C8.74196 55.2874 9.07258 55.254 9.25593 55.0306V55.0306V55.0306C9.43927 54.8072 9.40582 54.4785 9.19197 54.2841C9.07045 54.1736 8.9513 54.06 8.83463 53.9434C8.71797 53.8267 8.60438 53.7076 8.49391 53.586C8.29952 53.3722 7.97076 53.3387 7.74737 53.5221V53.5221V53.5221ZM11.2501 56.9133C10.9892 56.7889 10.8935 56.4707 11.0297 56.2158V56.2158V56.2158C11.166 55.961 11.4825 55.8661 11.7439 55.9892C12.0417 56.1296 12.3461 56.2557 12.6559 56.367C12.9279 56.4648 13.0846 56.7557 13.0007 57.0323V57.0323V57.0323C12.9168 57.3088 12.6241 57.4661 12.3517 57.3697C11.9768 57.2369 11.6091 57.0845 11.2501 56.9133Z" fill="url(#paint0_linear_252_1446)"/>
<path d="M21.7617 42.5586V49.2795M28.9216 42.5586V49.2795M35.6427 42.5586V49.2795" stroke="url(#paint1_linear_252_1446)" stroke-width="1.04656"/>
<g filter="url(#filter0_dddddd_252_1446)">
<ellipse cx="88.9184" cy="45.223" rx="1.91835" ry="1.91835" fill="#2DE3E3" fill-opacity="0.8"/>
</g>
</g>
<defs>
<filter id="filter0_dddddd_252_1446" x="55.0296" y="11.3343" width="67.7766" height="67.7766" filterUnits="userSpaceOnUse" color-interpolation-filters="sRGB">
<feFlood flood-opacity="0" result="BackgroundImageFix"/>
<feColorMatrix in="SourceAlpha" type="matrix" values="0 0 0 0 0 0 0 0 0 0 0 0 0 0 0 0 0 0 127 0" result="hardAlpha"/>
<feOffset/>
<feGaussianBlur stdDeviation="0.380599"/>
<feColorMatrix type="matrix" values="0 0 0 0 0.176471 0 0 0 0 0.890196 0 0 0 0 0.890196 0 0 0 1 0"/>
<feBlend mode="normal" in2="BackgroundImageFix" result="effect1_dropShadow_252_1446"/>
<feColorMatrix in="SourceAlpha" type="matrix" values="0 0 0 0 0 0 0 0 0 0 0 0 0 0 0 0 0 0 127 0" result="hardAlpha"/>
<feOffset/>
<feGaussianBlur stdDeviation="0.761199"/>
<feColorMatrix type="matrix" values="0 0 0 0 0.176471 0 0 0 0 0.890196 0 0 0 0 0.890196 0 0 0 1 0"/>
<feBlend mode="normal" in2="effect1_dropShadow_252_1446" result="effect2_dropShadow_252_1446"/>
<feColorMatrix in="SourceAlpha" type="matrix" values="0 0 0 0 0 0 0 0 0 0 0 0 0 0 0 0 0 0 127 0" result="hardAlpha"/>
<feOffset/>
<feGaussianBlur stdDeviation="2.6642"/>
<feColorMatrix type="matrix" values="0 0 0 0 0.176471 0 0 0 0 0.890196 0 0 0 0 0.890196 0 0 0 1 0"/>
<feBlend mode="normal" in2="effect2_dropShadow_252_1446" result="effect3_dropShadow_252_1446"/>
<feColorMatrix in="SourceAlpha" type="matrix" values="0 0 0 0 0 0 0 0 0 0 0 0 0 0 0 0 0 0 127 0" result="hardAlpha"/>
<feOffset/>
<feGaussianBlur stdDeviation="5.32839"/>
<feColorMatrix type="matrix" values="0 0 0 0 0.176471 0 0 0 0 0.890196 0 0 0 0 0.890196 0 0 0 1 0"/>
<feBlend mode="normal" in2="effect3_dropShadow_252_1446" result="effect4_dropShadow_252_1446"/>
<feColorMatrix in="SourceAlpha" type="matrix" values="0 0 0 0 0 0 0 0 0 0 0 0 0 0 0 0 0 0 127 0" result="hardAlpha"/>
<feOffset/>
<feGaussianBlur stdDeviation="9.13439"/>
<feColorMatrix type="matrix" values="0 0 0 0 0.176471 0 0 0 0 0.890196 0 0 0 0 0.890196 0 0 0 1 0"/>
<feBlend mode="normal" in2="effect4_dropShadow_252_1446" result="effect5_dropShadow_252_1446"/>
<feColorMatrix in="SourceAlpha" type="matrix" values="0 0 0 0 0 0 0 0 0 0 0 0 0 0 0 0 0 0 127 0" result="hardAlpha"/>
<feOffset/>
<feGaussianBlur stdDeviation="15.9852"/>
<feColorMatrix type="matrix" values="0 0 0 0 0.176471 0 0 0 0 0.890196 0 0 0 0 0.890196 0 0 0 1 0"/>
<feBlend mode="normal" in2="effect5_dropShadow_252_1446" result="effect6_dropShadow_252_1446"/>
<feBlend mode="normal" in="SourceGraphic" in2="effect6_dropShadow_252_1446" result="shape"/>
</filter>
<linearGradient id="paint0_linear_252_1446" x1="-10.7713" y1="11.3867" x2="105.195" y2="9.54311" gradientUnits="userSpaceOnUse">
<stop stop-color="#2DE3E3"/>
<stop offset="1" stop-color="#0A81BE"/>
</linearGradient>
<linearGradient id="paint1_linear_252_1446" x1="19.3802" y1="42.5586" x2="37.162" y2="42.1039" gradientUnits="userSpaceOnUse">
<stop stop-color="#2DE3E3"/>
<stop offset="1" stop-color="#0A81BE"/>
</linearGradient>
<clipPath id="clip0_252_1446">
<rect width="100" height="100" fill="white"/>
</clipPath>
</defs>
</svg>
