<svg width="100" height="100" viewBox="0 0 100 100" fill="none" xmlns="http://www.w3.org/2000/svg">
<g clip-path="url(#clip0_252_1363)">
<rect x="5.96216" y="17.6653" width="43.5574" height="33.0518" rx="3.19309" stroke="url(#paint0_linear_252_1363)" stroke-width="0.580562"/>
<circle cx="20.1794" cy="34.1911" r="4.47115" stroke="url(#paint1_linear_252_1363)" stroke-width="0.580562"/>
<rect x="31.0364" y="32.47" width="10.0759" height="3.44042" rx="1.72021" stroke="url(#paint2_linear_252_1363)" stroke-width="0.580562"/>
<g filter="url(#filter0_dddddd_252_1363)">
<ellipse cx="20.1803" cy="34.1921" rx="1.14909" ry="1.14909" fill="#2DE3E3" fill-opacity="0.8"/>
</g>
<circle cx="76.4103" cy="68.1288" r="19.1914" transform="rotate(90 76.4103 68.1288)" stroke="url(#paint3_linear_252_1363)" stroke-width="0.984173"/>
<path d="M76.1855 66.0405C76.3826 66.1969 76.6692 66.164 76.8256 65.9669C76.9821 65.7698 76.9491 65.4832 76.752 65.3267L76.1855 66.0405ZM75.157 64.0605C74.9599 63.9041 74.6733 63.937 74.5168 64.1341C74.3603 64.3312 74.3933 64.6178 74.5904 64.7743L75.157 64.0605ZM71.4003 62.2419C71.5974 62.3983 71.884 62.3654 72.0404 62.1683C72.1969 61.9712 72.164 61.6846 71.9669 61.5281L71.4003 62.2419ZM68.7767 58.9957C68.5796 58.8393 68.293 58.8722 68.1366 59.0693C67.9801 59.2664 68.013 59.553 68.2101 59.7095L68.7767 58.9957ZM65.02 57.1771C65.2171 57.3336 65.5037 57.3006 65.6602 57.1035C65.8166 56.9064 65.7837 56.6198 65.5866 56.4634L65.02 57.1771ZM62.3965 53.931C62.1994 53.7745 61.9128 53.8075 61.7563 54.0046C61.5998 54.2016 61.6328 54.4883 61.8299 54.6447L62.3965 53.931ZM58.6397 52.1123C58.8368 52.2688 59.1235 52.2359 59.2799 52.0388C59.4364 51.8417 59.4034 51.555 59.2063 51.3986L58.6397 52.1123ZM56.0162 48.8662C55.8191 48.7097 55.5325 48.7427 55.376 48.9398C55.2196 49.1369 55.2525 49.4235 55.4496 49.5799L56.0162 48.8662ZM52.2595 47.0476C52.4566 47.204 52.7432 47.1711 52.8997 46.974C53.0561 46.7769 53.0232 46.4903 52.8261 46.3338L52.2595 47.0476ZM49.636 43.8014C49.4389 43.645 49.1522 43.6779 48.9958 43.875C48.8393 44.0721 48.8723 44.3587 49.0694 44.5152L49.636 43.8014ZM45.8792 41.9828C46.0763 42.1392 46.3629 42.1063 46.5194 41.9092C46.6759 41.7121 46.6429 41.4255 46.4458 41.269L45.8792 41.9828ZM76.752 65.3267L75.157 64.0605L74.5904 64.7743L76.1855 66.0405L76.752 65.3267ZM71.9669 61.5281L68.7767 58.9957L68.2101 59.7095L71.4003 62.2419L71.9669 61.5281ZM65.5866 56.4634L62.3965 53.931L61.8299 54.6447L65.02 57.1771L65.5866 56.4634ZM59.2063 51.3986L56.0162 48.8662L55.4496 49.5799L58.6397 52.1123L59.2063 51.3986ZM52.8261 46.3338L49.636 43.8014L49.0694 44.5152L52.2595 47.0476L52.8261 46.3338ZM46.4458 41.269L44.8508 40.0028L44.2842 40.7166L45.8792 41.9828L46.4458 41.269Z" fill="url(#paint4_linear_252_1363)"/>
<path d="M46.6464 42.5952C46.8435 42.7516 47.1301 42.7187 47.2866 42.5216C47.443 42.3245 47.4101 42.0379 47.213 41.8814L46.6464 42.5952ZM42.7423 38.5029C42.4923 38.5316 42.3129 38.7576 42.3417 39.0076L42.8099 43.0816C42.8387 43.3316 43.0646 43.511 43.3146 43.4823C43.5646 43.4535 43.744 43.2276 43.7153 42.9776L43.299 39.3562L46.9204 38.94C47.1704 38.9112 47.3498 38.6853 47.321 38.4353C47.2923 38.1853 47.0663 38.0059 46.8163 38.0346L42.7423 38.5029ZM47.213 41.8814L43.0776 38.5987L42.511 39.3124L46.6464 42.5952L47.213 41.8814Z" fill="url(#paint5_linear_252_1363)"/>
<g filter="url(#filter1_dddddd_252_1363)">
<ellipse cx="78.3824" cy="66.7604" rx="2.43014" ry="2.43014" transform="rotate(85.7339 78.3824 66.7604)" fill="#2DE3E3" fill-opacity="0.8"/>
</g>
<path d="M37.5243 46.7681C37.325 46.6144 37.0389 46.6514 36.8852 46.8507C36.7316 47.05 36.7686 47.3361 36.9679 47.4898L37.5243 46.7681ZM38.7227 48.8428C38.922 48.9965 39.2081 48.9595 39.3618 48.7602C39.5154 48.5609 39.4785 48.2748 39.2792 48.1211L38.7227 48.8428ZM42.7889 50.8272C42.5896 50.6735 42.3035 50.7105 42.1498 50.9098C41.9961 51.1091 42.0331 51.3952 42.2324 51.5489L42.7889 50.8272ZM45.7421 54.255C45.9414 54.4086 46.2275 54.3716 46.3812 54.1723C46.5348 53.9731 46.4979 53.6869 46.2986 53.5333L45.7421 54.255ZM49.8083 56.2394C49.609 56.0857 49.3229 56.1227 49.1692 56.322C49.0155 56.5213 49.0525 56.8074 49.2518 56.9611L49.8083 56.2394ZM52.7615 59.6671C52.9608 59.8208 53.2469 59.7838 53.4006 59.5845C53.5542 59.3852 53.5173 59.0991 53.318 58.9454L52.7615 59.6671ZM56.8277 61.6515C56.6284 61.4979 56.3423 61.5349 56.1886 61.7342C56.0349 61.9334 56.0719 62.2196 56.2712 62.3732L56.8277 61.6515ZM59.7809 65.0793C59.9802 65.233 60.2663 65.196 60.42 64.9967C60.5736 64.7974 60.5367 64.5113 60.3374 64.3576L59.7809 65.0793ZM63.8471 67.0637C63.6478 66.91 63.3617 66.947 63.208 67.1463C63.0543 67.3456 63.0913 67.6317 63.2906 67.7854L63.8471 67.0637ZM66.8003 70.4915C66.9996 70.6451 67.2857 70.6081 67.4394 70.4089C67.593 70.2096 67.5561 69.9234 67.3568 69.7698L66.8003 70.4915ZM70.8665 72.4759C70.6672 72.3222 70.3811 72.3592 70.2274 72.5585C70.0737 72.7578 70.1107 73.0439 70.31 73.1976L70.8665 72.4759ZM36.9679 47.4898L38.7227 48.8428L39.2792 48.1211L37.5243 46.7681L36.9679 47.4898ZM42.2324 51.5489L45.7421 54.255L46.2986 53.5333L42.7889 50.8272L42.2324 51.5489ZM49.2518 56.9611L52.7615 59.6671L53.318 58.9454L49.8083 56.2394L49.2518 56.9611ZM56.2712 62.3732L59.7809 65.0793L60.3374 64.3576L56.8277 61.6515L56.2712 62.3732ZM63.2906 67.7854L66.8003 70.4915L67.3568 69.7698L63.8471 67.0637L63.2906 67.7854ZM70.31 73.1976L72.0649 74.5506L72.6213 73.8289L70.8665 72.4759L70.31 73.1976Z" fill="url(#paint6_linear_252_1363)"/>
<path d="M70.0243 71.8227C69.825 71.6691 69.5389 71.7061 69.3852 71.9054C69.2316 72.1047 69.2686 72.3908 69.4679 72.5444L70.0243 71.8227ZM74.3541 76.1434C74.6037 76.1111 74.7799 75.8826 74.7476 75.6331L74.2218 71.5661C74.1895 71.3165 73.961 71.1403 73.7115 71.1726C73.4619 71.2048 73.2857 71.4333 73.318 71.6829L73.7854 75.298L70.1703 75.7654C69.9207 75.7977 69.7445 76.0261 69.7768 76.2757C69.8091 76.5253 70.0375 76.7014 70.2871 76.6692L74.3541 76.1434ZM69.4679 72.5444L74.0175 76.0523L74.5739 75.3306L70.0243 71.8227L69.4679 72.5444Z" fill="url(#paint7_linear_252_1363)"/>
<g filter="url(#filter2_dddddd_252_1363)">
<circle cx="35.3211" cy="45.6424" r="2.43014" transform="rotate(-142.367 35.3211 45.6424)" fill="#2DE3E3" fill-opacity="0.8"/>
</g>
</g>
<defs>
<filter id="filter0_dddddd_252_1363" x="-0.118904" y="13.8928" width="40.5972" height="40.5972" filterUnits="userSpaceOnUse" color-interpolation-filters="sRGB">
<feFlood flood-opacity="0" result="BackgroundImageFix"/>
<feColorMatrix in="SourceAlpha" type="matrix" values="0 0 0 0 0 0 0 0 0 0 0 0 0 0 0 0 0 0 127 0" result="hardAlpha"/>
<feOffset/>
<feGaussianBlur stdDeviation="0.227978"/>
<feColorMatrix type="matrix" values="0 0 0 0 0.176471 0 0 0 0 0.890196 0 0 0 0 0.890196 0 0 0 1 0"/>
<feBlend mode="normal" in2="BackgroundImageFix" result="effect1_dropShadow_252_1363"/>
<feColorMatrix in="SourceAlpha" type="matrix" values="0 0 0 0 0 0 0 0 0 0 0 0 0 0 0 0 0 0 127 0" result="hardAlpha"/>
<feOffset/>
<feGaussianBlur stdDeviation="0.455956"/>
<feColorMatrix type="matrix" values="0 0 0 0 0.176471 0 0 0 0 0.890196 0 0 0 0 0.890196 0 0 0 1 0"/>
<feBlend mode="normal" in2="effect1_dropShadow_252_1363" result="effect2_dropShadow_252_1363"/>
<feColorMatrix in="SourceAlpha" type="matrix" values="0 0 0 0 0 0 0 0 0 0 0 0 0 0 0 0 0 0 127 0" result="hardAlpha"/>
<feOffset/>
<feGaussianBlur stdDeviation="1.59585"/>
<feColorMatrix type="matrix" values="0 0 0 0 0.176471 0 0 0 0 0.890196 0 0 0 0 0.890196 0 0 0 1 0"/>
<feBlend mode="normal" in2="effect2_dropShadow_252_1363" result="effect3_dropShadow_252_1363"/>
<feColorMatrix in="SourceAlpha" type="matrix" values="0 0 0 0 0 0 0 0 0 0 0 0 0 0 0 0 0 0 127 0" result="hardAlpha"/>
<feOffset/>
<feGaussianBlur stdDeviation="3.19169"/>
<feColorMatrix type="matrix" values="0 0 0 0 0.176471 0 0 0 0 0.890196 0 0 0 0 0.890196 0 0 0 1 0"/>
<feBlend mode="normal" in2="effect3_dropShadow_252_1363" result="effect4_dropShadow_252_1363"/>
<feColorMatrix in="SourceAlpha" type="matrix" values="0 0 0 0 0 0 0 0 0 0 0 0 0 0 0 0 0 0 127 0" result="hardAlpha"/>
<feOffset/>
<feGaussianBlur stdDeviation="5.47147"/>
<feColorMatrix type="matrix" values="0 0 0 0 0.176471 0 0 0 0 0.890196 0 0 0 0 0.890196 0 0 0 1 0"/>
<feBlend mode="normal" in2="effect4_dropShadow_252_1363" result="effect5_dropShadow_252_1363"/>
<feColorMatrix in="SourceAlpha" type="matrix" values="0 0 0 0 0 0 0 0 0 0 0 0 0 0 0 0 0 0 127 0" result="hardAlpha"/>
<feOffset/>
<feGaussianBlur stdDeviation="9.57508"/>
<feColorMatrix type="matrix" values="0 0 0 0 0.176471 0 0 0 0 0.890196 0 0 0 0 0.890196 0 0 0 1 0"/>
<feBlend mode="normal" in2="effect5_dropShadow_252_1363" result="effect6_dropShadow_252_1363"/>
<feBlend mode="normal" in="SourceGraphic" in2="effect6_dropShadow_252_1363" result="shape"/>
</filter>
<filter id="filter1_dddddd_252_1363" x="44.0249" y="32.4038" width="68.7158" height="68.7158" filterUnits="userSpaceOnUse" color-interpolation-filters="sRGB">
<feFlood flood-opacity="0" result="BackgroundImageFix"/>
<feColorMatrix in="SourceAlpha" type="matrix" values="0 0 0 0 0 0 0 0 0 0 0 0 0 0 0 0 0 0 127 0" result="hardAlpha"/>
<feOffset/>
<feGaussianBlur stdDeviation="0.380098"/>
<feColorMatrix type="matrix" values="0 0 0 0 0.176471 0 0 0 0 0.890196 0 0 0 0 0.890196 0 0 0 1 0"/>
<feBlend mode="normal" in2="BackgroundImageFix" result="effect1_dropShadow_252_1363"/>
<feColorMatrix in="SourceAlpha" type="matrix" values="0 0 0 0 0 0 0 0 0 0 0 0 0 0 0 0 0 0 127 0" result="hardAlpha"/>
<feOffset/>
<feGaussianBlur stdDeviation="0.760196"/>
<feColorMatrix type="matrix" values="0 0 0 0 0.176471 0 0 0 0 0.890196 0 0 0 0 0.890196 0 0 0 1 0"/>
<feBlend mode="normal" in2="effect1_dropShadow_252_1363" result="effect2_dropShadow_252_1363"/>
<feColorMatrix in="SourceAlpha" type="matrix" values="0 0 0 0 0 0 0 0 0 0 0 0 0 0 0 0 0 0 127 0" result="hardAlpha"/>
<feOffset/>
<feGaussianBlur stdDeviation="2.66069"/>
<feColorMatrix type="matrix" values="0 0 0 0 0.176471 0 0 0 0 0.890196 0 0 0 0 0.890196 0 0 0 1 0"/>
<feBlend mode="normal" in2="effect2_dropShadow_252_1363" result="effect3_dropShadow_252_1363"/>
<feColorMatrix in="SourceAlpha" type="matrix" values="0 0 0 0 0 0 0 0 0 0 0 0 0 0 0 0 0 0 127 0" result="hardAlpha"/>
<feOffset/>
<feGaussianBlur stdDeviation="5.32137"/>
<feColorMatrix type="matrix" values="0 0 0 0 0.176471 0 0 0 0 0.890196 0 0 0 0 0.890196 0 0 0 1 0"/>
<feBlend mode="normal" in2="effect3_dropShadow_252_1363" result="effect4_dropShadow_252_1363"/>
<feColorMatrix in="SourceAlpha" type="matrix" values="0 0 0 0 0 0 0 0 0 0 0 0 0 0 0 0 0 0 127 0" result="hardAlpha"/>
<feOffset/>
<feGaussianBlur stdDeviation="9.12235"/>
<feColorMatrix type="matrix" values="0 0 0 0 0.176471 0 0 0 0 0.890196 0 0 0 0 0.890196 0 0 0 1 0"/>
<feBlend mode="normal" in2="effect4_dropShadow_252_1363" result="effect5_dropShadow_252_1363"/>
<feColorMatrix in="SourceAlpha" type="matrix" values="0 0 0 0 0 0 0 0 0 0 0 0 0 0 0 0 0 0 127 0" result="hardAlpha"/>
<feOffset/>
<feGaussianBlur stdDeviation="15.9641"/>
<feColorMatrix type="matrix" values="0 0 0 0 0.176471 0 0 0 0 0.890196 0 0 0 0 0.890196 0 0 0 1 0"/>
<feBlend mode="normal" in2="effect5_dropShadow_252_1363" result="effect6_dropShadow_252_1363"/>
<feBlend mode="normal" in="SourceGraphic" in2="effect6_dropShadow_252_1363" result="shape"/>
</filter>
<filter id="filter2_dddddd_252_1363" x="0.962395" y="11.2827" width="68.7158" height="68.7197" filterUnits="userSpaceOnUse" color-interpolation-filters="sRGB">
<feFlood flood-opacity="0" result="BackgroundImageFix"/>
<feColorMatrix in="SourceAlpha" type="matrix" values="0 0 0 0 0 0 0 0 0 0 0 0 0 0 0 0 0 0 127 0" result="hardAlpha"/>
<feOffset/>
<feGaussianBlur stdDeviation="0.380098"/>
<feColorMatrix type="matrix" values="0 0 0 0 0.176471 0 0 0 0 0.890196 0 0 0 0 0.890196 0 0 0 1 0"/>
<feBlend mode="normal" in2="BackgroundImageFix" result="effect1_dropShadow_252_1363"/>
<feColorMatrix in="SourceAlpha" type="matrix" values="0 0 0 0 0 0 0 0 0 0 0 0 0 0 0 0 0 0 127 0" result="hardAlpha"/>
<feOffset/>
<feGaussianBlur stdDeviation="0.760196"/>
<feColorMatrix type="matrix" values="0 0 0 0 0.176471 0 0 0 0 0.890196 0 0 0 0 0.890196 0 0 0 1 0"/>
<feBlend mode="normal" in2="effect1_dropShadow_252_1363" result="effect2_dropShadow_252_1363"/>
<feColorMatrix in="SourceAlpha" type="matrix" values="0 0 0 0 0 0 0 0 0 0 0 0 0 0 0 0 0 0 127 0" result="hardAlpha"/>
<feOffset/>
<feGaussianBlur stdDeviation="2.66069"/>
<feColorMatrix type="matrix" values="0 0 0 0 0.176471 0 0 0 0 0.890196 0 0 0 0 0.890196 0 0 0 1 0"/>
<feBlend mode="normal" in2="effect2_dropShadow_252_1363" result="effect3_dropShadow_252_1363"/>
<feColorMatrix in="SourceAlpha" type="matrix" values="0 0 0 0 0 0 0 0 0 0 0 0 0 0 0 0 0 0 127 0" result="hardAlpha"/>
<feOffset/>
<feGaussianBlur stdDeviation="5.32137"/>
<feColorMatrix type="matrix" values="0 0 0 0 0.176471 0 0 0 0 0.890196 0 0 0 0 0.890196 0 0 0 1 0"/>
<feBlend mode="normal" in2="effect3_dropShadow_252_1363" result="effect4_dropShadow_252_1363"/>
<feColorMatrix in="SourceAlpha" type="matrix" values="0 0 0 0 0 0 0 0 0 0 0 0 0 0 0 0 0 0 127 0" result="hardAlpha"/>
<feOffset/>
<feGaussianBlur stdDeviation="9.12235"/>
<feColorMatrix type="matrix" values="0 0 0 0 0.176471 0 0 0 0 0.890196 0 0 0 0 0.890196 0 0 0 1 0"/>
<feBlend mode="normal" in2="effect4_dropShadow_252_1363" result="effect5_dropShadow_252_1363"/>
<feColorMatrix in="SourceAlpha" type="matrix" values="0 0 0 0 0 0 0 0 0 0 0 0 0 0 0 0 0 0 127 0" result="hardAlpha"/>
<feOffset/>
<feGaussianBlur stdDeviation="15.9641"/>
<feColorMatrix type="matrix" values="0 0 0 0 0.176471 0 0 0 0 0.890196 0 0 0 0 0.890196 0 0 0 1 0"/>
<feBlend mode="normal" in2="effect5_dropShadow_252_1363" result="effect6_dropShadow_252_1363"/>
<feBlend mode="normal" in="SourceGraphic" in2="effect6_dropShadow_252_1363" result="shape"/>
</filter>
<linearGradient id="paint0_linear_252_1363" x1="-1.90082" y1="17.375" x2="54.663" y2="16.456" gradientUnits="userSpaceOnUse">
<stop stop-color="#2DE3E3"/>
<stop offset="1" stop-color="#0A81BE"/>
</linearGradient>
<linearGradient id="paint1_linear_252_1363" x1="13.7841" y1="29.4297" x2="25.9892" y2="29.2786" gradientUnits="userSpaceOnUse">
<stop stop-color="#2DE3E3"/>
<stop offset="1" stop-color="#0A81BE"/>
</linearGradient>
<linearGradient id="paint2_linear_252_1363" x1="28.9178" y1="32.1797" x2="42.5632" y2="31.732" gradientUnits="userSpaceOnUse">
<stop stop-color="#2DE3E3"/>
<stop offset="1" stop-color="#0A81BE"/>
</linearGradient>
<linearGradient id="paint3_linear_252_1363" x1="49.9727" y1="48.4453" x2="100.428" y2="47.8207" gradientUnits="userSpaceOnUse">
<stop stop-color="#2DE3E3"/>
<stop offset="1" stop-color="#0A81BE"/>
</linearGradient>
<linearGradient id="paint4_linear_252_1363" x1="81.942" y1="70.0284" x2="36.2882" y2="60.5866" gradientUnits="userSpaceOnUse">
<stop stop-color="#2DE3E3"/>
<stop offset="1" stop-color="#0A81BE"/>
</linearGradient>
<linearGradient id="paint5_linear_252_1363" x1="47.6392" y1="42.8015" x2="42.0869" y2="38.9564" gradientUnits="userSpaceOnUse">
<stop stop-color="#2DE3E3"/>
<stop offset="1" stop-color="#0A81BE"/>
</linearGradient>
<linearGradient id="paint6_linear_252_1363" x1="31.2245" y1="42.4861" x2="80.4333" y2="50.1766" gradientUnits="userSpaceOnUse">
<stop stop-color="#2DE3E3"/>
<stop offset="1" stop-color="#0A81BE"/>
</linearGradient>
<linearGradient id="paint7_linear_252_1363" x1="68.9655" y1="71.5818" x2="75.0863" y2="75.6431" gradientUnits="userSpaceOnUse">
<stop stop-color="#2DE3E3"/>
<stop offset="1" stop-color="#0A81BE"/>
</linearGradient>
<clipPath id="clip0_252_1363">
<rect width="100" height="100" fill="white"/>
</clipPath>
</defs>
</svg>
