<svg width="100" height="100" viewBox="0 0 100 100" fill="none" xmlns="http://www.w3.org/2000/svg">
<g clip-path="url(#clip0_252_1470)">
<path d="M23.6685 53.3738C23.6685 57.4306 20.3798 60.7193 16.323 60.7193C12.2661 60.7193 8.97741 57.4306 8.97741 53.3738C8.97741 49.3169 12.2661 46.0282 16.323 46.0282C20.3798 46.0282 23.6685 49.3169 23.6685 53.3738Z" stroke="url(#paint0_linear_252_1470)" stroke-width="0.595446"/>
<mask id="path-2-inside-1_252_1470" fill="white">
<path d="M2.89804 76.425C2.89804 72.7718 4.31215 69.2683 6.82928 66.6851C9.3464 64.1019 12.7604 62.6507 16.3201 62.6507C19.8799 62.6507 23.2938 64.1019 25.811 66.6851C28.3281 69.2683 29.7422 72.7718 29.7422 76.425L29.067 76.425C29.067 72.9556 27.7241 69.6283 25.3335 67.1751C22.943 64.7218 19.7008 63.3436 16.3201 63.3436C12.9394 63.3436 9.6972 64.7218 7.30669 67.1751C4.91618 69.6283 3.5732 72.9556 3.5732 76.425L2.89804 76.425Z"/>
</mask>
<path d="M2.89804 76.425C2.89804 72.7718 4.31215 69.2683 6.82928 66.6851C9.3464 64.1019 12.7604 62.6507 16.3201 62.6507C19.8799 62.6507 23.2938 64.1019 25.811 66.6851C28.3281 69.2683 29.7422 72.7718 29.7422 76.425L29.067 76.425C29.067 72.9556 27.7241 69.6283 25.3335 67.1751C22.943 64.7218 19.7008 63.3436 16.3201 63.3436C12.9394 63.3436 9.6972 64.7218 7.30669 67.1751C4.91618 69.6283 3.5732 72.9556 3.5732 76.425L2.89804 76.425Z" stroke="url(#paint1_linear_252_1470)" stroke-width="2.38179" mask="url(#path-2-inside-1_252_1470)"/>
<path d="M56.2427 53.3738C56.2427 57.4306 52.954 60.7193 48.8972 60.7193C44.8403 60.7193 41.5516 57.4306 41.5516 53.3738C41.5516 49.3169 44.8403 46.0282 48.8972 46.0282C52.954 46.0282 56.2427 49.3169 56.2427 53.3738Z" stroke="url(#paint2_linear_252_1470)" stroke-width="0.595446"/>
<mask id="path-4-inside-2_252_1470" fill="white">
<path d="M35.4723 76.425C35.4723 72.7718 36.8864 69.2683 39.4035 66.6851C41.9206 64.1019 45.3346 62.6507 48.8943 62.6507C52.4541 62.6507 55.868 64.1019 58.3852 66.6851C60.9023 69.2683 62.3164 72.7718 62.3164 76.425L61.6412 76.425C61.6412 72.9556 60.2983 69.6283 57.9078 67.1751C55.5173 64.7218 52.275 63.3436 48.8943 63.3436C45.5136 63.3436 42.2714 64.7218 39.8809 67.1751C37.4904 69.6283 36.1474 72.9556 36.1474 76.425L35.4723 76.425Z"/>
</mask>
<path d="M35.4723 76.425C35.4723 72.7718 36.8864 69.2683 39.4035 66.6851C41.9206 64.1019 45.3346 62.6507 48.8943 62.6507C52.4541 62.6507 55.868 64.1019 58.3852 66.6851C60.9023 69.2683 62.3164 72.7718 62.3164 76.425L61.6412 76.425C61.6412 72.9556 60.2983 69.6283 57.9078 67.1751C55.5173 64.7218 52.275 63.3436 48.8943 63.3436C45.5136 63.3436 42.2714 64.7218 39.8809 67.1751C37.4904 69.6283 36.1474 72.9556 36.1474 76.425L35.4723 76.425Z" stroke="url(#paint3_linear_252_1470)" stroke-width="2.38179" mask="url(#path-4-inside-2_252_1470)"/>
<path d="M88.8209 53.3738C88.8209 57.4306 85.5321 60.7193 81.4753 60.7193C77.4185 60.7193 74.1298 57.4306 74.1298 53.3738C74.1298 49.3169 77.4185 46.0282 81.4753 46.0282C85.5321 46.0282 88.8209 49.3169 88.8209 53.3738Z" stroke="url(#paint4_linear_252_1470)" stroke-width="0.595446"/>
<mask id="path-6-inside-3_252_1470" fill="white">
<path d="M68.0504 76.425C68.0504 72.7718 69.4645 69.2683 71.9816 66.6851C74.4987 64.1019 77.9127 62.6507 81.4725 62.6507C85.0322 62.6507 88.4462 64.1019 90.9633 66.6851C93.4804 69.2683 94.8945 72.7718 94.8945 76.425L94.2194 76.425C94.2194 72.9556 92.8764 69.6283 90.4859 67.1751C88.0954 64.7218 84.8532 63.3436 81.4725 63.3436C78.0918 63.3436 74.8495 64.7218 72.459 67.1751C70.0685 69.6283 68.7255 72.9556 68.7255 76.425L68.0504 76.425Z"/>
</mask>
<path d="M68.0504 76.425C68.0504 72.7718 69.4645 69.2683 71.9816 66.6851C74.4987 64.1019 77.9127 62.6507 81.4725 62.6507C85.0322 62.6507 88.4462 64.1019 90.9633 66.6851C93.4804 69.2683 94.8945 72.7718 94.8945 76.425L94.2194 76.425C94.2194 72.9556 92.8764 69.6283 90.4859 67.1751C88.0954 64.7218 84.8532 63.3436 81.4725 63.3436C78.0918 63.3436 74.8495 64.7218 72.459 67.1751C70.0685 69.6283 68.7255 72.9556 68.7255 76.425L68.0504 76.425Z" stroke="url(#paint5_linear_252_1470)" stroke-width="2.38179" mask="url(#path-6-inside-3_252_1470)"/>
<path d="M58.3455 19.6338C58.3455 24.8529 54.1146 29.0838 48.8955 29.0838C43.6764 29.0838 39.4455 24.8529 39.4455 19.6338C39.4455 14.4147 43.6764 10.1838 48.8955 10.1838C54.1146 10.1838 58.3455 14.4147 58.3455 19.6338Z" stroke="url(#paint6_linear_252_1470)" stroke-width="0.766036"/>
<mask id="path-8-inside-4_252_1470" fill="white">
<path d="M33.9427 40.4311C35.6503 37.3959 38.1966 34.9484 41.2595 33.3983C44.3225 31.8482 47.7646 31.265 51.1505 31.7225C54.5365 32.1799 57.7142 33.6575 60.2819 35.9684C62.8495 38.2792 64.6918 41.3196 65.5757 44.7049L64.7367 44.9356C63.8973 41.7206 62.1477 38.8332 59.7092 36.6385C57.2707 34.4439 54.2528 33.0407 51.0372 32.6062C47.8215 32.1718 44.5526 32.7256 41.6437 34.1978C38.7348 35.6699 36.3166 37.9942 34.6949 40.8768L33.9427 40.4311Z"/>
</mask>
<path d="M33.9427 40.4311C35.6503 37.3959 38.1966 34.9484 41.2595 33.3983C44.3225 31.8482 47.7646 31.265 51.1505 31.7225C54.5365 32.1799 57.7142 33.6575 60.2819 35.9684C62.8495 38.2792 64.6918 41.3196 65.5757 44.7049L64.7367 44.9356C63.8973 41.7206 62.1477 38.8332 59.7092 36.6385C57.2707 34.4439 54.2528 33.0407 51.0372 32.6062C47.8215 32.1718 44.5526 32.7256 41.6437 34.1978C38.7348 35.6699 36.3166 37.9942 34.6949 40.8768L33.9427 40.4311Z" stroke="url(#paint7_linear_252_1470)" stroke-width="3.06414" mask="url(#path-8-inside-4_252_1470)"/>
<path d="M30.7597 35.3113C30.7597 34.4948 31.4213 33.8332 32.2378 33.8325H32.9106C33.3008 33.8325 33.6748 33.6776 33.952 33.403L34.422 32.9323C34.998 32.3531 35.9342 32.3505 36.5134 32.9258L36.514 32.9264L36.5199 32.9317L36.9906 33.4024C37.2671 33.6776 37.6418 33.8319 38.032 33.8319H38.7061C39.5226 33.8319 40.1849 34.4941 40.1849 35.3107V35.9827C40.1849 36.3737 40.3391 36.7476 40.6143 37.0248L41.0851 37.4955C41.6642 38.0715 41.6675 39.0076 41.0923 39.5868L40.615 40.0641C40.3398 40.3407 40.1855 40.7152 40.1855 41.1049V41.7795C40.1842 42.596 39.5219 43.2564 38.7061 43.2557H38.0307C37.6404 43.2557 37.2659 43.4106 36.9893 43.6859L36.5186 44.1559C35.944 44.7358 35.0078 44.7397 34.4279 44.165L33.9507 43.6878C33.6741 43.4126 33.2995 43.2583 32.9092 43.2577H32.2378C31.4213 43.2577 30.7597 42.596 30.7597 41.7795V41.1035C30.7597 40.7133 30.6048 40.3393 30.3295 40.0628L29.8595 39.5921C29.2796 39.0174 29.2757 38.0826 29.8497 37.5027C29.8497 37.5027 29.8517 37.5014 29.8523 37.5001L30.3282 37.0235C30.6035 36.747 30.7584 36.3724 30.7584 35.9814V35.3113" fill="#0C1018"/>
<path d="M30.7597 35.3113C30.7597 34.4948 31.4213 33.8332 32.2378 33.8325H32.9106C33.3008 33.8325 33.6748 33.6776 33.952 33.403L34.422 32.9323C34.998 32.3531 35.9342 32.3505 36.5134 32.9258L36.514 32.9264L36.5199 32.9317L36.9906 33.4024C37.2671 33.6776 37.6418 33.8319 38.032 33.8319H38.7061C39.5226 33.8319 40.1849 34.4941 40.1849 35.3107V35.9827C40.1849 36.3737 40.3391 36.7476 40.6143 37.0248L41.0851 37.4955C41.6642 38.0715 41.6675 39.0076 41.0923 39.5868L40.615 40.0641C40.3398 40.3407 40.1855 40.7152 40.1855 41.1049V41.7795C40.1842 42.596 39.5219 43.2564 38.7061 43.2557H38.0307C37.6404 43.2557 37.2659 43.4106 36.9893 43.6859L36.5186 44.1559C35.944 44.7358 35.0078 44.7397 34.4279 44.165L33.9507 43.6878C33.6741 43.4126 33.2995 43.2583 32.9092 43.2577H32.2378C31.4213 43.2577 30.7597 42.596 30.7597 41.7795V41.1035C30.7597 40.7133 30.6048 40.3393 30.3295 40.0628L29.8595 39.5921C29.2796 39.0174 29.2757 38.0826 29.8497 37.5027C29.8497 37.5027 29.8517 37.5014 29.8523 37.5001L30.3282 37.0235C30.6035 36.747 30.7584 36.3724 30.7584 35.9814V35.3113" stroke="url(#paint8_linear_252_1470)" stroke-width="1.14629" stroke-linecap="round" stroke-linejoin="round"/>
<path d="M33.7227 38.3418L34.9961 39.6172L37.6204 36.9922" stroke="url(#paint9_linear_252_1470)" stroke-width="1.24181" stroke-linecap="round" stroke-linejoin="round"/>
<g filter="url(#filter0_dddddd_252_1470)">
<ellipse cx="64.5078" cy="44.7531" rx="2.33784" ry="2.33784" transform="rotate(-75 64.5078 44.7531)" fill="#2DE3E3" fill-opacity="0.8"/>
</g>
<g filter="url(#filter1_dddddd_252_1470)">
<ellipse cx="28.9492" cy="75.6477" rx="2.33784" ry="2.33784" transform="rotate(-75 28.9492 75.6477)" fill="#2DE3E3" fill-opacity="0.8"/>
</g>
<g filter="url(#filter2_dddddd_252_1470)">
<ellipse cx="61.5937" cy="75.6477" rx="2.33784" ry="2.33784" transform="rotate(-75 61.5937 75.6477)" fill="#2DE3E3" fill-opacity="0.8"/>
</g>
<g filter="url(#filter3_dddddd_252_1470)">
<ellipse cx="94.2344" cy="75.6477" rx="2.33784" ry="2.33784" transform="rotate(-75 94.2344 75.6477)" fill="#2DE3E3" fill-opacity="0.8"/>
</g>
</g>
<defs>
<filter id="filter0_dddddd_252_1470" x="3.45055" y="-16.3034" width="122.115" height="122.111" filterUnits="userSpaceOnUse" color-interpolation-filters="sRGB">
<feFlood flood-opacity="0" result="BackgroundImageFix"/>
<feColorMatrix in="SourceAlpha" type="matrix" values="0 0 0 0 0 0 0 0 0 0 0 0 0 0 0 0 0 0 127 0" result="hardAlpha"/>
<feOffset/>
<feGaussianBlur stdDeviation="0.699017"/>
<feColorMatrix type="matrix" values="0 0 0 0 0.176471 0 0 0 0 0.890196 0 0 0 0 0.890196 0 0 0 1 0"/>
<feBlend mode="normal" in2="BackgroundImageFix" result="effect1_dropShadow_252_1470"/>
<feColorMatrix in="SourceAlpha" type="matrix" values="0 0 0 0 0 0 0 0 0 0 0 0 0 0 0 0 0 0 127 0" result="hardAlpha"/>
<feOffset/>
<feGaussianBlur stdDeviation="1.39803"/>
<feColorMatrix type="matrix" values="0 0 0 0 0.176471 0 0 0 0 0.890196 0 0 0 0 0.890196 0 0 0 1 0"/>
<feBlend mode="normal" in2="effect1_dropShadow_252_1470" result="effect2_dropShadow_252_1470"/>
<feColorMatrix in="SourceAlpha" type="matrix" values="0 0 0 0 0 0 0 0 0 0 0 0 0 0 0 0 0 0 127 0" result="hardAlpha"/>
<feOffset/>
<feGaussianBlur stdDeviation="4.89312"/>
<feColorMatrix type="matrix" values="0 0 0 0 0.176471 0 0 0 0 0.890196 0 0 0 0 0.890196 0 0 0 1 0"/>
<feBlend mode="normal" in2="effect2_dropShadow_252_1470" result="effect3_dropShadow_252_1470"/>
<feColorMatrix in="SourceAlpha" type="matrix" values="0 0 0 0 0 0 0 0 0 0 0 0 0 0 0 0 0 0 127 0" result="hardAlpha"/>
<feOffset/>
<feGaussianBlur stdDeviation="9.78624"/>
<feColorMatrix type="matrix" values="0 0 0 0 0.176471 0 0 0 0 0.890196 0 0 0 0 0.890196 0 0 0 1 0"/>
<feBlend mode="normal" in2="effect3_dropShadow_252_1470" result="effect4_dropShadow_252_1470"/>
<feColorMatrix in="SourceAlpha" type="matrix" values="0 0 0 0 0 0 0 0 0 0 0 0 0 0 0 0 0 0 127 0" result="hardAlpha"/>
<feOffset/>
<feGaussianBlur stdDeviation="16.7764"/>
<feColorMatrix type="matrix" values="0 0 0 0 0.176471 0 0 0 0 0.890196 0 0 0 0 0.890196 0 0 0 1 0"/>
<feBlend mode="normal" in2="effect4_dropShadow_252_1470" result="effect5_dropShadow_252_1470"/>
<feColorMatrix in="SourceAlpha" type="matrix" values="0 0 0 0 0 0 0 0 0 0 0 0 0 0 0 0 0 0 127 0" result="hardAlpha"/>
<feOffset/>
<feGaussianBlur stdDeviation="29.3587"/>
<feColorMatrix type="matrix" values="0 0 0 0 0.176471 0 0 0 0 0.890196 0 0 0 0 0.890196 0 0 0 1 0"/>
<feBlend mode="normal" in2="effect5_dropShadow_252_1470" result="effect6_dropShadow_252_1470"/>
<feBlend mode="normal" in="SourceGraphic" in2="effect6_dropShadow_252_1470" result="shape"/>
</filter>
<filter id="filter1_dddddd_252_1470" x="-32.108" y="14.5912" width="122.115" height="122.111" filterUnits="userSpaceOnUse" color-interpolation-filters="sRGB">
<feFlood flood-opacity="0" result="BackgroundImageFix"/>
<feColorMatrix in="SourceAlpha" type="matrix" values="0 0 0 0 0 0 0 0 0 0 0 0 0 0 0 0 0 0 127 0" result="hardAlpha"/>
<feOffset/>
<feGaussianBlur stdDeviation="0.699017"/>
<feColorMatrix type="matrix" values="0 0 0 0 0.176471 0 0 0 0 0.890196 0 0 0 0 0.890196 0 0 0 1 0"/>
<feBlend mode="normal" in2="BackgroundImageFix" result="effect1_dropShadow_252_1470"/>
<feColorMatrix in="SourceAlpha" type="matrix" values="0 0 0 0 0 0 0 0 0 0 0 0 0 0 0 0 0 0 127 0" result="hardAlpha"/>
<feOffset/>
<feGaussianBlur stdDeviation="1.39803"/>
<feColorMatrix type="matrix" values="0 0 0 0 0.176471 0 0 0 0 0.890196 0 0 0 0 0.890196 0 0 0 1 0"/>
<feBlend mode="normal" in2="effect1_dropShadow_252_1470" result="effect2_dropShadow_252_1470"/>
<feColorMatrix in="SourceAlpha" type="matrix" values="0 0 0 0 0 0 0 0 0 0 0 0 0 0 0 0 0 0 127 0" result="hardAlpha"/>
<feOffset/>
<feGaussianBlur stdDeviation="4.89312"/>
<feColorMatrix type="matrix" values="0 0 0 0 0.176471 0 0 0 0 0.890196 0 0 0 0 0.890196 0 0 0 1 0"/>
<feBlend mode="normal" in2="effect2_dropShadow_252_1470" result="effect3_dropShadow_252_1470"/>
<feColorMatrix in="SourceAlpha" type="matrix" values="0 0 0 0 0 0 0 0 0 0 0 0 0 0 0 0 0 0 127 0" result="hardAlpha"/>
<feOffset/>
<feGaussianBlur stdDeviation="9.78624"/>
<feColorMatrix type="matrix" values="0 0 0 0 0.176471 0 0 0 0 0.890196 0 0 0 0 0.890196 0 0 0 1 0"/>
<feBlend mode="normal" in2="effect3_dropShadow_252_1470" result="effect4_dropShadow_252_1470"/>
<feColorMatrix in="SourceAlpha" type="matrix" values="0 0 0 0 0 0 0 0 0 0 0 0 0 0 0 0 0 0 127 0" result="hardAlpha"/>
<feOffset/>
<feGaussianBlur stdDeviation="16.7764"/>
<feColorMatrix type="matrix" values="0 0 0 0 0.176471 0 0 0 0 0.890196 0 0 0 0 0.890196 0 0 0 1 0"/>
<feBlend mode="normal" in2="effect4_dropShadow_252_1470" result="effect5_dropShadow_252_1470"/>
<feColorMatrix in="SourceAlpha" type="matrix" values="0 0 0 0 0 0 0 0 0 0 0 0 0 0 0 0 0 0 127 0" result="hardAlpha"/>
<feOffset/>
<feGaussianBlur stdDeviation="29.3587"/>
<feColorMatrix type="matrix" values="0 0 0 0 0.176471 0 0 0 0 0.890196 0 0 0 0 0.890196 0 0 0 1 0"/>
<feBlend mode="normal" in2="effect5_dropShadow_252_1470" result="effect6_dropShadow_252_1470"/>
<feBlend mode="normal" in="SourceGraphic" in2="effect6_dropShadow_252_1470" result="shape"/>
</filter>
<filter id="filter2_dddddd_252_1470" x="0.536488" y="14.5912" width="122.115" height="122.111" filterUnits="userSpaceOnUse" color-interpolation-filters="sRGB">
<feFlood flood-opacity="0" result="BackgroundImageFix"/>
<feColorMatrix in="SourceAlpha" type="matrix" values="0 0 0 0 0 0 0 0 0 0 0 0 0 0 0 0 0 0 127 0" result="hardAlpha"/>
<feOffset/>
<feGaussianBlur stdDeviation="0.699017"/>
<feColorMatrix type="matrix" values="0 0 0 0 0.176471 0 0 0 0 0.890196 0 0 0 0 0.890196 0 0 0 1 0"/>
<feBlend mode="normal" in2="BackgroundImageFix" result="effect1_dropShadow_252_1470"/>
<feColorMatrix in="SourceAlpha" type="matrix" values="0 0 0 0 0 0 0 0 0 0 0 0 0 0 0 0 0 0 127 0" result="hardAlpha"/>
<feOffset/>
<feGaussianBlur stdDeviation="1.39803"/>
<feColorMatrix type="matrix" values="0 0 0 0 0.176471 0 0 0 0 0.890196 0 0 0 0 0.890196 0 0 0 1 0"/>
<feBlend mode="normal" in2="effect1_dropShadow_252_1470" result="effect2_dropShadow_252_1470"/>
<feColorMatrix in="SourceAlpha" type="matrix" values="0 0 0 0 0 0 0 0 0 0 0 0 0 0 0 0 0 0 127 0" result="hardAlpha"/>
<feOffset/>
<feGaussianBlur stdDeviation="4.89312"/>
<feColorMatrix type="matrix" values="0 0 0 0 0.176471 0 0 0 0 0.890196 0 0 0 0 0.890196 0 0 0 1 0"/>
<feBlend mode="normal" in2="effect2_dropShadow_252_1470" result="effect3_dropShadow_252_1470"/>
<feColorMatrix in="SourceAlpha" type="matrix" values="0 0 0 0 0 0 0 0 0 0 0 0 0 0 0 0 0 0 127 0" result="hardAlpha"/>
<feOffset/>
<feGaussianBlur stdDeviation="9.78624"/>
<feColorMatrix type="matrix" values="0 0 0 0 0.176471 0 0 0 0 0.890196 0 0 0 0 0.890196 0 0 0 1 0"/>
<feBlend mode="normal" in2="effect3_dropShadow_252_1470" result="effect4_dropShadow_252_1470"/>
<feColorMatrix in="SourceAlpha" type="matrix" values="0 0 0 0 0 0 0 0 0 0 0 0 0 0 0 0 0 0 127 0" result="hardAlpha"/>
<feOffset/>
<feGaussianBlur stdDeviation="16.7764"/>
<feColorMatrix type="matrix" values="0 0 0 0 0.176471 0 0 0 0 0.890196 0 0 0 0 0.890196 0 0 0 1 0"/>
<feBlend mode="normal" in2="effect4_dropShadow_252_1470" result="effect5_dropShadow_252_1470"/>
<feColorMatrix in="SourceAlpha" type="matrix" values="0 0 0 0 0 0 0 0 0 0 0 0 0 0 0 0 0 0 127 0" result="hardAlpha"/>
<feOffset/>
<feGaussianBlur stdDeviation="29.3587"/>
<feColorMatrix type="matrix" values="0 0 0 0 0.176471 0 0 0 0 0.890196 0 0 0 0 0.890196 0 0 0 1 0"/>
<feBlend mode="normal" in2="effect5_dropShadow_252_1470" result="effect6_dropShadow_252_1470"/>
<feBlend mode="normal" in="SourceGraphic" in2="effect6_dropShadow_252_1470" result="shape"/>
</filter>
<filter id="filter3_dddddd_252_1470" x="33.1771" y="14.5912" width="122.115" height="122.111" filterUnits="userSpaceOnUse" color-interpolation-filters="sRGB">
<feFlood flood-opacity="0" result="BackgroundImageFix"/>
<feColorMatrix in="SourceAlpha" type="matrix" values="0 0 0 0 0 0 0 0 0 0 0 0 0 0 0 0 0 0 127 0" result="hardAlpha"/>
<feOffset/>
<feGaussianBlur stdDeviation="0.699017"/>
<feColorMatrix type="matrix" values="0 0 0 0 0.176471 0 0 0 0 0.890196 0 0 0 0 0.890196 0 0 0 1 0"/>
<feBlend mode="normal" in2="BackgroundImageFix" result="effect1_dropShadow_252_1470"/>
<feColorMatrix in="SourceAlpha" type="matrix" values="0 0 0 0 0 0 0 0 0 0 0 0 0 0 0 0 0 0 127 0" result="hardAlpha"/>
<feOffset/>
<feGaussianBlur stdDeviation="1.39803"/>
<feColorMatrix type="matrix" values="0 0 0 0 0.176471 0 0 0 0 0.890196 0 0 0 0 0.890196 0 0 0 1 0"/>
<feBlend mode="normal" in2="effect1_dropShadow_252_1470" result="effect2_dropShadow_252_1470"/>
<feColorMatrix in="SourceAlpha" type="matrix" values="0 0 0 0 0 0 0 0 0 0 0 0 0 0 0 0 0 0 127 0" result="hardAlpha"/>
<feOffset/>
<feGaussianBlur stdDeviation="4.89312"/>
<feColorMatrix type="matrix" values="0 0 0 0 0.176471 0 0 0 0 0.890196 0 0 0 0 0.890196 0 0 0 1 0"/>
<feBlend mode="normal" in2="effect2_dropShadow_252_1470" result="effect3_dropShadow_252_1470"/>
<feColorMatrix in="SourceAlpha" type="matrix" values="0 0 0 0 0 0 0 0 0 0 0 0 0 0 0 0 0 0 127 0" result="hardAlpha"/>
<feOffset/>
<feGaussianBlur stdDeviation="9.78624"/>
<feColorMatrix type="matrix" values="0 0 0 0 0.176471 0 0 0 0 0.890196 0 0 0 0 0.890196 0 0 0 1 0"/>
<feBlend mode="normal" in2="effect3_dropShadow_252_1470" result="effect4_dropShadow_252_1470"/>
<feColorMatrix in="SourceAlpha" type="matrix" values="0 0 0 0 0 0 0 0 0 0 0 0 0 0 0 0 0 0 127 0" result="hardAlpha"/>
<feOffset/>
<feGaussianBlur stdDeviation="16.7764"/>
<feColorMatrix type="matrix" values="0 0 0 0 0.176471 0 0 0 0 0.890196 0 0 0 0 0.890196 0 0 0 1 0"/>
<feBlend mode="normal" in2="effect4_dropShadow_252_1470" result="effect5_dropShadow_252_1470"/>
<feColorMatrix in="SourceAlpha" type="matrix" values="0 0 0 0 0 0 0 0 0 0 0 0 0 0 0 0 0 0 127 0" result="hardAlpha"/>
<feOffset/>
<feGaussianBlur stdDeviation="29.3587"/>
<feColorMatrix type="matrix" values="0 0 0 0 0.176471 0 0 0 0 0.890196 0 0 0 0 0.890196 0 0 0 1 0"/>
<feBlend mode="normal" in2="effect5_dropShadow_252_1470" result="effect6_dropShadow_252_1470"/>
<feBlend mode="normal" in="SourceGraphic" in2="effect6_dropShadow_252_1470" result="shape"/>
</filter>
<linearGradient id="paint0_linear_252_1470" x1="6.057" y1="45.7305" x2="25.6492" y2="45.4879" gradientUnits="userSpaceOnUse">
<stop stop-color="#2DE3E3"/>
<stop offset="1" stop-color="#0A81BE"/>
</linearGradient>
<linearGradient id="paint1_linear_252_1470" x1="34.3478" y1="90.1992" x2="-0.0576205" y2="90.6142" gradientUnits="userSpaceOnUse">
<stop stop-color="#2DE3E3"/>
<stop offset="1" stop-color="#0A81BE"/>
</linearGradient>
<linearGradient id="paint2_linear_252_1470" x1="38.6312" y1="45.7305" x2="58.2234" y2="45.4879" gradientUnits="userSpaceOnUse">
<stop stop-color="#2DE3E3"/>
<stop offset="1" stop-color="#0A81BE"/>
</linearGradient>
<linearGradient id="paint3_linear_252_1470" x1="66.922" y1="90.1992" x2="32.5166" y2="90.6142" gradientUnits="userSpaceOnUse">
<stop stop-color="#2DE3E3"/>
<stop offset="1" stop-color="#0A81BE"/>
</linearGradient>
<linearGradient id="paint4_linear_252_1470" x1="71.2093" y1="45.7305" x2="90.8015" y2="45.4879" gradientUnits="userSpaceOnUse">
<stop stop-color="#2DE3E3"/>
<stop offset="1" stop-color="#0A81BE"/>
</linearGradient>
<linearGradient id="paint5_linear_252_1470" x1="99.5001" y1="90.1992" x2="65.0947" y2="90.6142" gradientUnits="userSpaceOnUse">
<stop stop-color="#2DE3E3"/>
<stop offset="1" stop-color="#0A81BE"/>
</linearGradient>
<linearGradient id="paint6_linear_252_1470" x1="35.6884" y1="9.80078" x2="60.8936" y2="9.48875" gradientUnits="userSpaceOnUse">
<stop stop-color="#2DE3E3"/>
<stop offset="1" stop-color="#0A81BE"/>
</linearGradient>
<linearGradient id="paint7_linear_252_1470" x1="72.0891" y1="67.0117" x2="27.8269" y2="67.5457" gradientUnits="userSpaceOnUse">
<stop stop-color="#2DE3E3"/>
<stop offset="1" stop-color="#0A81BE"/>
</linearGradient>
<linearGradient id="paint8_linear_252_1470" x1="27.3459" y1="32.4961" x2="42.8537" y2="32.3041" gradientUnits="userSpaceOnUse">
<stop stop-color="#2DE3E3"/>
<stop offset="1" stop-color="#0A81BE"/>
</linearGradient>
<linearGradient id="paint9_linear_252_1470" x1="33.0539" y1="36.9922" x2="38.0485" y2="36.9004" gradientUnits="userSpaceOnUse">
<stop stop-color="#2DE3E3"/>
<stop offset="1" stop-color="#0A81BE"/>
</linearGradient>
<clipPath id="clip0_252_1470">
<rect width="100" height="100" fill="white"/>
</clipPath>
</defs>
</svg>
